<svg version="1.1" viewBox="0.0 0.0 960.0 720.0" fill="none" stroke="none" stroke-linecap="square" stroke-miterlimit="10" xmlns:xlink="http://www.w3.org/1999/xlink" xmlns="http://www.w3.org/2000/svg"><clipPath id="p.0"><path d="m0 0l960.0 0l0 720.0l-960.0 0l0 -720.0z" clip-rule="nonzero"/></clipPath><g clip-path="url(#p.0)"><path fill="#ffffff" d="m0 0l960.0 0l0 720.0l-960.0 0z" fill-rule="evenodd"/><path fill="#000000" fill-opacity="0.0" d="m0 0l233.82677 0l0 166.86613l-233.82677 0z" fill-rule="evenodd"/><path fill="#000000" d="m48.5 54.948074l6.125 -32.375l9.34375 0l-10.09375 45.5l-9.4375 0l-7.40625 -30.4375l-7.40625 30.4375l-9.4375 0l-10.09375 -45.5l9.34375 0l6.15625 32.3125l7.5 -32.3125l7.9375 0l7.46875 32.375zm28.75 -17.0q3.59375 -4.3125 9.03125 -4.3125q11.0 0 11.15625 12.78125l0 21.65625l-9.03125 0l0 -21.40625q0 -2.90625 -1.25 -4.296875q-1.25 -1.390625 -4.15625 -1.390625q-3.96875 0 -5.75 3.0625l0 24.03125l-9.03125 0l0 -48.0l9.03125 0l0 17.875zm42.5625 30.75q-7.4375 0 -12.109375 -4.5625q-4.671875 -4.5625 -4.671875 -12.15625l0 -0.875q0 -5.09375 1.96875 -9.109375q1.96875 -4.015625 5.578125 -6.1875q3.609375 -2.171875 8.234375 -2.171875q6.9375 0 10.921875 4.375q3.984375 4.375 3.984375 12.40625l0 3.6875l-21.53125 0q0.4375 3.3125 2.640625 5.3125q2.203125 2.0 5.578125 2.0q5.21875 0 8.15625 -3.78125l4.4375 4.96875q-2.03125 2.875 -5.5 4.484375q-3.46875 1.609375 -7.6875 1.609375zm-1.03125 -27.75q-2.6875 0 -4.359375 1.8125q-1.671875 1.8125 -2.140625 5.1875l12.5625 0l0 -0.71875q-0.0625 -3.0 -1.625 -4.640625q-1.5625 -1.640625 -4.4375 -1.640625zm39.0625 1.78125q-1.84375 -0.25 -3.25 -0.25q-5.125 0 -6.71875 3.46875l0 22.125l-9.03125 0l0 -33.8125l8.53125 0l0.25 4.03125q2.71875 -4.65625 7.53125 -4.65625q1.5 0 2.8125 0.40625l-0.125 8.6875zm19.3125 25.96875q-7.4375 0 -12.109375 -4.5625q-4.671875 -4.5625 -4.671875 -12.15625l0 -0.875q0 -5.09375 1.96875 -9.109375q1.96875 -4.015625 5.578125 -6.1875q3.609375 -2.171875 8.234375 -2.171875q6.9375 0 10.921875 4.375q3.984375 4.375 3.984375 12.40625l0 3.6875l-21.53125 0q0.4375 3.3125 2.640625 5.3125q2.203125 2.0 5.578125 2.0q5.21875 0 8.15625 -3.78125l4.4375 4.96875q-2.03125 2.875 -5.5 4.484375q-3.46875 1.609375 -7.6875 1.609375zm-1.03125 -27.75q-2.6875 0 -4.359375 1.8125q-1.671875 1.8125 -2.140625 5.1875l12.5625 0l0 -0.71875q-0.0625 -3.0 -1.625 -4.640625q-1.5625 -1.640625 -4.4375 -1.640625z" fill-rule="nonzero"/><path fill="#000000" d="m25.09375 132.09183l6.25 -21.03125l9.6875 0l-13.59375 39.0625l-0.75 1.78125q-3.03125 6.625 -10.0 6.625q-1.96875 0 -4.0 -0.59375l0 -6.84375l1.375 0.03125q2.5625 0 3.828125 -0.78125q1.265625 -0.78125 1.984375 -2.59375l1.0625 -2.78125l-11.84375 -33.90625l9.71875 0l6.28125 21.03125zm17.625 -4.4375q0 -5.03125 1.9375 -8.96875q1.9375 -3.9375 5.578125 -6.09375q3.640625 -2.15625 8.453125 -2.15625q6.84375 0 11.171875 4.1875q4.328125 4.1875 4.828125 11.375l0.0625 2.3125q0 7.78125 -4.34375 12.484375q-4.34375 4.703125 -11.65625 4.703125q-7.3125 0 -11.671875 -4.6875q-4.359375 -4.6875 -4.359375 -12.75l0 -0.40625zm9.03125 0.65625q0 4.8125 1.8125 7.359375q1.8125 2.546875 5.1875 2.546875q3.28125 0 5.125 -2.515625q1.84375 -2.515625 1.84375 -8.046875q0 -4.71875 -1.84375 -7.3125q-1.84375 -2.59375 -5.1875 -2.59375q-3.3125 0 -5.125 2.578125q-1.8125 2.578125 -1.8125 7.984375zm48.8125 13.125q-3.34375 4.0625 -9.25 4.0625q-5.4375 0 -8.296875 -3.125q-2.859375 -3.125 -2.921875 -9.15625l0 -22.15625l9.03125 0l0 21.84375q0 5.28125 4.8125 5.28125q4.59375 0 6.3125 -3.1875l0 -23.9375l9.0625 0l0 33.8125l-8.5 0l-0.25 -3.4375zm51.09375 3.4375q-0.625 -1.21875 -0.90625 -3.03125q-3.28125 3.65625 -8.53125 3.65625q-4.96875 0 -8.234375 -2.875q-3.265625 -2.875 -3.265625 -7.25q0 -5.375 3.984375 -8.25q3.984375 -2.875 11.515625 -2.90625l4.15625 0l0 -1.9375q0 -2.34375 -1.203125 -3.75q-1.203125 -1.40625 -3.796875 -1.40625q-2.28125 0 -3.578125 1.09375q-1.296875 1.09375 -1.296875 3.0l-9.03125 0q0 -2.9375 1.8125 -5.4375q1.8125 -2.5 5.125 -3.921875q3.3125 -1.421875 7.4375 -1.421875q6.25 0 9.921875 3.140625q3.671875 3.140625 3.671875 8.828125l0 14.65625q0.03125 4.8125 1.34375 7.28125l0 0.53125l-9.125 0zm-7.46875 -6.28125q2.0 0 3.6875 -0.890625q1.6875 -0.890625 2.5 -2.390625l0 -5.8125l-3.375 0q-6.78125 0 -7.21875 4.6875l-0.03125 0.53125q0 1.6875 1.1875 2.78125q1.1875 1.09375 3.25 1.09375zm41.1875 -19.0625q-1.84375 -0.25 -3.25 -0.25q-5.125 0 -6.71875 3.46875l0 22.125l-9.03125 0l0 -33.8125l8.53125 0l0.25 4.03125q2.71875 -4.65625 7.53125 -4.65625q1.5 0 2.8125 0.40625l-0.125 8.6875zm19.3125 25.96875q-7.4375 0 -12.109375 -4.5625q-4.671875 -4.5625 -4.671875 -12.15625l0 -0.875q0 -5.09375 1.96875 -9.109375q1.96875 -4.015625 5.578125 -6.1875q3.609375 -2.171875 8.234375 -2.171875q6.9375 0 10.921875 4.375q3.984375 4.375 3.984375 12.40625l0 3.6875l-21.53125 0q0.4375 3.3125 2.640625 5.3125q2.203125 2.0 5.578125 2.0q5.21875 0 8.15625 -3.78125l4.4375 4.96875q-2.03125 2.875 -5.5 4.484375q-3.46875 1.609375 -7.6875 1.609375zm-1.03125 -27.75q-2.6875 0 -4.359375 1.8125q-1.671875 1.8125 -2.140625 5.1875l12.5625 0l0 -0.71875q-0.0625 -3.0 -1.625 -4.640625q-1.5625 -1.640625 -4.4375 -1.640625z" fill-rule="nonzero"/><path fill="#000000" fill-opacity="0.0" d="m628.81366 567.5591l335.30707 0l0 152.44092l-335.30707 0z" fill-rule="evenodd"/><path fill="#000000" d="m677.31366 615.29456l6.125 -32.375l9.34375 0l-10.09375 45.5l-9.4375 0l-7.40625 -30.4375l-7.40625 30.4375l-9.4375 0l-10.09375 -45.5l9.34375 0l6.15625 32.3125l7.5 -32.3125l7.9375 0l7.46875 32.375zm28.75 -17.0q3.59375 -4.3125 9.03125 -4.3125q11.0 0 11.15625 12.78125l0 21.65625l-9.03125 0l0 -21.40625q0 -2.90625 -1.25 -4.296875q-1.25 -1.390625 -4.15625 -1.390625q-3.96875 0 -5.75 3.0625l0 24.03125l-9.03125 0l0 -48.0l9.03125 0l0 17.875zm42.5625 30.75q-7.4375 0 -12.109375 -4.5625q-4.671875 -4.5625 -4.671875 -12.15625l0 -0.875q0 -5.09375 1.96875 -9.109375q1.96875 -4.015625 5.578125 -6.1875q3.609375 -2.171875 8.234375 -2.171875q6.9375 0 10.921875 4.375q3.984375 4.375 3.984375 12.40625l0 3.6875l-21.53125 0q0.4375 3.3125 2.640625 5.3125q2.203125 2.0 5.578125 2.0q5.21875 0 8.15625 -3.78125l4.4375 4.96875q-2.03125 2.875 -5.5 4.484375q-3.46875 1.609375 -7.6875 1.609375zm-1.03125 -27.75q-2.6875 0 -4.359375 1.8125q-1.671875 1.8125 -2.140625 5.1875l12.5625 0l0 -0.71875q-0.0625 -3.0 -1.625 -4.640625q-1.5625 -1.640625 -4.4375 -1.640625zm39.0625 1.78125q-1.84375 -0.25 -3.25 -0.25q-5.125 0 -6.71875 3.46875l0 22.125l-9.03125 0l0 -33.8125l8.53125 0l0.25 4.03125q2.71875 -4.65625 7.53125 -4.65625q1.5 0 2.8125 0.40625l-0.125 8.6875zm19.3125 25.96875q-7.4375 0 -12.109375 -4.5625q-4.671875 -4.5625 -4.671875 -12.15625l0 -0.875q0 -5.09375 1.96875 -9.109375q1.96875 -4.015625 5.578125 -6.1875q3.609375 -2.171875 8.234375 -2.171875q6.9375 0 10.921875 4.375q3.984375 4.375 3.984375 12.40625l0 3.6875l-21.53125 0q0.4375 3.3125 2.640625 5.3125q2.203125 2.0 5.578125 2.0q5.21875 0 8.15625 -3.78125l4.4375 4.96875q-2.03125 2.875 -5.5 4.484375q-3.46875 1.609375 -7.6875 1.609375zm-1.03125 -27.75q-2.6875 0 -4.359375 1.8125q-1.671875 1.8125 -2.140625 5.1875l12.5625 0l0 -0.71875q-0.0625 -3.0 -1.625 -4.640625q-1.5625 -1.640625 -4.4375 -1.640625zm48.625 14.34375l6.25 -21.03125l9.6875 0l-13.59375 39.0625l-0.75 1.78125q-3.03125 6.625 -10.0 6.625q-1.96875 0 -4.0 -0.59375l0 -6.84375l1.375 0.03125q2.5625 0 3.828125 -0.78125q1.265625 -0.78125 1.984375 -2.59375l1.0625 -2.78125l-11.84375 -33.90625l9.71875 0l6.28125 21.03125zm17.625 -4.4375q0 -5.03125 1.9375 -8.96875q1.9375 -3.9375 5.578125 -6.09375q3.640625 -2.15625 8.453125 -2.15625q6.84375 0 11.171875 4.1875q4.328125 4.1875 4.828125 11.375l0.0625 2.3125q0 7.78125 -4.34375 12.484375q-4.34375 4.703125 -11.65625 4.703125q-7.3125 0 -11.671875 -4.6875q-4.359375 -4.6875 -4.359375 -12.75l0 -0.40625zm9.03125 0.65625q0 4.8125 1.8125 7.359375q1.8125 2.546875 5.1875 2.546875q3.28125 0 5.125 -2.515625q1.84375 -2.515625 1.84375 -8.046875q0 -4.71875 -1.84375 -7.3125q-1.84375 -2.59375 -5.1875 -2.59375q-3.3125 0 -5.125 2.578125q-1.8125 2.578125 -1.8125 7.984375zm48.8125 13.125q-3.34375 4.0625 -9.25 4.0625q-5.4375 0 -8.296875 -3.125q-2.859375 -3.125 -2.921875 -9.15625l0 -22.15625l9.03125 0l0 21.84375q0 5.28125 4.8125 5.28125q4.59375 0 6.3125 -3.1875l0 -23.9375l9.0625 0l0 33.8125l-8.5 0l-0.25 -3.4375z" fill-rule="nonzero"/><path fill="#000000" d="m649.5949 671.40704l0.28125 3.90625q3.625 -4.53125 9.71875 -4.53125q5.375 0 8.0 3.15625q2.625 3.15625 2.6875 9.4375l0 21.84375l-9.03125 0l0 -21.625q0 -2.875 -1.25 -4.171875q-1.25 -1.296875 -4.15625 -1.296875q-3.8125 0 -5.71875 3.25l0 23.84375l-9.03125 0l0 -33.8125l8.5 0zm43.09375 34.4375q-7.4375 0 -12.109375 -4.5625q-4.671875 -4.5625 -4.671875 -12.15625l0 -0.875q0 -5.09375 1.96875 -9.109375q1.96875 -4.015625 5.578125 -6.1875q3.609375 -2.171875 8.234375 -2.171875q6.9375 0 10.921875 4.375q3.984375 4.375 3.984375 12.40625l0 3.6875l-21.53125 0q0.4375 3.3125 2.640625 5.3125q2.203125 2.0 5.578125 2.0q5.21875 0 8.15625 -3.78125l4.4375 4.96875q-2.03125 2.875 -5.5 4.484375q-3.46875 1.609375 -7.6875 1.609375zm-1.03125 -27.75q-2.6875 0 -4.359375 1.8125q-1.671875 1.8125 -2.140625 5.1875l12.5625 0l0 -0.71875q-0.0625 -3.0 -1.625 -4.640625q-1.5625 -1.640625 -4.4375 -1.640625zm35.625 27.75q-7.4375 0 -12.109375 -4.5625q-4.671875 -4.5625 -4.671875 -12.15625l0 -0.875q0 -5.09375 1.96875 -9.109375q1.96875 -4.015625 5.578125 -6.1875q3.609375 -2.171875 8.234375 -2.171875q6.9375 0 10.921875 4.375q3.984375 4.375 3.984375 12.40625l0 3.6875l-21.53125 0q0.4375 3.3125 2.640625 5.3125q2.203125 2.0 5.578125 2.0q5.21875 0 8.15625 -3.78125l4.4375 4.96875q-2.03125 2.875 -5.5 4.484375q-3.46875 1.609375 -7.6875 1.609375zm-1.03125 -27.75q-2.6875 0 -4.359375 1.8125q-1.671875 1.8125 -2.140625 5.1875l12.5625 0l0 -0.71875q-0.0625 -3.0 -1.625 -4.640625q-1.5625 -1.640625 -4.4375 -1.640625zm18.65625 9.96875q0 -7.90625 3.546875 -12.59375q3.546875 -4.6875 9.703125 -4.6875q4.9375 0 8.15625 3.6875l0 -17.25l9.0625 0l0 48.0l-8.15625 0l-0.4375 -3.59375q-3.375 4.21875 -8.6875 4.21875q-5.96875 0 -9.578125 -4.703125q-3.609375 -4.703125 -3.609375 -13.078125zm9.03125 0.65625q0 4.75 1.65625 7.28125q1.65625 2.53125 4.8125 2.53125q4.1875 0 5.90625 -3.53125l0 -13.34375q-1.6875 -3.53125 -5.84375 -3.53125q-6.53125 0 -6.53125 10.59375zm55.1875 -25.625l0 8.3125l5.78125 0l0 6.625l-5.78125 0l0 16.875q0 1.875 0.71875 2.6875q0.71875 0.8125 2.75 0.8125q1.5 0 2.65625 -0.21875l0 6.84375q-2.65625 0.8125 -5.46875 0.8125q-9.5 0 -9.6875 -9.59375l0 -18.21875l-4.9375 0l0 -6.625l4.9375 0l0 -8.3125l9.03125 0zm8.46875 24.90625q0 -5.03125 1.9375 -8.96875q1.9375 -3.9375 5.578125 -6.09375q3.640625 -2.15625 8.453125 -2.15625q6.84375 0 11.171875 4.1875q4.328125 4.1875 4.828125 11.375l0.0625 2.3125q0 7.78125 -4.34375 12.484375q-4.34375 4.703125 -11.65625 4.703125q-7.3125 0 -11.671875 -4.6875q-4.359375 -4.6875 -4.359375 -12.75l0 -0.40625zm9.03125 0.65625q0 4.8125 1.8125 7.359375q1.8125 2.546875 5.1875 2.546875q3.28125 0 5.125 -2.515625q1.84375 -2.515625 1.84375 -8.046875q0 -4.71875 -1.84375 -7.3125q-1.84375 -2.59375 -5.1875 -2.59375q-3.3125 0 -5.125 2.578125q-1.8125 2.578125 -1.8125 7.984375zm74.96875 -0.03125q0 8.125 -3.46875 12.671875q-3.46875 4.546875 -9.6875 4.546875q-5.5 0 -8.78125 -4.21875l-0.40625 3.59375l-8.125 0l0 -48.0l9.03125 0l0 17.21875q3.125 -3.65625 8.21875 -3.65625q6.1875 0 9.703125 4.546875q3.515625 4.546875 3.515625 12.796875l0 0.5zm-9.03125 -0.65625q0 -5.125 -1.625 -7.484375q-1.625 -2.359375 -4.84375 -2.359375q-4.3125 0 -5.9375 3.53125l0 13.34375q1.65625 3.5625 6.0 3.5625q4.375 0 5.75 -4.3125q0.65625 -2.0625 0.65625 -6.28125zm30.15625 17.875q-7.4375 0 -12.109375 -4.5625q-4.671875 -4.5625 -4.671875 -12.15625l0 -0.875q0 -5.09375 1.96875 -9.109375q1.96875 -4.015625 5.578125 -6.1875q3.609375 -2.171875 8.234375 -2.171875q6.9375 0 10.921875 4.375q3.984375 4.375 3.984375 12.40625l0 3.6875l-21.53125 0q0.4375 3.3125 2.640625 5.3125q2.203125 2.0 5.578125 2.0q5.21875 0 8.15625 -3.78125l4.4375 4.96875q-2.03125 2.875 -5.5 4.484375q-3.46875 1.609375 -7.6875 1.609375zm-1.03125 -27.75q-2.6875 0 -4.359375 1.8125q-1.671875 1.8125 -2.140625 5.1875l12.5625 0l0 -0.71875q-0.0625 -3.0 -1.625 -4.640625q-1.5625 -1.640625 -4.4375 -1.640625z" fill-rule="nonzero"/><path fill="#000000" d="m92.18898 191.59055l0 0c0 -13.654907 11.069489 -24.724411 24.724403 -24.724411l0 0c6.5573196 0 12.846077 2.604889 17.482796 7.241623c4.636734 4.6367188 7.241623 10.925476 7.241623 17.482788l0 0c0 13.6549225 -11.069504 24.724411 -24.724419 24.724411l0 0c-13.654915 0 -24.724403 -11.069489 -24.724403 -24.724411z" fill-rule="evenodd"/><path stroke="#000000" stroke-width="1.0" stroke-linejoin="round" stroke-linecap="butt" d="m92.18898 191.59055l0 0c0 -13.654907 11.069489 -24.724411 24.724403 -24.724411l0 0c6.5573196 0 12.846077 2.604889 17.482796 7.241623c4.636734 4.6367188 7.241623 10.925476 7.241623 17.482788l0 0c0 13.6549225 -11.069504 24.724411 -24.724419 24.724411l0 0c-13.654915 0 -24.724403 -11.069489 -24.724403 -24.724411z" fill-rule="evenodd"/><path fill="#000000" d="m771.7428 542.83466l0 0c0 -13.654907 11.069458 -24.724426 24.724365 -24.724426l0 0c6.557373 0 12.84613 2.6049194 17.48285 7.241638c4.6367188 4.6367188 7.241577 10.925476 7.241577 17.482788l0 0c0 13.654907 -11.069458 24.724426 -24.724426 24.724426l0 0c-13.654907 0 -24.724365 -11.069519 -24.724365 -24.724426z" fill-rule="evenodd"/><path stroke="#000000" stroke-width="1.0" stroke-linejoin="round" stroke-linecap="butt" d="m771.7428 542.83466l0 0c0 -13.654907 11.069458 -24.724426 24.724365 -24.724426l0 0c6.557373 0 12.84613 2.6049194 17.48285 7.241638c4.6367188 4.6367188 7.241577 10.925476 7.241577 17.482788l0 0c0 13.654907 -11.069458 24.724426 -24.724426 24.724426l0 0c-13.654907 0 -24.724365 -11.069519 -24.724365 -24.724426z" fill-rule="evenodd"/><path fill="#000000" fill-opacity="0.0" d="m134.39618 209.07335l644.59845 316.28345" fill-rule="evenodd"/><path stroke="#000000" stroke-width="8.0" stroke-linejoin="round" stroke-linecap="butt" stroke-dasharray="8.0,24.0" d="m134.39618 209.07335l601.5062 295.1396" fill-rule="evenodd"/><path fill="#000000" stroke="#000000" stroke-width="8.0" stroke-linecap="butt" d="m730.0817 516.0757l38.413452 4.1293945l-26.772095 -27.85495z" fill-rule="evenodd"/><path fill="#000000" fill-opacity="0.0" d="m430.07874 216.31496l462.96063 0l0 166.86613l-462.96063 0z" fill-rule="evenodd"/><path fill="#000000" d="m467.485 310.91302l-18.4375 0l-6.21875 11.875l-6.28125 0l24.71875 -45.5l5.15625 0l9.0 45.5l-5.78125 0l-2.15625 -11.875zm-15.84375 -4.9375l14.96875 0l-3.78125 -21.21875l-11.1875 21.21875zm75.59375 0.0625q-0.625 5.1875 -2.84375 9.34375q-2.21875 4.15625 -5.375 6.15625q-3.15625 2.0 -7.0 1.90625q-6.125 -0.125 -9.09375 -4.59375l-1.15625 3.9375l-5.21875 0l8.34375 -48.0l5.65625 0l-3.40625 17.9375q4.0625 -4.5 9.875 -4.375q4.875 0.125 7.59375 3.59375q2.71875 3.46875 2.875 9.5625q0.03125 2.0 -0.1875 3.875l-0.0625 0.65625zm-5.375 -3.28125q0.09375 -4.5625 -1.53125 -6.984375q-1.625 -2.421875 -4.96875 -2.546875q-5.28125 -0.125 -8.9375 5.3125l-2.53125 14.71875q1.875 5.15625 7.03125 5.28125q3.3125 0.125 5.796875 -1.96875q2.484375 -2.09375 3.765625 -5.859375q1.28125 -3.765625 1.375 -7.953125zm15.96875 20.03125l-5.625 0l5.875 -33.8125l5.625 0l-5.875 33.8125zm4.65625 -46.15625q1.4375 -0.0625 2.390625 0.859375q0.953125 0.921875 0.953125 2.421875q-0.03125 1.46875 -0.953125 2.40625q-0.921875 0.9375 -2.390625 1.0q-1.46875 0.0625 -2.40625 -0.84375q-0.9375 -0.90625 -0.90625 -2.375q0.03125 -1.46875 0.9375 -2.4375q0.90625 -0.96875 2.375 -1.03125zm19.53125 4.15625l-1.4375 8.1875l6.15625 0l-0.78125 4.46875l-6.125 0l-3.53125 21.03125q-0.09375 0.8125 -0.03125 1.5q0.21875 2.4375 2.65625 2.4375q1.03125 0 2.75 -0.3125l-0.4375 4.71875q-2.03125 0.5625 -4.125 0.5625q-3.375 -0.0625 -5.0625 -2.484375q-1.6875 -2.421875 -1.3125 -6.515625l3.4375 -20.9375l-5.96875 0l0.78125 -4.46875l5.96875 0l1.4375 -8.1875l5.625 0zm32.5 8.15625l-0.71875 3.78125q4.25 -4.5 10.28125 -4.375q3.21875 0.0625 5.453125 1.46875q2.234375 1.40625 3.078125 3.96875q4.75 -5.5625 11.21875 -5.4375q5.0625 0.125 7.46875 3.40625q2.40625 3.28125 1.78125 8.8125l-3.71875 22.21875l-5.625 0l3.6875 -22.28125q0.1875 -1.625 0 -2.96875q-0.59375 -4.25 -5.5625 -4.34375q-3.09375 -0.0625 -5.609375 1.921875q-2.515625 1.984375 -3.234375 5.203125l-3.84375 22.46875l-5.6875 0l3.75 -22.25q0.40625 -3.46875 -1.046875 -5.34375q-1.453125 -1.875 -4.515625 -1.9375q-5.28125 -0.125 -8.40625 4.8125l-4.28125 24.71875l-5.65625 0l5.875 -33.8125l5.3125 -0.03125zm62.34375 -0.59375q4.25 0.0625 7.28125 2.3125q3.03125 2.25 4.484375 6.203125q1.453125 3.953125 0.984375 8.640625l-0.0625 0.6875q-0.59375 4.9375 -2.9375 8.921875q-2.34375 3.984375 -6.0625 6.203125q-3.71875 2.21875 -8.15625 2.09375q-4.21875 -0.0625 -7.265625 -2.3125q-3.046875 -2.25 -4.453125 -6.125q-1.40625 -3.875 -1.0 -8.53125q0.46875 -5.25 2.84375 -9.4375q2.375 -4.1875 6.109375 -6.484375q3.734375 -2.296875 8.234375 -2.171875zm-11.5 18.125q-0.21875 1.96875 0 4.09375q0.3125 3.6875 2.203125 5.875q1.890625 2.1875 5.046875 2.28125q2.8125 0.09375 5.1875 -1.390625q2.375 -1.484375 4.0 -4.484375q1.625 -3.0 2.09375 -6.65625q0.25 -2.875 0.09375 -4.84375q-0.375 -3.78125 -2.28125 -5.96875q-1.90625 -2.1875 -5.0625 -2.3125q-4.375 -0.09375 -7.4375 3.4375q-3.0625 3.53125 -3.78125 9.25l-0.0625 0.71875zm49.46875 -12.34375l-2.65625 -0.28125q-5.4375 0 -8.5625 4.90625l-4.15625 24.03125l-5.65625 0l5.875 -33.8125l5.46875 -0.03125l-0.84375 3.9375q3.59375 -4.71875 8.46875 -4.59375q1.03125 0 2.6875 0.46875l-0.625 5.375zm14.3125 29.28125q-6.3125 -0.125 -9.875 -4.65625q-3.5625 -4.53125 -3.0 -11.59375l0.15625 -1.34375q0.53125 -5.03125 2.984375 -9.1875q2.453125 -4.15625 5.984375 -6.265625q3.53125 -2.109375 7.625 -2.015625q5.21875 0.125 8.1875 3.46875q2.96875 3.34375 3.25 9.0625q0.09375 2.03125 -0.125 4.0625l-0.34375 2.59375l-22.09375 0q-0.5625 4.59375 1.515625 7.8125q2.078125 3.21875 6.203125 3.34375q5.0 0.125 9.25 -4.5l3.25 2.75q-2.125 3.0625 -5.484375 4.796875q-3.359375 1.734375 -7.484375 1.671875zm3.59375 -30.34375q-3.5 -0.09375 -6.109375 2.375q-2.609375 2.46875 -4.140625 7.34375l16.4375 0.03125l0.125 -0.5q0.5 -3.9375 -1.265625 -6.546875q-1.765625 -2.609375 -5.046875 -2.703125zm61.0 21.71875l10.78125 -25.8125l5.84375 0l-15.40625 33.8125l-4.59375 0l-3.5 -25.5625l-12.1875 25.5625l-4.59375 0l-3.65625 -33.8125l5.40625 0l2.0625 25.1875l12.0 -25.1875l4.5625 0l3.28125 25.8125zm35.40625 -26.4375q4.25 0.0625 7.28125 2.3125q3.03125 2.25 4.484375 6.203125q1.453125 3.953125 0.984375 8.640625l-0.0625 0.6875q-0.59375 4.9375 -2.9375 8.921875q-2.34375 3.984375 -6.0625 6.203125q-3.71875 2.21875 -8.15625 2.09375q-4.21875 -0.0625 -7.265625 -2.3125q-3.046875 -2.25 -4.453125 -6.125q-1.40625 -3.875 -1.0 -8.53125q0.46875 -5.25 2.84375 -9.4375q2.375 -4.1875 6.109375 -6.484375q3.734375 -2.296875 8.234375 -2.171875zm-11.5 18.125q-0.21875 1.96875 0 4.09375q0.3125 3.6875 2.203125 5.875q1.890625 2.1875 5.046875 2.28125q2.8125 0.09375 5.1875 -1.390625q2.375 -1.484375 4.0 -4.484375q1.625 -3.0 2.09375 -6.65625q0.25 -2.875 0.09375 -4.84375q-0.375 -3.78125 -2.28125 -5.96875q-1.90625 -2.1875 -5.0625 -2.3125q-4.375 -0.09375 -7.4375 3.4375q-3.0625 3.53125 -3.78125 9.25l-0.0625 0.71875zm49.46875 -12.34375l-2.65625 -0.28125q-5.4375 0 -8.5625 4.90625l-4.15625 24.03125l-5.65625 0l5.875 -33.8125l5.46875 -0.03125l-0.84375 3.9375q3.59375 -4.71875 8.46875 -4.59375q1.03125 0 2.6875 0.46875l-0.625 5.375zm12.40625 13.0625l-4.4375 3.96875l-2.0 11.625l-5.65625 0l8.34375 -48.0l5.65625 0l-5.0 28.6875l3.46875 -3.5l12.0 -11.0l7.34375 0l-15.53125 14.40625l10.6875 19.40625l-6.1875 0l-8.6875 -15.59375z" fill-rule="nonzero"/></g></svg>