<svg version="1.1" viewBox="0.0 0.0 960.0 720.0" fill="none" stroke="none" stroke-linecap="square" stroke-miterlimit="10" xmlns:xlink="http://www.w3.org/1999/xlink" xmlns="http://www.w3.org/2000/svg"><clipPath id="g282f325985f_0_39.0"><path d="m0 0l960.0 0l0 720.0l-960.0 0l0 -720.0z" clip-rule="nonzero"/></clipPath><g clip-path="url(#g282f325985f_0_39.0)"><path fill="#ffffff" d="m0 0l960.0 0l0 720.0l-960.0 0z" fill-rule="evenodd"/><path fill="#000000" fill-opacity="0.0" d="m0 341.9685l233.82677 0l0 36.06299l-233.82677 0z" fill-rule="evenodd"/><path fill="#000000" d="m28.75 364.9575l3.0625 -16.1875l4.671875 0l-5.046875 22.75l-4.71875 0l-3.703125 -15.21875l-3.703125 15.21875l-4.71875 0l-5.046875 -22.75l4.671875 0l3.078125 16.15625l3.75 -16.15625l3.96875 0l3.734375 16.1875zm14.375 -8.5q1.796875 -2.15625 4.515625 -2.15625q5.5 0 5.578125 6.390625l0 10.828125l-4.515625 0l0 -10.703125q0 -1.453125 -0.625 -2.140625q-0.625 -0.703125 -2.078125 -0.703125q-1.984375 0 -2.875 1.53125l0 12.015625l-4.515625 0l0 -24.0l4.515625 0l0 8.9375zm21.28125 15.375q-3.71875 0 -6.0625 -2.28125q-2.328125 -2.28125 -2.328125 -6.078125l0 -0.4375q0 -2.546875 0.984375 -4.546875q0.984375 -2.015625 2.78125 -3.09375q1.8125 -1.09375 4.125 -1.09375q3.46875 0 5.453125 2.1875q2.0 2.1875 2.0 6.203125l0 1.84375l-10.765625 0q0.21875 1.65625 1.3125 2.65625q1.109375 1.0 2.796875 1.0q2.609375 0 4.078125 -1.890625l2.21875 2.484375q-1.015625 1.4375 -2.75 2.25q-1.734375 0.796875 -3.84375 0.796875zm-0.515625 -13.875q-1.34375 0 -2.1875 0.90625q-0.828125 0.90625 -1.0625 2.59375l6.28125 0l0 -0.359375q-0.03125 -1.5 -0.8125 -2.3125q-0.78125 -0.828125 -2.21875 -0.828125zm19.53125 0.890625q-0.921875 -0.125 -1.625 -0.125q-2.5625 0 -3.359375 1.734375l0 11.0625l-4.515625 0l0 -16.90625l4.265625 0l0.125 2.015625q1.359375 -2.328125 3.765625 -2.328125q0.75 0 1.40625 0.203125l-0.0625 4.34375zm9.65625 12.984375q-3.71875 0 -6.0625 -2.28125q-2.328125 -2.28125 -2.328125 -6.078125l0 -0.4375q0 -2.546875 0.984375 -4.546875q0.984375 -2.015625 2.78125 -3.09375q1.8125 -1.09375 4.125 -1.09375q3.46875 0 5.453125 2.1875q2.0 2.1875 2.0 6.203125l0 1.84375l-10.765625 0q0.21875 1.65625 1.3125 2.65625q1.109375 1.0 2.796875 1.0q2.609375 0 4.078125 -1.890625l2.21875 2.484375q-1.015625 1.4375 -2.75 2.25q-1.734375 0.796875 -3.84375 0.796875zm-0.515625 -13.875q-1.34375 0 -2.1875 0.90625q-0.828125 0.90625 -1.0625 2.59375l6.28125 0l0 -0.359375q-0.03125 -1.5 -0.8125 -2.3125q-0.78125 -0.828125 -2.21875 -0.828125zm24.3125 7.171875l3.125 -10.515625l4.84375 0l-6.796875 19.53125l-0.375 0.890625q-1.515625 3.3125 -5.0 3.3125q-0.984375 0 -2.0 -0.296875l0 -3.421875l0.6875 0.015625q1.28125 0 1.90625 -0.390625q0.640625 -0.390625 1.0 -1.296875l0.53125 -1.390625l-5.921875 -16.953125l4.859375 0l3.140625 10.515625zm8.8125 -2.21875q0 -2.515625 0.96875 -4.484375q0.96875 -1.96875 2.78125 -3.046875q1.828125 -1.078125 4.234375 -1.078125q3.421875 0 5.578125 2.09375q2.171875 2.09375 2.421875 5.6875l0.03125 1.15625q0 3.890625 -2.171875 6.25q-2.171875 2.34375 -5.828125 2.34375q-3.65625 0 -5.84375 -2.34375q-2.171875 -2.34375 -2.171875 -6.375l0 -0.203125zm4.515625 0.328125q0 2.40625 0.90625 3.6875q0.90625 1.265625 2.59375 1.265625q1.640625 0 2.5625 -1.25q0.921875 -1.265625 0.921875 -4.03125q0 -2.359375 -0.921875 -3.65625q-0.921875 -1.296875 -2.59375 -1.296875q-1.65625 0 -2.5625 1.296875q-0.90625 1.28125 -0.90625 3.984375zm24.40625 6.5625q-1.671875 2.03125 -4.625 2.03125q-2.71875 0 -4.15625 -1.5625q-1.421875 -1.5625 -1.453125 -4.578125l0 -11.078125l4.515625 0l0 10.921875q0 2.640625 2.40625 2.640625q2.296875 0 3.15625 -1.59375l0 -11.96875l4.53125 0l0 16.90625l-4.25 0l-0.125 -1.71875zm25.546875 1.71875q-0.3125 -0.609375 -0.453125 -1.515625q-1.640625 1.828125 -4.265625 1.828125q-2.484375 0 -4.125 -1.4375q-1.625 -1.4375 -1.625 -3.625q0 -2.6875 1.984375 -4.125q2.0 -1.4375 5.765625 -1.453125l2.078125 0l0 -0.96875q0 -1.171875 -0.609375 -1.875q-0.59375 -0.703125 -1.890625 -0.703125q-1.140625 0 -1.796875 0.546875q-0.640625 0.546875 -0.640625 1.5l-4.515625 0q0 -1.46875 0.90625 -2.71875q0.90625 -1.25 2.5625 -1.953125q1.65625 -0.71875 3.71875 -0.71875q3.125 0 4.953125 1.578125q1.84375 1.5625 1.84375 4.40625l0 7.328125q0.015625 2.40625 0.671875 3.640625l0 0.265625l-4.5625 0zm-3.734375 -3.140625q1.0 0 1.84375 -0.4375q0.84375 -0.453125 1.25 -1.203125l0 -2.90625l-1.6875 0q-3.390625 0 -3.609375 2.34375l-0.015625 0.265625q0 0.84375 0.59375 1.390625q0.59375 0.546875 1.625 0.546875zm20.59375 -9.53125q-0.921875 -0.125 -1.625 -0.125q-2.5625 0 -3.359375 1.734375l0 11.0625l-4.515625 0l0 -16.90625l4.265625 0l0.125 2.015625q1.359375 -2.328125 3.765625 -2.328125q0.75 0 1.40625 0.203125l-0.0625 4.34375zm9.65625 12.984375q-3.71875 0 -6.0625 -2.28125q-2.328125 -2.28125 -2.328125 -6.078125l0 -0.4375q0 -2.546875 0.984375 -4.546875q0.984375 -2.015625 2.78125 -3.09375q1.8125 -1.09375 4.125 -1.09375q3.46875 0 5.453125 2.1875q2.0 2.1875 2.0 6.203125l0 1.84375l-10.765625 0q0.21875 1.65625 1.3125 2.65625q1.109375 1.0 2.796875 1.0q2.609375 0 4.078125 -1.890625l2.21875 2.484375q-1.015625 1.4375 -2.75 2.25q-1.734375 0.796875 -3.84375 0.796875zm-0.515625 -13.875q-1.34375 0 -2.1875 0.90625q-0.828125 0.90625 -1.0625 2.59375l6.28125 0l0 -0.359375q-0.03125 -1.5 -0.8125 -2.3125q-0.78125 -0.828125 -2.21875 -0.828125z" fill-rule="nonzero"/><path fill="#000000" fill-opacity="0.0" d="m422.80316 539.4724l335.30707 0l0 152.44098l-335.30707 0z" fill-rule="evenodd"/><path fill="#000000" d="m451.55316 620.6504l3.0625 -16.1875l4.671875 0l-5.046875 22.75l-4.71875 0l-3.703125 -15.21875l-3.703125 15.21875l-4.71875 0l-5.046875 -22.75l4.671875 0l3.078125 16.15625l3.75 -16.15625l3.96875 0l3.734375 16.1875zm14.375 -8.5q1.796875 -2.15625 4.515625 -2.15625q5.5 0 5.578125 6.390625l0 10.828125l-4.515625 0l0 -10.703125q0 -1.453125 -0.625 -2.140625q-0.625 -0.703125 -2.078125 -0.703125q-1.984375 0 -2.875 1.53125l0 12.015625l-4.515625 0l0 -24.0l4.515625 0l0 8.9375zm21.28125 15.375q-3.71875 0 -6.0625 -2.28125q-2.328125 -2.28125 -2.328125 -6.078125l0 -0.4375q0 -2.546875 0.984375 -4.546875q0.984375 -2.015625 2.78125 -3.09375q1.8125 -1.09375 4.125 -1.09375q3.46875 0 5.453125 2.1875q2.0 2.1875 2.0 6.203125l0 1.84375l-10.765625 0q0.21875 1.65625 1.3125 2.65625q1.109375 1.0 2.796875 1.0q2.609375 0 4.078125 -1.890625l2.21875 2.484375q-1.015625 1.4375 -2.75 2.25q-1.734375 0.796875 -3.84375 0.796875zm-0.515625 -13.875q-1.34375 0 -2.1875 0.90625q-0.828125 0.90625 -1.0625 2.59375l6.28125 0l0 -0.359375q-0.03125 -1.5 -0.8125 -2.3125q-0.78125 -0.828125 -2.21875 -0.828125zm19.53125 0.890625q-0.921875 -0.125 -1.625 -0.125q-2.5625 0 -3.359375 1.734375l0 11.0625l-4.515625 0l0 -16.90625l4.265625 0l0.125 2.015625q1.359375 -2.328125 3.765625 -2.328125q0.75 0 1.40625 0.203125l-0.0625 4.34375zm9.65625 12.984375q-3.71875 0 -6.0625 -2.28125q-2.328125 -2.28125 -2.328125 -6.078125l0 -0.4375q0 -2.546875 0.984375 -4.546875q0.984375 -2.015625 2.78125 -3.09375q1.8125 -1.09375 4.125 -1.09375q3.46875 0 5.453125 2.1875q2.0 2.1875 2.0 6.203125l0 1.84375l-10.765625 0q0.21875 1.65625 1.3125 2.65625q1.109375 1.0 2.796875 1.0q2.609375 0 4.078125 -1.890625l2.21875 2.484375q-1.015625 1.4375 -2.75 2.25q-1.734375 0.796875 -3.84375 0.796875zm-0.515625 -13.875q-1.34375 0 -2.1875 0.90625q-0.828125 0.90625 -1.0625 2.59375l6.28125 0l0 -0.359375q-0.03125 -1.5 -0.8125 -2.3125q-0.78125 -0.828125 -2.21875 -0.828125zm24.3125 7.171875l3.125 -10.515625l4.84375 0l-6.796875 19.53125l-0.375 0.890625q-1.515625 3.3125 -5.0 3.3125q-0.984375 0 -2.0 -0.296875l0 -3.421875l0.6875 0.015625q1.28125 0 1.90625 -0.390625q0.640625 -0.390625 1.0 -1.296875l0.53125 -1.390625l-5.921875 -16.953125l4.859375 0l3.140625 10.515625zm8.8125 -2.21875q0 -2.515625 0.96875 -4.484375q0.96875 -1.96875 2.78125 -3.046875q1.828125 -1.078125 4.234375 -1.078125q3.421875 0 5.578125 2.09375q2.171875 2.09375 2.421875 5.6875l0.03125 1.15625q0 3.890625 -2.171875 6.25q-2.171875 2.34375 -5.828125 2.34375q-3.65625 0 -5.84375 -2.34375q-2.171875 -2.34375 -2.171875 -6.375l0 -0.203125zm4.515625 0.328125q0 2.40625 0.90625 3.6875q0.90625 1.265625 2.59375 1.265625q1.640625 0 2.5625 -1.25q0.921875 -1.265625 0.921875 -4.03125q0 -2.359375 -0.921875 -3.65625q-0.921875 -1.296875 -2.59375 -1.296875q-1.65625 0 -2.5625 1.296875q-0.90625 1.28125 -0.90625 3.984375zm24.40625 6.5625q-1.671875 2.03125 -4.625 2.03125q-2.71875 0 -4.15625 -1.5625q-1.421875 -1.5625 -1.453125 -4.578125l0 -11.078125l4.515625 0l0 10.921875q0 2.640625 2.40625 2.640625q2.296875 0 3.15625 -1.59375l0 -11.96875l4.53125 0l0 16.90625l-4.25 0l-0.125 -1.71875zm19.90625 -15.1875l0.140625 1.953125q1.8125 -2.265625 4.859375 -2.265625q2.6875 0 4.0 1.578125q1.3125 1.578125 1.34375 4.71875l0 10.921875l-4.515625 0l0 -10.8125q0 -1.4375 -0.625 -2.078125q-0.625 -0.65625 -2.078125 -0.65625q-1.90625 0 -2.859375 1.625l0 11.921875l-4.515625 0l0 -16.90625l4.25 0zm21.546875 17.21875q-3.71875 0 -6.0625 -2.28125q-2.328125 -2.28125 -2.328125 -6.078125l0 -0.4375q0 -2.546875 0.984375 -4.546875q0.984375 -2.015625 2.78125 -3.09375q1.8125 -1.09375 4.125 -1.09375q3.46875 0 5.453125 2.1875q2.0 2.1875 2.0 6.203125l0 1.84375l-10.765625 0q0.21875 1.65625 1.3125 2.65625q1.109375 1.0 2.796875 1.0q2.609375 0 4.078125 -1.890625l2.21875 2.484375q-1.015625 1.4375 -2.75 2.25q-1.734375 0.796875 -3.84375 0.796875zm-0.515625 -13.875q-1.34375 0 -2.1875 0.90625q-0.828125 0.90625 -1.0625 2.59375l6.28125 0l0 -0.359375q-0.03125 -1.5 -0.8125 -2.3125q-0.78125 -0.828125 -2.21875 -0.828125zm17.8125 13.875q-3.71875 0 -6.0625 -2.28125q-2.328125 -2.28125 -2.328125 -6.078125l0 -0.4375q0 -2.546875 0.984375 -4.546875q0.984375 -2.015625 2.78125 -3.09375q1.8125 -1.09375 4.125 -1.09375q3.46875 0 5.453125 2.1875q2.0 2.1875 2.0 6.203125l0 1.84375l-10.765625 0q0.21875 1.65625 1.3125 2.65625q1.109375 1.0 2.796875 1.0q2.609375 0 4.078125 -1.890625l2.21875 2.484375q-1.015625 1.4375 -2.75 2.25q-1.734375 0.796875 -3.84375 0.796875zm-0.515625 -13.875q-1.34375 0 -2.1875 0.90625q-0.828125 0.90625 -1.0625 2.59375l6.28125 0l0 -0.359375q-0.03125 -1.5 -0.8125 -2.3125q-0.78125 -0.828125 -2.21875 -0.828125zm9.328125 4.984375q0 -3.953125 1.765625 -6.296875q1.78125 -2.34375 4.859375 -2.34375q2.46875 0 4.078125 1.84375l0 -8.625l4.53125 0l0 24.0l-4.078125 0l-0.21875 -1.796875q-1.6875 2.109375 -4.34375 2.109375q-2.984375 0 -4.796875 -2.34375q-1.796875 -2.359375 -1.796875 -6.546875zm4.515625 0.328125q0 2.375 0.828125 3.640625q0.828125 1.265625 2.40625 1.265625q2.09375 0 2.953125 -1.765625l0 -6.671875q-0.84375 -1.765625 -2.921875 -1.765625q-3.265625 0 -3.265625 5.296875zm27.59375 -12.8125l0 4.15625l2.890625 0l0 3.3125l-2.890625 0l0 8.4375q0 0.9375 0.359375 1.34375q0.359375 0.40625 1.375 0.40625q0.75 0 1.328125 -0.109375l0 3.421875q-1.328125 0.40625 -2.734375 0.40625q-4.75 0 -4.84375 -4.796875l0 -9.109375l-2.46875 0l0 -3.3125l2.46875 0l0 -4.15625l4.515625 0zm4.234375 12.453125q0 -2.515625 0.96875 -4.484375q0.96875 -1.96875 2.78125 -3.046875q1.828125 -1.078125 4.234375 -1.078125q3.421875 0 5.578125 2.09375q2.171875 2.09375 2.421875 5.6875l0.03125 1.15625q0 3.890625 -2.171875 6.25q-2.171875 2.34375 -5.828125 2.34375q-3.65625 0 -5.84375 -2.34375q-2.171875 -2.34375 -2.171875 -6.375l0 -0.203125zm4.515625 0.328125q0 2.40625 0.90625 3.6875q0.90625 1.265625 2.59375 1.265625q1.640625 0 2.5625 -1.25q0.921875 -1.265625 0.921875 -4.03125q0 -2.359375 -0.921875 -3.65625q-0.921875 -1.296875 -2.59375 -1.296875q-1.65625 0 -2.5625 1.296875q-0.90625 1.28125 -0.90625 3.984375zm37.484375 -0.015625q0 4.0625 -1.734375 6.34375q-1.734375 2.265625 -4.84375 2.265625q-2.75 0 -4.390625 -2.109375l-0.203125 1.796875l-4.0625 0l0 -24.0l4.515625 0l0 8.609375q1.5625 -1.828125 4.109375 -1.828125q3.09375 0 4.84375 2.28125q1.765625 2.265625 1.765625 6.390625l0 0.25zm-4.515625 -0.328125q0 -2.5625 -0.8125 -3.734375q-0.8125 -1.1875 -2.421875 -1.1875q-2.15625 0 -2.96875 1.765625l0 6.671875q0.828125 1.78125 3.0 1.78125q2.1875 0 2.875 -2.15625q0.328125 -1.03125 0.328125 -3.140625zm15.078125 8.9375q-3.71875 0 -6.0625 -2.28125q-2.328125 -2.28125 -2.328125 -6.078125l0 -0.4375q0 -2.546875 0.984375 -4.546875q0.984375 -2.015625 2.78125 -3.09375q1.8125 -1.09375 4.125 -1.09375q3.46875 0 5.453125 2.1875q2.0 2.1875 2.0 6.203125l0 1.84375l-10.765625 0q0.21875 1.65625 1.3125 2.65625q1.109375 1.0 2.796875 1.0q2.609375 0 4.078125 -1.890625l2.21875 2.484375q-1.015625 1.4375 -2.75 2.25q-1.734375 0.796875 -3.84375 0.796875zm-0.515625 -13.875q-1.34375 0 -2.1875 0.90625q-0.828125 0.90625 -1.0625 2.59375l6.28125 0l0 -0.359375q-0.03125 -1.5 -0.8125 -2.3125q-0.78125 -0.828125 -2.21875 -0.828125z" fill-rule="nonzero"/><path fill="#000000" d="m577.98425 584.90027l0 0c0 -6.8883667 5.5841064 -12.472473 12.472412 -12.472473l0 0c3.3079224 0 6.4803467 1.3140869 8.819397 3.6531372c2.3389893 2.3389893 3.6530762 5.5114136 3.6530762 8.819336l0 0c0 6.8883057 -5.5841064 12.472412 -12.472473 12.472412l0 0c-6.8883057 0 -12.472412 -5.5841064 -12.472412 -12.472412z" fill-rule="evenodd"/><path stroke="#000000" stroke-width="1.0" stroke-linejoin="round" stroke-linecap="butt" d="m577.98425 584.90027l0 0c0 -6.8883667 5.5841064 -12.472473 12.472412 -12.472473l0 0c3.3079224 0 6.4803467 1.3140869 8.819397 3.6531372c2.3389893 2.3389893 3.6530762 5.5114136 3.6530762 8.819336l0 0c0 6.8883057 -5.5841064 12.472412 -12.472473 12.472412l0 0c-6.8883057 0 -12.472412 -5.5841064 -12.472412 -12.472412z" fill-rule="evenodd"/><path fill="#000000" fill-opacity="0.0" d="m129.38583 492.6378l244.47244 0l0 46.834625l-244.47244 0z" fill-rule="evenodd"/><path fill="#000000" d="m152.58896 521.63763l-9.21875 0l-3.109375 5.9375l-3.140625 0l12.359375 -22.75l2.578125 0l4.5 22.75l-2.890625 0l-1.078125 -5.9375zm-7.921875 -2.46875l7.484375 0l-1.890625 -10.609375l-5.59375 10.609375zm37.796875 0.03125q-0.3125 2.59375 -1.421875 4.671875q-1.109375 2.078125 -2.6875 3.078125q-1.578125 1.0 -3.5 0.953125q-3.0625 -0.0625 -4.546875 -2.296875l-0.578125 1.96875l-2.609375 0l4.171875 -24.0l2.828125 0l-1.703125 8.96875q2.03125 -2.25 4.9375 -2.1875q2.4375 0.0625 3.796875 1.796875q1.359375 1.734375 1.4375 4.78125q0.015625 1.0 -0.09375 1.9375l-0.03125 0.328125zm-2.6875 -1.640625q0.046875 -2.28125 -0.765625 -3.484375q-0.8125 -1.21875 -2.484375 -1.28125q-2.640625 -0.0625 -4.46875 2.65625l-1.265625 7.359375q0.9375 2.578125 3.515625 2.640625q1.65625 0.0625 2.890625 -0.984375q1.25 -1.046875 1.890625 -2.921875q0.640625 -1.890625 0.6875 -3.984375zm7.984375 10.015625l-2.8125 0l2.9375 -16.90625l2.8125 0l-2.9375 16.90625zm2.328125 -23.078125q0.71875 -0.03125 1.1875 0.4375q0.484375 0.453125 0.484375 1.203125q-0.015625 0.734375 -0.484375 1.203125q-0.453125 0.46875 -1.1875 0.5q-0.734375 0.03125 -1.203125 -0.421875q-0.46875 -0.453125 -0.453125 -1.1875q0.015625 -0.734375 0.46875 -1.21875q0.453125 -0.484375 1.1875 -0.515625zm9.765625 2.078125l-0.71875 4.09375l3.078125 0l-0.390625 2.234375l-3.0625 0l-1.765625 10.515625q-0.046875 0.40625 -0.015625 0.75q0.109375 1.21875 1.328125 1.21875q0.515625 0 1.375 -0.15625l-0.21875 2.359375q-1.015625 0.28125 -2.0625 0.28125q-1.6875 -0.03125 -2.53125 -1.234375q-0.84375 -1.21875 -0.65625 -3.265625l1.71875 -10.46875l-2.984375 0l0.390625 -2.234375l2.984375 0l0.71875 -4.09375l2.8125 0zm16.25 4.078125l-0.359375 1.890625q2.125 -2.25 5.140625 -2.1875q1.609375 0.03125 2.71875 0.734375q1.125 0.703125 1.546875 1.984375q2.375 -2.78125 5.609375 -2.71875q2.53125 0.0625 3.734375 1.703125q1.203125 1.640625 0.890625 4.40625l-1.859375 11.109375l-2.8125 0l1.84375 -11.140625q0.09375 -0.8125 0 -1.484375q-0.296875 -2.125 -2.78125 -2.171875q-1.546875 -0.03125 -2.8125 0.96875q-1.25 0.984375 -1.609375 2.59375l-1.921875 11.234375l-2.84375 0l1.875 -11.125q0.203125 -1.734375 -0.53125 -2.671875q-0.71875 -0.9375 -2.25 -0.96875q-2.640625 -0.0625 -4.203125 2.40625l-2.140625 12.359375l-2.828125 0l2.9375 -16.90625l2.65625 -0.015625zm31.171875 -0.296875q2.125 0.03125 3.640625 1.15625q1.515625 1.125 2.234375 3.109375q0.734375 1.96875 0.5 4.3125l-0.03125 0.34375q-0.296875 2.46875 -1.46875 4.46875q-1.171875 1.984375 -3.03125 3.09375q-1.859375 1.109375 -4.078125 1.046875q-2.109375 -0.03125 -3.640625 -1.15625q-1.515625 -1.125 -2.21875 -3.0625q-0.703125 -1.9375 -0.5 -4.265625q0.234375 -2.625 1.421875 -4.71875q1.1875 -2.09375 3.046875 -3.234375q1.875 -1.15625 4.125 -1.09375zm-5.75 9.0625q-0.109375 0.984375 0 2.046875q0.15625 1.84375 1.09375 2.9375q0.953125 1.09375 2.53125 1.140625q1.40625 0.046875 2.59375 -0.6875q1.1875 -0.75 2.0 -2.25q0.8125 -1.5 1.046875 -3.328125q0.125 -1.4375 0.046875 -2.421875q-0.1875 -1.890625 -1.140625 -2.984375q-0.953125 -1.09375 -2.53125 -1.15625q-2.1875 -0.046875 -3.71875 1.71875q-1.53125 1.765625 -1.890625 4.625l-0.03125 0.359375zm24.734375 -6.171875l-1.328125 -0.140625q-2.71875 0 -4.28125 2.453125l-2.078125 12.015625l-2.828125 0l2.9375 -16.90625l2.734375 -0.015625l-0.421875 1.96875q1.796875 -2.359375 4.234375 -2.296875q0.515625 0 1.34375 0.234375l-0.3125 2.6875zm7.15625 14.640625q-3.15625 -0.0625 -4.9375 -2.328125q-1.78125 -2.265625 -1.5 -5.796875l0.078125 -0.671875q0.265625 -2.515625 1.484375 -4.59375q1.234375 -2.078125 3.0 -3.125q1.765625 -1.0625 3.8125 -1.015625q2.609375 0.0625 4.09375 1.734375q1.484375 1.671875 1.625 4.53125q0.046875 1.015625 -0.0625 2.03125l-0.171875 1.296875l-11.046875 0q-0.28125 2.296875 0.75 3.90625q1.046875 1.609375 3.109375 1.671875q2.5 0.0625 4.625 -2.25l1.625 1.375q-1.0625 1.53125 -2.75 2.40625q-1.671875 0.859375 -3.734375 0.828125zm1.796875 -15.171875q-1.75 -0.046875 -3.0625 1.1875q-1.296875 1.234375 -2.0625 3.671875l8.21875 0.015625l0.0625 -0.25q0.25 -1.96875 -0.640625 -3.265625q-0.875 -1.3125 -2.515625 -1.359375zm30.5 10.859375l5.390625 -12.90625l2.921875 0l-7.703125 16.90625l-2.296875 0l-1.75 -12.78125l-6.09375 12.78125l-2.296875 0l-1.828125 -16.90625l2.703125 0l1.03125 12.59375l6.0 -12.59375l2.28125 0l1.640625 12.90625zm17.703125 -13.21875q2.125 0.03125 3.640625 1.15625q1.515625 1.125 2.234375 3.109375q0.734375 1.96875 0.5 4.3125l-0.03125 0.34375q-0.296875 2.46875 -1.46875 4.46875q-1.171875 1.984375 -3.03125 3.09375q-1.859375 1.109375 -4.078125 1.046875q-2.109375 -0.03125 -3.640625 -1.15625q-1.515625 -1.125 -2.21875 -3.0625q-0.703125 -1.9375 -0.5 -4.265625q0.234375 -2.625 1.421875 -4.71875q1.1875 -2.09375 3.046875 -3.234375q1.875 -1.15625 4.125 -1.09375zm-5.75 9.0625q-0.109375 0.984375 0 2.046875q0.15625 1.84375 1.09375 2.9375q0.953125 1.09375 2.53125 1.140625q1.40625 0.046875 2.59375 -0.6875q1.1875 -0.75 2.0 -2.25q0.8125 -1.5 1.046875 -3.328125q0.125 -1.4375 0.046875 -2.421875q-0.1875 -1.890625 -1.140625 -2.984375q-0.953125 -1.09375 -2.53125 -1.15625q-2.1875 -0.046875 -3.71875 1.71875q-1.53125 1.765625 -1.890625 4.625l-0.03125 0.359375zm24.734375 -6.171875l-1.328125 -0.140625q-2.71875 0 -4.28125 2.453125l-2.078125 12.015625l-2.828125 0l2.9375 -16.90625l2.734375 -0.015625l-0.421875 1.96875q1.796875 -2.359375 4.234375 -2.296875q0.515625 0 1.34375 0.234375l-0.3125 2.6875zm6.203125 6.53125l-2.21875 1.984375l-1.0 5.8125l-2.828125 0l4.171875 -24.0l2.828125 0l-2.5 14.34375l1.734375 -1.75l6.0 -5.5l3.671875 0l-7.765625 7.203125l5.34375 9.703125l-3.09375 0l-4.34375 -7.796875z" fill-rule="nonzero"/><path fill="#000000" fill-opacity="0.0" d="m0 654.07874l302.83466 0l0 65.921265l-302.83466 0z" fill-rule="evenodd"/><path fill="#000000" d="m28.75 691.9969l3.0625 -16.1875l4.671875 0l-5.046875 22.75l-4.71875 0l-3.703125 -15.21875l-3.703125 15.21875l-4.71875 0l-5.046875 -22.75l4.671875 0l3.078125 16.15625l3.75 -16.15625l3.96875 0l3.734375 16.1875zm14.375 -8.5q1.796875 -2.15625 4.515625 -2.15625q5.5 0 5.578125 6.390625l0 10.828125l-4.515625 0l0 -10.703125q0 -1.453125 -0.625 -2.140625q-0.625 -0.703125 -2.078125 -0.703125q-1.984375 0 -2.875 1.53125l0 12.015625l-4.515625 0l0 -24.0l4.515625 0l0 8.9375zm21.28125 15.375q-3.71875 0 -6.0625 -2.28125q-2.328125 -2.28125 -2.328125 -6.078125l0 -0.4375q0 -2.546875 0.984375 -4.546875q0.984375 -2.015625 2.78125 -3.09375q1.8125 -1.09375 4.125 -1.09375q3.46875 0 5.453125 2.1875q2.0 2.1875 2.0 6.203125l0 1.84375l-10.765625 0q0.21875 1.65625 1.3125 2.65625q1.109375 1.0 2.796875 1.0q2.609375 0 4.078125 -1.890625l2.21875 2.484375q-1.015625 1.4375 -2.75 2.25q-1.734375 0.796875 -3.84375 0.796875zm-0.515625 -13.875q-1.34375 0 -2.1875 0.90625q-0.828125 0.90625 -1.0625 2.59375l6.28125 0l0 -0.359375q-0.03125 -1.5 -0.8125 -2.3125q-0.78125 -0.828125 -2.21875 -0.828125zm19.53125 0.890625q-0.921875 -0.125 -1.625 -0.125q-2.5625 0 -3.359375 1.734375l0 11.0625l-4.515625 0l0 -16.90625l4.265625 0l0.125 2.015625q1.359375 -2.328125 3.765625 -2.328125q0.75 0 1.40625 0.203125l-0.0625 4.34375zm9.65625 12.984375q-3.71875 0 -6.0625 -2.28125q-2.328125 -2.28125 -2.328125 -6.078125l0 -0.4375q0 -2.546875 0.984375 -4.546875q0.984375 -2.015625 2.78125 -3.09375q1.8125 -1.09375 4.125 -1.09375q3.46875 0 5.453125 2.1875q2.0 2.1875 2.0 6.203125l0 1.84375l-10.765625 0q0.21875 1.65625 1.3125 2.65625q1.109375 1.0 2.796875 1.0q2.609375 0 4.078125 -1.890625l2.21875 2.484375q-1.015625 1.4375 -2.75 2.25q-1.734375 0.796875 -3.84375 0.796875zm-0.515625 -13.875q-1.34375 0 -2.1875 0.90625q-0.828125 0.90625 -1.0625 2.59375l6.28125 0l0 -0.359375q-0.03125 -1.5 -0.8125 -2.3125q-0.78125 -0.828125 -2.21875 -0.828125zm24.3125 7.171875l3.125 -10.515625l4.84375 0l-6.796875 19.53125l-0.375 0.890625q-1.515625 3.3125 -5.0 3.3125q-0.984375 0 -2.0 -0.296875l0 -3.421875l0.6875 0.015625q1.28125 0 1.90625 -0.390625q0.640625 -0.390625 1.0 -1.296875l0.53125 -1.390625l-5.921875 -16.953125l4.859375 0l3.140625 10.515625zm8.8125 -2.21875q0 -2.515625 0.96875 -4.484375q0.96875 -1.96875 2.78125 -3.046875q1.828125 -1.078125 4.234375 -1.078125q3.421875 0 5.578125 2.09375q2.171875 2.09375 2.421875 5.6875l0.03125 1.15625q0 3.890625 -2.171875 6.25q-2.171875 2.34375 -5.828125 2.34375q-3.65625 0 -5.84375 -2.34375q-2.171875 -2.34375 -2.171875 -6.375l0 -0.203125zm4.515625 0.328125q0 2.40625 0.90625 3.6875q0.90625 1.265625 2.59375 1.265625q1.640625 0 2.5625 -1.25q0.921875 -1.265625 0.921875 -4.03125q0 -2.359375 -0.921875 -3.65625q-0.921875 -1.296875 -2.59375 -1.296875q-1.65625 0 -2.5625 1.296875q-0.90625 1.28125 -0.90625 3.984375zm24.40625 6.5625q-1.671875 2.03125 -4.625 2.03125q-2.71875 0 -4.15625 -1.5625q-1.421875 -1.5625 -1.453125 -4.578125l0 -11.078125l4.515625 0l0 10.921875q0 2.640625 2.40625 2.640625q2.296875 0 3.15625 -1.59375l0 -11.96875l4.53125 0l0 16.90625l-4.25 0l-0.125 -1.71875zm9.078125 -14.046875l-2.125 -1.234375q1.34375 -2.109375 1.390625 -4.359375l0 -2.640625l3.59375 0l0 2.421875q0 1.40625 -0.78125 3.046875q-0.78125 1.640625 -2.078125 2.765625zm15.546875 3.09375q-0.921875 -0.125 -1.625 -0.125q-2.5625 0 -3.359375 1.734375l0 11.0625l-4.515625 0l0 -16.90625l4.265625 0l0.125 2.015625q1.359375 -2.328125 3.765625 -2.328125q0.75 0 1.40625 0.203125l-0.0625 4.34375zm9.65625 12.984375q-3.71875 0 -6.0625 -2.28125q-2.328125 -2.28125 -2.328125 -6.078125l0 -0.4375q0 -2.546875 0.984375 -4.546875q0.984375 -2.015625 2.78125 -3.09375q1.8125 -1.09375 4.125 -1.09375q3.46875 0 5.453125 2.1875q2.0 2.1875 2.0 6.203125l0 1.84375l-10.765625 0q0.21875 1.65625 1.3125 2.65625q1.109375 1.0 2.796875 1.0q2.609375 0 4.078125 -1.890625l2.21875 2.484375q-1.015625 1.4375 -2.75 2.25q-1.734375 0.796875 -3.84375 0.796875zm-0.515625 -13.875q-1.34375 0 -2.1875 0.90625q-0.828125 0.90625 -1.0625 2.59375l6.28125 0l0 -0.359375q-0.03125 -1.5 -0.8125 -2.3125q-0.78125 -0.828125 -2.21875 -0.828125zm17.34375 4.984375q0 -3.890625 1.84375 -6.265625q1.859375 -2.375 5.0 -2.375q2.78125 0 4.328125 1.90625l0.1875 -1.59375l4.09375 0l0 16.34375q0 2.21875 -1.015625 3.859375q-1.0 1.640625 -2.828125 2.5q-1.828125 0.859375 -4.28125 0.859375q-1.859375 0 -3.625 -0.75q-1.765625 -0.734375 -2.671875 -1.90625l2.0 -2.75q1.6875 1.890625 4.09375 1.890625q1.796875 0 2.796875 -0.96875q1.0 -0.953125 1.0 -2.71875l0 -0.90625q-1.5625 1.765625 -4.109375 1.765625q-3.046875 0 -4.9375 -2.375q-1.875 -2.390625 -1.875 -6.328125l0 -0.1875zm4.515625 0.328125q0 2.296875 0.921875 3.609375q0.921875 1.296875 2.53125 1.296875q2.0625 0 2.953125 -1.546875l0 -7.109375q-0.90625 -1.546875 -2.921875 -1.546875q-1.625 0 -2.5625 1.328125q-0.921875 1.328125 -0.921875 3.96875zm13.703125 -0.359375q0 -2.515625 0.96875 -4.484375q0.96875 -1.96875 2.78125 -3.046875q1.828125 -1.078125 4.234375 -1.078125q3.421875 0 5.578125 2.09375q2.171875 2.09375 2.421875 5.6875l0.03125 1.15625q0 3.890625 -2.171875 6.25q-2.171875 2.34375 -5.828125 2.34375q-3.65625 0 -5.84375 -2.34375q-2.171875 -2.34375 -2.171875 -6.375l0 -0.203125zm4.515625 0.328125q0 2.40625 0.90625 3.6875q0.90625 1.265625 2.59375 1.265625q1.640625 0 2.5625 -1.25q0.921875 -1.265625 0.921875 -4.03125q0 -2.359375 -0.921875 -3.65625q-0.921875 -1.296875 -2.59375 -1.296875q-1.65625 0 -2.5625 1.296875q-0.90625 1.28125 -0.90625 3.984375zm19.046875 8.28125l-4.53125 0l0 -16.90625l4.53125 0l0 16.90625zm-4.796875 -21.28125q0 -1.015625 0.671875 -1.671875q0.6875 -0.65625 1.859375 -0.65625q1.15625 0 1.84375 0.65625q0.6875 0.65625 0.6875 1.671875q0 1.03125 -0.703125 1.6875q-0.6875 0.65625 -1.828125 0.65625q-1.140625 0 -1.84375 -0.65625q-0.6875 -0.65625 -0.6875 -1.6875zm12.671875 4.375l0.140625 1.953125q1.8125 -2.265625 4.859375 -2.265625q2.6875 0 4.0 1.578125q1.3125 1.578125 1.34375 4.71875l0 10.921875l-4.515625 0l0 -10.8125q0 -1.4375 -0.625 -2.078125q-0.625 -0.65625 -2.078125 -0.65625q-1.90625 0 -2.859375 1.625l0 11.921875l-4.515625 0l0 -16.90625l4.25 0zm13.109375 8.328125q0 -3.890625 1.84375 -6.265625q1.859375 -2.375 5.0 -2.375q2.78125 0 4.328125 1.90625l0.1875 -1.59375l4.09375 0l0 16.34375q0 2.21875 -1.015625 3.859375q-1.0 1.640625 -2.828125 2.5q-1.828125 0.859375 -4.28125 0.859375q-1.859375 0 -3.625 -0.75q-1.765625 -0.734375 -2.671875 -1.90625l2.0 -2.75q1.6875 1.890625 4.09375 1.890625q1.796875 0 2.796875 -0.96875q1.0 -0.953125 1.0 -2.71875l0 -0.90625q-1.5625 1.765625 -4.109375 1.765625q-3.046875 0 -4.9375 -2.375q-1.875 -2.390625 -1.875 -6.328125l0 -0.1875zm4.515625 0.328125q0 2.296875 0.921875 3.609375q0.921875 1.296875 2.53125 1.296875q2.0625 0 2.953125 -1.546875l0 -7.109375q-0.90625 -1.546875 -2.921875 -1.546875q-1.625 0 -2.5625 1.328125q-0.921875 1.328125 -0.921875 3.96875z" fill-rule="nonzero"/><path fill="#000000" fill-opacity="0.0" d="m0 0l335.3071 0l0 36.062992l-335.3071 0z" fill-rule="evenodd"/><path fill="#000000" d="m28.75 22.988997l3.0625 -16.1875l4.671875 0l-5.046875 22.75l-4.71875 0l-3.703125 -15.21875l-3.703125 15.21875l-4.71875 0l-5.046875 -22.75l4.671875 0l3.078125 16.15625l3.75 -16.15625l3.96875 0l3.734375 16.1875zm14.375 -8.5q1.796875 -2.15625 4.515625 -2.15625q5.5 0 5.578125 6.390625l0 10.828125l-4.515625 0l0 -10.703125q0 -1.453125 -0.625 -2.140625q-0.625 -0.703125 -2.078125 -0.703125q-1.984375 0 -2.875 1.53125l0 12.015625l-4.515625 0l0 -24.0l4.515625 0l0 8.9375zm21.28125 15.375q-3.71875 0 -6.0625 -2.28125q-2.328125 -2.28125 -2.328125 -6.078125l0 -0.4375q0 -2.546875 0.984375 -4.546875q0.984375 -2.015625 2.78125 -3.09375q1.8125 -1.09375 4.125 -1.09375q3.46875 0 5.453125 2.1875q2.0 2.1875 2.0 6.203125l0 1.84375l-10.765625 0q0.21875 1.65625 1.3125 2.65625q1.109375 1.0 2.796875 1.0q2.609375 0 4.078125 -1.890625l2.21875 2.484375q-1.015625 1.4375 -2.75 2.25q-1.734375 0.796875 -3.84375 0.796875zm-0.515625 -13.875q-1.34375 0 -2.1875 0.90625q-0.828125 0.90625 -1.0625 2.59375l6.28125 0l0 -0.359375q-0.03125 -1.5 -0.8125 -2.3125q-0.78125 -0.828125 -2.21875 -0.828125zm19.53125 0.890625q-0.921875 -0.125 -1.625 -0.125q-2.5625 0 -3.359375 1.734375l0 11.0625l-4.515625 0l0 -16.90625l4.265625 0l0.125 2.015625q1.359375 -2.328125 3.765625 -2.328125q0.75 0 1.40625 0.203125l-0.0625 4.34375zm9.65625 12.984375q-3.71875 0 -6.0625 -2.28125q-2.328125 -2.28125 -2.328125 -6.078125l0 -0.4375q0 -2.546875 0.984375 -4.546875q0.984375 -2.015625 2.78125 -3.09375q1.8125 -1.09375 4.125 -1.09375q3.46875 0 5.453125 2.1875q2.0 2.1875 2.0 6.203125l0 1.84375l-10.765625 0q0.21875 1.65625 1.3125 2.65625q1.109375 1.0 2.796875 1.0q2.609375 0 4.078125 -1.890625l2.21875 2.484375q-1.015625 1.4375 -2.75 2.25q-1.734375 0.796875 -3.84375 0.796875zm-0.515625 -13.875q-1.34375 0 -2.1875 0.90625q-0.828125 0.90625 -1.0625 2.59375l6.28125 0l0 -0.359375q-0.03125 -1.5 -0.8125 -2.3125q-0.78125 -0.828125 -2.21875 -0.828125zm24.3125 7.171875l3.125 -10.515625l4.84375 0l-6.796875 19.531252l-0.375 0.890625q-1.515625 3.3125 -5.0 3.3125q-0.984375 0 -2.0 -0.296875l0 -3.421875l0.6875 0.015625q1.28125 0 1.90625 -0.390625q0.640625 -0.3906269 1.0 -1.2968769l0.53125 -1.390625l-5.921875 -16.953125l4.859375 0l3.140625 10.515625zm8.8125 -2.21875q0 -2.515625 0.96875 -4.484375q0.96875 -1.96875 2.78125 -3.046875q1.828125 -1.078125 4.234375 -1.078125q3.421875 0 5.578125 2.09375q2.171875 2.09375 2.421875 5.6875l0.03125 1.15625q0 3.890625 -2.171875 6.25q-2.171875 2.34375 -5.828125 2.34375q-3.65625 0 -5.84375 -2.34375q-2.171875 -2.34375 -2.171875 -6.375l0 -0.203125zm4.515625 0.328125q0 2.40625 0.90625 3.6875q0.90625 1.265625 2.59375 1.265625q1.640625 0 2.5625 -1.25q0.921875 -1.265625 0.921875 -4.03125q0 -2.359375 -0.921875 -3.65625q-0.921875 -1.296875 -2.59375 -1.296875q-1.65625 0 -2.5625 1.296875q-0.90625 1.28125 -0.90625 3.984375zm24.40625 6.5625q-1.671875 2.03125 -4.625 2.03125q-2.71875 0 -4.15625 -1.5625q-1.421875 -1.5625 -1.453125 -4.578125l0 -11.078125l4.515625 0l0 10.921875q0 2.640625 2.40625 2.640625q2.296875 0 3.15625 -1.59375l0 -11.96875l4.53125 0l0 16.90625l-4.25 0l-0.125 -1.71875zm22.78125 -1.609375q1.25 0 2.03125 -0.6875q0.78125 -0.6875 0.8125 -1.828125l4.234375 0q-0.015625 1.71875 -0.9375 3.15625q-0.921875 1.421875 -2.53125 2.21875q-1.59375 0.78125 -3.53125 0.78125q-3.625 0 -5.71875 -2.296875q-2.09375 -2.3125 -2.09375 -6.375l0 -0.296875q0 -3.90625 2.078125 -6.234375q2.078125 -2.328125 5.703125 -2.328125q3.171875 0 5.078125 1.8125q1.921875 1.796875 1.953125 4.796875l-4.234375 0q-0.03125 -1.3125 -0.8125 -2.125q-0.78125 -0.828125 -2.0625 -0.828125q-1.578125 0 -2.390625 1.15625q-0.796875 1.140625 -0.796875 3.71875l0 0.46875q0 2.609375 0.796875 3.75q0.796875 1.140625 2.421875 1.140625zm19.453125 3.328125q-0.3125 -0.609375 -0.453125 -1.515625q-1.640625 1.828125 -4.265625 1.828125q-2.484375 0 -4.125 -1.4375q-1.625 -1.4375 -1.625 -3.625q0 -2.6875 1.984375 -4.125q2.0 -1.4375 5.765625 -1.453125l2.078125 0l0 -0.96875q0 -1.171875 -0.609375 -1.875q-0.59375 -0.703125 -1.890625 -0.703125q-1.140625 0 -1.796875 0.546875q-0.640625 0.546875 -0.640625 1.5l-4.515625 0q0 -1.46875 0.90625 -2.71875q0.90625 -1.25 2.5625 -1.953125q1.65625 -0.71875 3.71875 -0.71875q3.125 0 4.953125 1.578125q1.84375 1.5625 1.84375 4.40625l0 7.328125q0.015625 2.40625 0.671875 3.640625l0 0.265625l-4.5625 0zm-3.734375 -3.140625q1.0 0 1.84375 -0.4375q0.84375 -0.453125 1.25 -1.203125l0 -2.90625l-1.6875 0q-3.390625 0 -3.609375 2.34375l-0.015625 0.265625q0 0.84375 0.59375 1.390625q0.59375 0.546875 1.625 0.546875zm15.328125 -13.765625l0.140625 1.890625q1.796875 -2.203125 4.859375 -2.203125q3.265625 0 4.484375 2.578125q1.78125 -2.578125 5.078125 -2.578125q2.75 0 4.09375 1.609375q1.34375 1.59375 1.34375 4.8125l0 10.796875l-4.53125 0l0 -10.78125q0 -1.4375 -0.5625 -2.09375q-0.5625 -0.671875 -1.984375 -0.671875q-2.03125 0 -2.8125 1.9375l0.015625 11.609375l-4.515625 0l0 -10.765625q0 -1.46875 -0.578125 -2.125q-0.578125 -0.65625 -1.96875 -0.65625q-1.921875 0 -2.78125 1.59375l0 11.953125l-4.515625 0l0 -16.90625l4.234375 0zm31.25 17.21875q-3.71875 0 -6.0625 -2.28125q-2.328125 -2.28125 -2.328125 -6.078125l0 -0.4375q0 -2.546875 0.984375 -4.546875q0.984375 -2.015625 2.78125 -3.09375q1.8125 -1.09375 4.125 -1.09375q3.46875 0 5.453125 2.1875q2.0 2.1875 2.0 6.203125l0 1.84375l-10.765625 0q0.21875 1.65625 1.3125 2.65625q1.109375 1.0 2.796875 1.0q2.609375 0 4.078125 -1.890625l2.21875 2.484375q-1.015625 1.4375 -2.75 2.25q-1.734375 0.796875 -3.84375 0.796875zm-0.515625 -13.875q-1.34375 0 -2.1875 0.90625q-0.828125 0.90625 -1.0625 2.59375l6.28125 0l0 -0.359375q-0.03125 -1.5 -0.8125 -2.3125q-0.78125 -0.828125 -2.21875 -0.828125zm19.234375 13.5625l0 -13.59375l-2.515625 0l0 -3.3125l2.515625 0l0 -1.4375q0 -2.84375 1.625 -4.40625q1.640625 -1.578125 4.578125 -1.578125q0.9375 0 2.296875 0.3125l-0.046875 3.5q-0.5625 -0.140625 -1.375 -0.140625q-2.546875 0 -2.546875 2.390625l0 1.359375l3.359375 0l0 3.3125l-3.359375 0l0 13.59375l-4.53125 0zm19.734375 -12.671875q-0.921875 -0.125 -1.625 -0.125q-2.5625 0 -3.359375 1.734375l0 11.0625l-4.515625 0l0 -16.90625l4.265625 0l0.125 2.015625q1.359375 -2.328125 3.765625 -2.328125q0.75 0 1.40625 0.203125l-0.0625 4.34375zm0.90625 4.0625q0 -2.515625 0.96875 -4.484375q0.96875 -1.96875 2.78125 -3.046875q1.828125 -1.078125 4.234375 -1.078125q3.421875 0 5.578125 2.09375q2.171875 2.09375 2.421875 5.6875l0.03125 1.15625q0 3.890625 -2.171875 6.25q-2.171875 2.34375 -5.828125 2.34375q-3.65625 0 -5.84375 -2.34375q-2.171875 -2.34375 -2.171875 -6.375l0 -0.203125zm4.515625 0.328125q0 2.40625 0.90625 3.6875q0.90625 1.265625 2.59375 1.265625q1.640625 0 2.5625 -1.25q0.921875 -1.265625 0.921875 -4.03125q0 -2.359375 -0.921875 -3.65625q-0.921875 -1.296875 -2.59375 -1.296875q-1.65625 0 -2.5625 1.296875q-0.90625 1.28125 -0.90625 3.984375zm18.515625 -8.625l0.140625 1.890625q1.796875 -2.203125 4.859375 -2.203125q3.265625 0 4.484375 2.578125q1.78125 -2.578125 5.078125 -2.578125q2.75 0 4.09375 1.609375q1.34375 1.59375 1.34375 4.8125l0 10.796875l-4.53125 0l0 -10.78125q0 -1.4375 -0.5625 -2.09375q-0.5625 -0.671875 -1.984375 -0.671875q-2.03125 0 -2.8125 1.9375l0.015625 11.609375l-4.515625 0l0 -10.765625q0 -1.46875 -0.578125 -2.125q-0.578125 -0.65625 -1.96875 -0.65625q-1.921875 0 -2.78125 1.59375l0 11.953125l-4.515625 0l0 -16.90625l4.234375 0z" fill-rule="nonzero"/><path fill="#000000" d="m104.44095 53.44882l0 0c0 -6.88834 5.584099 -12.472439 12.472435 -12.472439l0 0c3.3078995 0 6.480316 1.3140564 8.819351 3.6530914c2.3390427 2.339035 3.653099 5.5114517 3.653099 8.819347l0 0c0 6.88834 -5.5841064 12.472439 -12.47245 12.472439l0 0c-6.888336 0 -12.472435 -5.584099 -12.472435 -12.472439z" fill-rule="evenodd"/><path stroke="#000000" stroke-width="1.0" stroke-linejoin="round" stroke-linecap="butt" d="m104.44095 53.44882l0 0c0 -6.88834 5.584099 -12.472439 12.472435 -12.472439l0 0c3.3078995 0 6.480316 1.3140564 8.819351 3.6530914c2.3390427 2.339035 3.653099 5.5114517 3.653099 8.819347l0 0c0 6.88834 -5.5841064 12.472439 -12.47245 12.472439l0 0c-6.888336 0 -12.472435 -5.584099 -12.472435 -12.472439z" fill-rule="evenodd"/><path fill="#000000" d="m104.44095 396.2021l0 0c0 -6.888336 5.584099 -12.472443 12.472435 -12.472443l0 0c3.3078995 0 6.480316 1.3140564 8.819351 3.6531067c2.3390427 2.3390503 3.653099 5.511444 3.653099 8.819336l0 0c0 6.888336 -5.5841064 12.472443 -12.47245 12.472443l0 0c-6.888336 0 -12.472435 -5.5841064 -12.472435 -12.472443z" fill-rule="evenodd"/><path stroke="#000000" stroke-width="1.0" stroke-linejoin="round" stroke-linecap="butt" d="m104.44095 396.2021l0 0c0 -6.888336 5.584099 -12.472443 12.472435 -12.472443l0 0c3.3078995 0 6.480316 1.3140564 8.819351 3.6531067c2.3390427 2.3390503 3.653099 5.511444 3.653099 8.819336l0 0c0 6.888336 -5.5841064 12.472443 -12.47245 12.472443l0 0c-6.888336 0 -12.472435 -5.5841064 -12.472435 -12.472443z" fill-rule="evenodd"/><path fill="#000000" fill-opacity="0.0" d="m116.91338 408.67453l2.5826797 258.80313" fill-rule="evenodd"/><path stroke="#000000" stroke-width="4.0" stroke-linejoin="round" stroke-linecap="butt" stroke-dasharray="4.0,12.0" d="m116.91338 408.67453l2.3431854 234.80435" fill-rule="evenodd"/><path fill="#000000" stroke="#000000" stroke-width="4.0" stroke-linecap="butt" d="m112.64997 643.5448l6.7877426 18.085571l6.425461 -18.217407z" fill-rule="evenodd"/><path fill="#000000" fill-opacity="0.0" d="m116.91338 65.92126l0 276.063" fill-rule="evenodd"/><path stroke="#595959" stroke-width="4.0" stroke-linejoin="round" stroke-linecap="butt" d="m116.91338 65.92126l0 252.06299" fill-rule="evenodd"/><path fill="#595959" stroke="#595959" stroke-width="4.0" stroke-linecap="butt" d="m110.30646 317.98425l6.606926 18.152405l6.6069336 -18.152405z" fill-rule="evenodd"/></g></svg>