<svg version="1.1" viewBox="0.0 0.0 960.0 80.0" fill="none" stroke="none" stroke-linecap="square" stroke-miterlimit="10" xmlns:xlink="http://www.w3.org/1999/xlink" xmlns="http://www.w3.org/2000/svg"><clipPath id="p.0"><path d="m0 0l960.0 0l0 540.0l-960.0 0l0 -540.0z" clip-rule="nonzero"/></clipPath><g clip-path="url(#p.0)"><path fill="#ffffff" d="m0 0l960.0 0l0 540.0l-960.0 0z" fill-rule="evenodd"/><path fill="#000000" fill-opacity="0.0" d="m0 8.831574l175.47629 0l0 34.47799c-87.73343 0 -87.73343 13.265385 -175.47629 6.6326942zm14.457094 0l0 -4.4698577l174.27782 0l0 34.69427c-6.6246033 0 -13.258621 0.24031448 -13.258621 0.24031448l0 -30.46473zm13.588913 -4.4698577l0 -4.3617167l175.78769 0l0 34.58613c-7.5493927 0 -15.098785 0.18023682 -15.098785 0.18023682l0 -30.404648z" fill-rule="evenodd"/><path fill="#000000" fill-opacity="0.0" d="m0 8.831574l175.47629 0l0 34.47799c-87.73343 0 -87.73343 13.265385 -175.47629 6.6326942zm14.457094 0l0 -4.4698577l174.27782 0l0 34.69427c-6.6246033 0 -13.258621 0.24031448 -13.258621 0.24031448m-147.43028 -34.934586l0 -4.3617167l175.78769 0l0 34.58613c-7.5493927 0 -15.098785 0.18023682 -15.098785 0.18023682" fill-rule="evenodd"/><path fill="#000000" fill-opacity="0.0" d="m0 49.942257c87.74286 6.6326904 87.74286 -6.6326942 175.47629 -6.6326942l0 -4.01326c0 0 6.634018 -0.24031448 13.258621 -0.24031448l0 -4.2896233c0 0 7.5493927 -0.18023682 15.098785 -0.18023682l0 -34.58613l-175.78769 0l0 4.3617167l-13.588913 0l0 4.4698577l-14.457094 0z" fill-rule="evenodd"/><path stroke="#595959" stroke-width="1.0" stroke-linejoin="round" stroke-linecap="butt" d="m0 8.831574l175.47629 0l0 34.47799c-87.73343 0 -87.73343 13.265385 -175.47629 6.6326942zm14.457094 0l0 -4.4698577l174.27782 0l0 34.69427c-6.6246033 0 -13.258621 0.24031448 -13.258621 0.24031448m-147.43028 -34.934586l0 -4.3617167l175.78769 0l0 34.58613c-7.5493927 0 -15.098785 0.18023682 -15.098785 0.18023682" fill-rule="evenodd"/><path fill="#000000" d="m20.387314 31.095665q0 0.6875 -0.34375 1.171875q-0.328125 0.46875 -0.9375 0.71875q-0.59375 0.25 -1.40625 0.25q-0.4375 0 -0.828125 -0.046875q-0.375 -0.046875 -0.703125 -0.125q-0.3125 -0.078125 -0.5625 -0.1875l0 -0.84375q0.390625 0.15625 0.953125 0.296875q0.5625 0.140625 1.171875 0.140625q0.578125 0 0.96875 -0.15625q0.390625 -0.15625 0.59375 -0.4375q0.21875 -0.296875 0.21875 -0.703125q0 -0.390625 -0.171875 -0.640625q-0.171875 -0.265625 -0.578125 -0.484375q-0.390625 -0.21875 -1.078125 -0.46875q-0.484375 -0.171875 -0.859375 -0.375q-0.359375 -0.203125 -0.609375 -0.453125q-0.25 -0.265625 -0.390625 -0.609375q-0.125 -0.34375 -0.125 -0.796875q0 -0.609375 0.3125 -1.03125q0.3125 -0.4375 0.859375 -0.671875q0.546875 -0.234375 1.265625 -0.234375q0.609375 0 1.125 0.125q0.515625 0.109375 0.953125 0.296875l-0.28125 0.765625q-0.40625 -0.171875 -0.875 -0.28125q-0.453125 -0.125 -0.953125 -0.125q-0.484375 0 -0.828125 0.140625q-0.328125 0.140625 -0.5 0.40625q-0.171875 0.265625 -0.171875 0.625q0 0.390625 0.15625 0.65625q0.171875 0.265625 0.546875 0.484375q0.375 0.203125 0.984375 0.421875q0.671875 0.25 1.140625 0.53125q0.46875 0.265625 0.703125 0.65625q0.25 0.390625 0.25 0.984375zm7.4994965 2.03125l-1.015625 0l-4.140625 -6.390625l-0.046875 0q0.015625 0.25 0.03125 0.578125q0.03125 0.328125 0.03125 0.703125q0.015625 0.359375 0.015625 0.734375l0 4.375l-0.8125 0l0 -7.609375l1.015625 0l4.125 6.375l0.03125 0q0 -0.1875 -0.015625 -0.515625q-0.015625 -0.34375 -0.03125 -0.71875q-0.015625 -0.390625 -0.015625 -0.734375l0 -4.40625l0.828125 0l0 7.609375zm8.679657 -3.8125q0 0.875 -0.234375 1.59375q-0.21875 0.71875 -0.65625 1.25q-0.4375 0.515625 -1.09375 0.796875q-0.640625 0.28125 -1.5 0.28125q-0.890625 0 -1.546875 -0.28125q-0.65625 -0.28125 -1.09375 -0.796875q-0.4375 -0.53125 -0.65625 -1.25q-0.203125 -0.71875 -0.203125 -1.609375q0 -1.15625 0.375 -2.03125q0.390625 -0.890625 1.171875 -1.375q0.78125 -0.5 1.96875 -0.5q1.125 0 1.890625 0.484375q0.78125 0.484375 1.171875 1.375q0.40625 0.875 0.40625 2.0625zm-6.0625 0q0 0.96875 0.28125 1.671875q0.28125 0.703125 0.84375 1.09375q0.5625 0.390625 1.453125 0.390625q0.875 0 1.4375 -0.390625q0.578125 -0.390625 0.84375 -1.09375q0.265625 -0.703125 0.265625 -1.671875q0 -1.46875 -0.625 -2.296875q-0.609375 -0.84375 -1.90625 -0.84375q-0.890625 0 -1.46875 0.390625q-0.5625 0.375 -0.84375 1.078125q-0.28125 0.703125 -0.28125 1.671875zm11.101273 3.8125l-2.5625 -6.734375l-0.03125 0q0.015625 0.21875 0.03125 0.53125q0.015625 0.296875 0.015625 0.65625q0.015625 0.359375 0.015625 0.734375l0 4.8125l-0.8125 0l0 -7.609375l1.3125 0l2.40625 6.328125l0.03125 0l2.453125 -6.328125l1.296875 0l0 7.609375l-0.875 0l0 -4.875q0 -0.328125 0 -0.671875q0.015625 -0.34375 0.03125 -0.640625q0.015625 -0.3125 0.03125 -0.53125l-0.03125 0l-2.59375 6.71875l-0.71875 0zm10.475006 0l-4.234375 0l0 -7.609375l4.234375 0l0 0.78125l-3.359375 0l0 2.46875l3.15625 0l0 0.765625l-3.15625 0l0 2.8125l3.359375 0l0 0.78125zm7.71817 -3.875q0 1.28125 -0.46875 2.140625q-0.46875 0.859375 -1.359375 1.296875q-0.875 0.4375 -2.140625 0.4375l-2.0625 0l0 -7.609375l2.28125 0q1.171875 0 2.0 0.421875q0.84375 0.421875 1.296875 1.265625q0.453125 0.828125 0.453125 2.046875zm-0.921875 0.03125q0 -1.03125 -0.34375 -1.6875q-0.34375 -0.671875 -1.0 -1.0q-0.65625 -0.328125 -1.609375 -0.328125l-1.28125 0l0 6.09375l1.078125 0q1.578125 0 2.359375 -0.765625q0.796875 -0.78125 0.796875 -2.3125zm8.640778 -3.09375q-0.640625 0 -1.140625 0.21875q-0.5 0.21875 -0.859375 0.625q-0.34375 0.40625 -0.53125 0.984375q-0.1875 0.578125 -0.1875 1.296875q0 0.96875 0.296875 1.671875q0.3125 0.703125 0.90625 1.09375q0.59375 0.375 1.484375 0.375q0.515625 0 0.953125 -0.078125q0.453125 -0.09375 0.890625 -0.21875l0 0.765625q-0.421875 0.15625 -0.890625 0.234375q-0.453125 0.078125 -1.078125 0.078125q-1.15625 0 -1.9375 -0.484375q-0.78125 -0.484375 -1.171875 -1.359375q-0.375 -0.890625 -0.375 -2.078125q0 -0.859375 0.234375 -1.578125q0.25 -0.71875 0.703125 -1.234375q0.46875 -0.53125 1.140625 -0.8125q0.6875 -0.28125 1.5625 -0.28125q0.578125 0 1.109375 0.125q0.546875 0.109375 0.984375 0.3125l-0.359375 0.75q-0.359375 -0.15625 -0.796875 -0.28125q-0.4375 -0.125 -0.9375 -0.125zm5.7903137 6.9375l-0.890625 0l0 -6.828125l-2.390625 0l0 -0.78125l5.671875 0l0 0.78125l-2.390625 0l0 6.828125zm8.35614 -7.609375q0.9375 0 1.546875 0.234375q0.609375 0.234375 0.90625 0.703125q0.3125 0.46875 0.3125 1.203125q0 0.609375 -0.21875 1.015625q-0.21875 0.40625 -0.578125 0.65625q-0.34375 0.25 -0.75 0.375l2.09375 3.421875l-1.03125 0l-1.875 -3.171875l-1.578125 0l0 3.171875l-0.875 0l0 -7.609375l2.046875 0zm-0.046875 0.765625l-1.125 0l0 2.921875l1.203125 0q0.9375 0 1.375 -0.375q0.4375 -0.390625 0.4375 -1.125q0 -0.78125 -0.46875 -1.09375q-0.453125 -0.328125 -1.421875 -0.328125zm6.6394043 1.03125q0.71875 0 1.234375 0.328125q0.53125 0.328125 0.796875 0.90625q0.28125 0.578125 0.28125 1.359375l0 0.53125l-3.9375 0q0.015625 1.0 0.5 1.53125q0.484375 0.515625 1.359375 0.515625q0.546875 0 0.953125 -0.09375q0.421875 -0.09375 0.875 -0.296875l0 0.765625q-0.4375 0.1875 -0.859375 0.28125q-0.421875 0.09375 -1.0 0.09375q-0.8125 0 -1.4375 -0.328125q-0.609375 -0.34375 -0.953125 -1.0q-0.328125 -0.65625 -0.328125 -1.59375q0 -0.921875 0.3125 -1.59375q0.3125 -0.671875 0.875 -1.03125q0.5625 -0.375 1.328125 -0.375zm-0.015625 0.71875q-0.6875 0 -1.109375 0.453125q-0.40625 0.453125 -0.484375 1.265625l3.015625 0q0 -0.515625 -0.15625 -0.90625q-0.15625 -0.390625 -0.46875 -0.59375q-0.3125 -0.21875 -0.796875 -0.21875zm4.671234 5.09375l-0.875 0l0 -8.09375l0.875 0l0 8.09375zm4.0182037 -5.8125q0.71875 0 1.234375 0.328125q0.53125 0.328125 0.796875 0.90625q0.28125 0.578125 0.28125 1.359375l0 0.53125l-3.9375 0q0.015625 1.0 0.5 1.53125q0.484375 0.515625 1.359375 0.515625q0.546875 0 0.953125 -0.09375q0.421875 -0.09375 0.875 -0.296875l0 0.765625q-0.4375 0.1875 -0.859375 0.28125q-0.421875 0.09375 -1.0 0.09375q-0.8125 0 -1.4375 -0.328125q-0.609375 -0.34375 -0.953125 -1.0q-0.328125 -0.65625 -0.328125 -1.59375q0 -0.921875 0.3125 -1.59375q0.3125 -0.671875 0.875 -1.03125q0.5625 -0.375 1.328125 -0.375zm-0.015625 0.71875q-0.6875 0 -1.109375 0.453125q-0.40625 0.453125 -0.484375 1.265625l3.015625 0q0 -0.515625 -0.15625 -0.90625q-0.15625 -0.390625 -0.46875 -0.59375q-0.3125 -0.21875 -0.796875 -0.21875zm5.936859 -0.703125q1.015625 0 1.5 0.46875q0.5 0.453125 0.5 1.453125l0 3.875l-0.625 0l-0.171875 -0.84375l-0.03125 0q-0.25 0.3125 -0.515625 0.53125q-0.25 0.203125 -0.59375 0.3125q-0.34375 0.109375 -0.828125 0.109375q-0.515625 0 -0.921875 -0.1875q-0.40625 -0.1875 -0.640625 -0.546875q-0.234375 -0.375 -0.234375 -0.9375q0 -0.859375 0.671875 -1.3125q0.6875 -0.453125 2.0625 -0.5l0.984375 -0.046875l0 -0.34375q0 -0.734375 -0.3125 -1.03125q-0.3125 -0.296875 -0.890625 -0.296875q-0.453125 0 -0.859375 0.125q-0.40625 0.125 -0.765625 0.3125l-0.265625 -0.65625q0.390625 -0.203125 0.890625 -0.34375q0.5 -0.140625 1.046875 -0.140625zm1.15625 2.984375l-0.875 0.046875q-1.0625 0.03125 -1.5 0.34375q-0.4375 0.296875 -0.4375 0.859375q0 0.5 0.296875 0.734375q0.296875 0.234375 0.78125 0.234375q0.765625 0 1.25 -0.421875q0.484375 -0.421875 0.484375 -1.265625l0 -0.53125zm6.31192 1.25q0 0.546875 -0.28125 0.921875q-0.265625 0.375 -0.78125 0.5625q-0.5 0.1875 -1.1875 0.1875q-0.609375 0 -1.046875 -0.09375q-0.4375 -0.09375 -0.765625 -0.265625l0 -0.796875q0.359375 0.171875 0.84375 0.3125q0.484375 0.140625 0.984375 0.140625q0.734375 0 1.0625 -0.234375q0.34375 -0.25 0.34375 -0.65625q0 -0.234375 -0.140625 -0.40625q-0.125 -0.1875 -0.4375 -0.359375q-0.3125 -0.171875 -0.859375 -0.375q-0.546875 -0.203125 -0.953125 -0.40625q-0.390625 -0.203125 -0.609375 -0.5q-0.21875 -0.296875 -0.21875 -0.78125q0 -0.71875 0.578125 -1.109375q0.59375 -0.390625 1.546875 -0.390625q0.515625 0 0.953125 0.109375q0.453125 0.09375 0.84375 0.265625l-0.28125 0.703125q-0.359375 -0.15625 -0.765625 -0.25q-0.390625 -0.109375 -0.8125 -0.109375q-0.59375 0 -0.921875 0.203125q-0.3125 0.1875 -0.3125 0.53125q0 0.265625 0.140625 0.4375q0.15625 0.171875 0.484375 0.328125q0.328125 0.140625 0.859375 0.34375q0.53125 0.203125 0.921875 0.421875q0.390625 0.203125 0.59375 0.5q0.21875 0.296875 0.21875 0.765625zm3.5939941 -4.25q0.71875 0 1.234375 0.328125q0.53125 0.328125 0.796875 0.90625q0.28125 0.578125 0.28125 1.359375l0 0.53125l-3.9375 0q0.015625 1.0 0.5 1.53125q0.484375 0.515625 1.359375 0.515625q0.546875 0 0.953125 -0.09375q0.421875 -0.09375 0.875 -0.296875l0 0.765625q-0.4375 0.1875 -0.859375 0.28125q-0.421875 0.09375 -1.0 0.09375q-0.8125 0 -1.4375 -0.328125q-0.609375 -0.34375 -0.953125 -1.0q-0.328125 -0.65625 -0.328125 -1.59375q0 -0.921875 0.3125 -1.59375q0.3125 -0.671875 0.875 -1.03125q0.5625 -0.375 1.328125 -0.375zm-0.015625 0.71875q-0.6875 0 -1.109375 0.453125q-0.40625 0.453125 -0.484375 1.265625l3.015625 0q0 -0.515625 -0.15625 -0.90625q-0.15625 -0.390625 -0.46875 -0.59375q-0.3125 -0.21875 -0.796875 -0.21875zm9.033112 5.09375l-0.890625 0l0 -6.828125l-2.390625 0l0 -0.78125l5.671875 0l0 0.78125l-2.390625 0l0 6.828125zm7.8223877 -2.03125q0 0.6875 -0.34375 1.171875q-0.328125 0.46875 -0.9375 0.71875q-0.59375 0.25 -1.40625 0.25q-0.4375 0 -0.828125 -0.046875q-0.375 -0.046875 -0.703125 -0.125q-0.3125 -0.078125 -0.5625 -0.1875l0 -0.84375q0.390625 0.15625 0.953125 0.296875q0.5625 0.140625 1.171875 0.140625q0.578125 0 0.96875 -0.15625q0.390625 -0.15625 0.59375 -0.4375q0.21875 -0.296875 0.21875 -0.703125q0 -0.390625 -0.171875 -0.640625q-0.171875 -0.265625 -0.578125 -0.484375q-0.390625 -0.21875 -1.078125 -0.46875q-0.484375 -0.171875 -0.859375 -0.375q-0.359375 -0.203125 -0.609375 -0.453125q-0.25 -0.265625 -0.390625 -0.609375q-0.125 -0.34375 -0.125 -0.796875q0 -0.609375 0.3125 -1.03125q0.3125 -0.4375 0.859375 -0.671875q0.546875 -0.234375 1.265625 -0.234375q0.609375 0 1.125 0.125q0.515625 0.109375 0.953125 0.296875l-0.28125 0.765625q-0.40625 -0.171875 -0.875 -0.28125q-0.453125 -0.125 -0.953125 -0.125q-0.484375 0 -0.828125 0.140625q-0.328125 0.140625 -0.5 0.40625q-0.171875 0.265625 -0.171875 0.625q0 0.390625 0.15625 0.65625q0.171875 0.265625 0.546875 0.484375q0.375 0.203125 0.984375 0.421875q0.671875 0.25 1.140625 0.53125q0.46875 0.265625 0.703125 0.65625q0.25 0.390625 0.25 0.984375zm6.8744965 -5.578125l-2.734375 7.609375l-0.890625 0l-2.734375 -7.609375l0.921875 0l1.78125 5.015625q0.109375 0.296875 0.1875 0.578125q0.09375 0.265625 0.15625 0.53125q0.078125 0.25 0.125 0.484375q0.046875 -0.234375 0.109375 -0.484375q0.078125 -0.265625 0.15625 -0.546875q0.09375 -0.28125 0.203125 -0.578125l1.78125 -5.0l0.9375 0zm6.215042 2.578125l-1.421875 0l0 5.03125l-0.859375 0l0 -5.03125l-1.015625 0l0 -0.40625l1.015625 -0.296875l0 -0.375q0 -0.71875 0.203125 -1.171875q0.21875 -0.453125 0.625 -0.65625q0.40625 -0.21875 0.984375 -0.21875q0.328125 0 0.59375 0.0625q0.28125 0.0625 0.484375 0.125l-0.21875 0.6875q-0.171875 -0.0625 -0.40625 -0.109375q-0.21875 -0.046875 -0.4375 -0.046875q-0.5 0 -0.734375 0.328125q-0.234375 0.3125 -0.234375 0.984375l0 0.421875l1.421875 0l0 0.671875zm1.90625 -0.671875l0 5.703125l-0.875 0l0 -5.703125l0.875 0zm-0.421875 -2.140625q0.203125 0 0.359375 0.140625q0.15625 0.140625 0.15625 0.4375q0 0.28125 -0.15625 0.421875q-0.15625 0.140625 -0.359375 0.140625q-0.234375 0 -0.390625 -0.140625q-0.140625 -0.140625 -0.140625 -0.421875q0 -0.296875 0.140625 -0.4375q0.15625 -0.140625 0.390625 -0.140625zm3.118866 7.84375l-0.875 0l0 -8.09375l0.875 0l0 8.09375zm4.0182037 -5.8125q0.71875 0 1.234375 0.328125q0.53125 0.328125 0.796875 0.90625q0.28125 0.578125 0.28125 1.359375l0 0.53125l-3.9375 0q0.015625 1.0 0.5 1.53125q0.484375 0.515625 1.359375 0.515625q0.546875 0 0.953125 -0.09375q0.421875 -0.09375 0.875 -0.296875l0 0.765625q-0.4375 0.1875 -0.859375 0.28125q-0.421875 0.09375 -1.0 0.09375q-0.8125 0 -1.4375 -0.328125q-0.609375 -0.34375 -0.953125 -1.0q-0.328125 -0.65625 -0.328125 -1.59375q0 -0.921875 0.3125 -1.59375q0.3125 -0.671875 0.875 -1.03125q0.5625 -0.375 1.328125 -0.375zm-0.015625 0.71875q-0.6875 0 -1.109375 0.453125q-0.40625 0.453125 -0.484375 1.265625l3.015625 0q0 -0.515625 -0.15625 -0.90625q-0.15625 -0.390625 -0.46875 -0.59375q-0.3125 -0.21875 -0.796875 -0.21875zm7.483734 3.53125q0 0.546875 -0.28125 0.921875q-0.265625 0.375 -0.78125 0.5625q-0.5 0.1875 -1.1875 0.1875q-0.609375 0 -1.046875 -0.09375q-0.4375 -0.09375 -0.765625 -0.265625l0 -0.796875q0.359375 0.171875 0.84375 0.3125q0.484375 0.140625 0.984375 0.140625q0.734375 0 1.0625 -0.234375q0.34375 -0.25 0.34375 -0.65625q0 -0.234375 -0.140625 -0.40625q-0.125 -0.1875 -0.4375 -0.359375q-0.3125 -0.171875 -0.859375 -0.375q-0.546875 -0.203125 -0.953125 -0.40625q-0.390625 -0.203125 -0.609375 -0.5q-0.21875 -0.296875 -0.21875 -0.78125q0 -0.71875 0.578125 -1.109375q0.59375 -0.390625 1.546875 -0.390625q0.515625 0 0.953125 0.109375q0.453125 0.09375 0.84375 0.265625l-0.28125 0.703125q-0.359375 -0.15625 -0.765625 -0.25q-0.390625 -0.109375 -0.8125 -0.109375q-0.59375 0 -0.921875 0.203125q-0.3125 0.1875 -0.3125 0.53125q0 0.265625 0.140625 0.4375q0.15625 0.171875 0.484375 0.328125q0.328125 0.140625 0.859375 0.34375q0.53125 0.203125 0.921875 0.421875q0.390625 0.203125 0.59375 0.5q0.21875 0.296875 0.21875 0.765625z" fill-rule="nonzero"/><path fill="#000000" fill-opacity="0.0" d="m245.18387 0l139.22281 0c1.8113098 0 3.5484314 0.71953803 4.8292236 2.0003238c1.2807922 1.280786 2.0003052 3.0179043 2.0003052 4.8292093l0 34.146847c0 7.019043E-4 -5.493164E-4 0.0012741089 -0.0012512207 0.0012741089l-152.88063 -0.0012741089l0 0c-7.019043E-4 0 -0.0012664795 -5.722046E-4 -0.0012664795 -0.0012741089l0.0012664795 -34.145573l0 0c0 -3.771847 3.0576935 -6.829533 6.829544 -6.829533z" fill-rule="evenodd"/><path stroke="#595959" stroke-width="1.0" stroke-linejoin="round" stroke-linecap="butt" d="m245.18387 0l139.22281 0c1.8113098 0 3.5484314 0.71953803 4.8292236 2.0003238c1.2807922 1.280786 2.0003052 3.0179043 2.0003052 4.8292093l0 34.146847c0 7.019043E-4 -5.493164E-4 0.0012741089 -0.0012512207 0.0012741089l-152.88063 -0.0012741089l0 0c-7.019043E-4 0 -0.0012664795 -5.722046E-4 -0.0012664795 -0.0012741089l0.0012664795 -34.145573l0 0c0 -3.771847 3.0576935 -6.829533 6.829544 -6.829533z" fill-rule="evenodd"/><path fill="#000000" d="m253.51765 25.22834l0 -7.609375l0.875 0l0 6.8125l3.3750153 0l0 0.796875l-4.2500153 0zm10.343521 -2.859375q0 0.703125 -0.1875 1.25q-0.171875 0.546875 -0.515625 0.9375q-0.34375 0.375 -0.84375 0.578125q-0.484375 0.203125 -1.09375 0.203125q-0.5625 0 -1.046875 -0.203125q-0.46875 -0.203125 -0.828125 -0.578125q-0.34375 -0.390625 -0.53125 -0.9375q-0.1875 -0.546875 -0.1875 -1.25q0 -0.9375 0.3125 -1.59375q0.328125 -0.65625 0.90625 -1.0q0.59375 -0.359375 1.40625 -0.359375q0.78125 0 1.359375 0.359375q0.59375 0.34375 0.921875 1.0q0.328125 0.65625 0.328125 1.59375zm-4.34375 0q0 0.6875 0.1875 1.1875q0.1875 0.5 0.5625 0.78125q0.375 0.28125 0.96875 0.28125q0.59375 0 0.96875 -0.28125q0.390625 -0.28125 0.578125 -0.78125q0.1875 -0.5 0.1875 -1.1875q0 -0.6875 -0.1875 -1.171875q-0.1875 -0.5 -0.5625 -0.765625q-0.375 -0.28125 -0.984375 -0.28125q-0.890625 0 -1.3125 0.59375q-0.40625 0.578125 -0.40625 1.625zm10.4729 2.84375l-1.015625 -3.3125q-0.0625 -0.21875 -0.125 -0.421875q-0.0625 -0.203125 -0.109375 -0.390625q-0.046875 -0.1875 -0.09375 -0.34375q-0.03125 -0.171875 -0.0625 -0.296875l-0.03125 0q-0.015625 0.125 -0.0625 0.296875q-0.03125 0.15625 -0.078125 0.34375q-0.046875 0.1875 -0.109375 0.40625q-0.0625 0.203125 -0.125 0.421875l-1.0625 3.296875l-0.96875 0l-1.578125 -5.703125l0.890625 0l0.828125 3.15625q0.078125 0.3125 0.15625 0.625q0.078125 0.296875 0.125 0.5625q0.0625 0.265625 0.09375 0.46875l0.03125 0q0.03125 -0.140625 0.0625 -0.3125q0.046875 -0.1875 0.09375 -0.390625q0.0625 -0.203125 0.109375 -0.40625q0.0625 -0.21875 0.125 -0.390625l1.046875 -3.3125l0.921875 0l1.015625 3.296875q0.078125 0.25 0.15625 0.53125q0.078125 0.265625 0.140625 0.515625q0.0625 0.25 0.09375 0.453125l0.03125 0q0.03125 -0.171875 0.078125 -0.4375q0.0625 -0.265625 0.140625 -0.578125q0.078125 -0.3125 0.15625 -0.625l0.828125 -3.15625l0.875 0l-1.5625 5.703125l-1.015625 0zm3.1325684 -2.46875l0 -0.765625l2.578125 0l0 0.765625l-2.578125 0zm4.7882996 2.484375l-0.875 0l0 -8.09375l0.875 0l0 8.09375zm4.018219 -5.8125q0.71875 0 1.234375 0.328125q0.53125 0.328125 0.796875 0.90625q0.28125 0.578125 0.28125 1.359375l0 0.53125l-3.9375 0q0.015625 1.0 0.5 1.53125q0.484375 0.515625 1.359375 0.515625q0.546875 0 0.953125 -0.09375q0.421875 -0.09375 0.875 -0.296875l0 0.765625q-0.4375 0.1875 -0.859375 0.28125q-0.421875 0.09375 -1.0 0.09375q-0.8125 0 -1.4375 -0.328125q-0.609375 -0.34375 -0.953125 -1.0q-0.328125 -0.65625 -0.328125 -1.59375q0 -0.921875 0.3125 -1.59375q0.3125 -0.671875 0.875 -1.03125q0.5625 -0.375 1.328125 -0.375zm-0.015625 0.71875q-0.6875 0 -1.109375 0.453125q-0.40625 0.453125 -0.484375 1.265625l3.015625 0q0 -0.515625 -0.15625 -0.90625q-0.15625 -0.390625 -0.46875 -0.59375q-0.3125 -0.21875 -0.796875 -0.21875zm5.061859 5.09375l-2.171875 -5.703125l0.921875 0l1.265625 3.453125q0.125 0.34375 0.25 0.78125q0.140625 0.421875 0.203125 0.6875l0.03125 0q0.0625 -0.265625 0.203125 -0.6875q0.140625 -0.4375 0.265625 -0.78125l1.25 -3.453125l0.9375 0l-2.171875 5.703125l-0.984375 0zm6.2604065 -5.8125q0.71875 0 1.234375 0.328125q0.53125 0.328125 0.796875 0.90625q0.28125 0.578125 0.28125 1.359375l0 0.53125l-3.9375 0q0.015625 1.0 0.5 1.53125q0.484375 0.515625 1.359375 0.515625q0.546875 0 0.953125 -0.09375q0.421875 -0.09375 0.875 -0.296875l0 0.765625q-0.4375 0.1875 -0.859375 0.28125q-0.421875 0.09375 -1.0 0.09375q-0.8125 0 -1.4375 -0.328125q-0.609375 -0.34375 -0.953125 -1.0q-0.328125 -0.65625 -0.328125 -1.59375q0 -0.921875 0.3125 -1.59375q0.3125 -0.671875 0.875 -1.03125q0.5625 -0.375 1.328125 -0.375zm-0.015625 0.71875q-0.6875 0 -1.109375 0.453125q-0.40625 0.453125 -0.484375 1.265625l3.015625 0q0 -0.515625 -0.15625 -0.90625q-0.15625 -0.390625 -0.46875 -0.59375q-0.3125 -0.21875 -0.796875 -0.21875zm4.671234 5.09375l-0.875 0l0 -8.09375l0.875 0l0 8.09375zm6.6144714 0.109375q-1.078125 0 -1.71875 -0.734375q-0.625 -0.75 -0.625 -2.203125q0 -1.46875 0.640625 -2.21875q0.65625 -0.765625 1.71875 -0.765625q0.453125 0 0.78125 0.125q0.34375 0.125 0.59375 0.328125q0.25 0.1875 0.40625 0.453125l0.0625 0q-0.015625 -0.171875 -0.046875 -0.453125q-0.015625 -0.28125 -0.015625 -0.453125l0 -2.28125l0.875 0l0 8.09375l-0.703125 0l-0.125 -0.8125l-0.046875 0q-0.15625 0.25 -0.40625 0.46875q-0.25 0.203125 -0.59375 0.328125q-0.328125 0.125 -0.796875 0.125zm0.140625 -0.71875q0.90625 0 1.28125 -0.515625q0.390625 -0.53125 0.390625 -1.546875l0 -0.15625q0 -1.09375 -0.359375 -1.671875q-0.359375 -0.59375 -1.3125 -0.59375q-0.796875 0 -1.203125 0.625q-0.390625 0.609375 -0.390625 1.65625q0 1.046875 0.390625 1.625q0.40625 0.578125 1.203125 0.578125zm6.4884033 -5.1875q1.015625 0 1.5 0.46875q0.5 0.453125 0.5 1.453125l0 3.875l-0.625 0l-0.171875 -0.84375l-0.03125 0q-0.25 0.3125 -0.515625 0.53125q-0.25 0.203125 -0.59375 0.3125q-0.34375 0.109375 -0.828125 0.109375q-0.515625 0 -0.921875 -0.1875q-0.40625 -0.1875 -0.640625 -0.546875q-0.234375 -0.375 -0.234375 -0.9375q0 -0.859375 0.671875 -1.3125q0.6875 -0.453125 2.0625 -0.5l0.984375 -0.046875l0 -0.34375q0 -0.734375 -0.3125 -1.03125q-0.3125 -0.296875 -0.890625 -0.296875q-0.453125 0 -0.859375 0.125q-0.40625 0.125 -0.765625 0.3125l-0.265625 -0.65625q0.390625 -0.203125 0.890625 -0.34375q0.5 -0.140625 1.046875 -0.140625zm1.15625 2.984375l-0.875 0.046875q-1.0625 0.03125 -1.5 0.34375q-0.4375 0.296875 -0.4375 0.859375q0 0.5 0.296875 0.734375q0.296875 0.234375 0.78125 0.234375q0.765625 0 1.25 -0.421875q0.484375 -0.421875 0.484375 -1.265625l0 -0.53125zm4.46817 2.203125q0.21875 0 0.4375 -0.03125q0.21875 -0.03125 0.359375 -0.09375l0 0.671875q-0.140625 0.078125 -0.421875 0.125q-0.265625 0.046875 -0.515625 0.046875q-0.453125 0 -0.828125 -0.15625q-0.359375 -0.171875 -0.578125 -0.546875q-0.21875 -0.375 -0.21875 -1.046875l0 -3.390625l-0.8125 0l0 -0.421875l0.8125 -0.328125l0.34375 -1.25l0.515625 0l0 1.328125l1.671875 0l0 0.671875l-1.671875 0l0 3.359375q0 0.53125 0.25 0.796875q0.25 0.265625 0.65625 0.265625zm4.0952454 -5.1875q1.015625 0 1.5 0.46875q0.5 0.453125 0.5 1.453125l0 3.875l-0.625 0l-0.171875 -0.84375l-0.03125 0q-0.25 0.3125 -0.515625 0.53125q-0.25 0.203125 -0.59375 0.3125q-0.34375 0.109375 -0.828125 0.109375q-0.515625 0 -0.921875 -0.1875q-0.40625 -0.1875 -0.640625 -0.546875q-0.234375 -0.375 -0.234375 -0.9375q0 -0.859375 0.671875 -1.3125q0.6875 -0.453125 2.0625 -0.5l0.984375 -0.046875l0 -0.34375q0 -0.734375 -0.3125 -1.03125q-0.3125 -0.296875 -0.890625 -0.296875q-0.453125 0 -0.859375 0.125q-0.40625 0.125 -0.765625 0.3125l-0.265625 -0.65625q0.390625 -0.203125 0.890625 -0.34375q0.5 -0.140625 1.046875 -0.140625zm1.15625 2.984375l-0.875 0.046875q-1.0625 0.03125 -1.5 0.34375q-0.4375 0.296875 -0.4375 0.859375q0 0.5 0.296875 0.734375q0.296875 0.234375 0.78125 0.234375q0.765625 0 1.25 -0.421875q0.484375 -0.421875 0.484375 -1.265625l0 -0.53125zm9.080048 1.25q0 0.546875 -0.28125 0.921875q-0.265625 0.375 -0.78125 0.5625q-0.5 0.1875 -1.1875 0.1875q-0.609375 0 -1.046875 -0.09375q-0.4375 -0.09375 -0.765625 -0.265625l0 -0.796875q0.359375 0.171875 0.84375 0.3125q0.484375 0.140625 0.984375 0.140625q0.734375 0 1.0625 -0.234375q0.34375 -0.25 0.34375 -0.65625q0 -0.234375 -0.140625 -0.40625q-0.125 -0.1875 -0.4375 -0.359375q-0.3125 -0.171875 -0.859375 -0.375q-0.546875 -0.203125 -0.953125 -0.40625q-0.390625 -0.203125 -0.609375 -0.5q-0.21875 -0.296875 -0.21875 -0.78125q0 -0.71875 0.578125 -1.109375q0.59375 -0.390625 1.546875 -0.390625q0.515625 0 0.953125 0.109375q0.453125 0.09375 0.84375 0.265625l-0.28125 0.703125q-0.359375 -0.15625 -0.765625 -0.25q-0.390625 -0.109375 -0.8125 -0.109375q-0.59375 0 -0.921875 0.203125q-0.3125 0.1875 -0.3125 0.53125q0 0.265625 0.140625 0.4375q0.15625 0.171875 0.484375 0.328125q0.328125 0.140625 0.859375 0.34375q0.53125 0.203125 0.921875 0.421875q0.390625 0.203125 0.59375 0.5q0.21875 0.296875 0.21875 0.765625zm3.2346191 0.953125q0.21875 0 0.4375 -0.03125q0.21875 -0.03125 0.359375 -0.09375l0 0.671875q-0.140625 0.078125 -0.421875 0.125q-0.265625 0.046875 -0.515625 0.046875q-0.453125 0 -0.828125 -0.15625q-0.359375 -0.171875 -0.578125 -0.546875q-0.21875 -0.375 -0.21875 -1.046875l0 -3.390625l-0.8125 0l0 -0.421875l0.8125 -0.328125l0.34375 -1.25l0.515625 0l0 1.328125l1.671875 0l0 0.671875l-1.671875 0l0 3.359375q0 0.53125 0.25 0.796875q0.25 0.265625 0.65625 0.265625zm4.5483704 -5.203125q0.171875 0 0.359375 0.03125q0.1875 0.015625 0.328125 0.046875l-0.109375 0.796875q-0.140625 -0.03125 -0.3125 -0.046875q-0.171875 -0.03125 -0.3125 -0.03125q-0.34375 0 -0.65625 0.140625q-0.296875 0.140625 -0.53125 0.40625q-0.21875 0.25 -0.359375 0.609375q-0.125 0.359375 -0.125 0.796875l0 3.0625l-0.875 0l0 -5.703125l0.71875 0l0.09375 1.046875l0.046875 0q0.171875 -0.3125 0.421875 -0.578125q0.25 -0.265625 0.578125 -0.421875q0.328125 -0.15625 0.734375 -0.15625zm6.480133 0.109375l0 5.703125l-0.71875 0l-0.125 -0.796875l-0.046875 0q-0.171875 0.296875 -0.453125 0.5q-0.28125 0.203125 -0.640625 0.296875q-0.34375 0.109375 -0.734375 0.109375q-0.671875 0 -1.140625 -0.21875q-0.453125 -0.21875 -0.6875 -0.671875q-0.234375 -0.46875 -0.234375 -1.1875l0 -3.734375l0.875 0l0 3.671875q0 0.71875 0.328125 1.078125q0.328125 0.34375 0.984375 0.34375q0.625 0 1.0 -0.234375q0.390625 -0.25 0.546875 -0.71875q0.171875 -0.46875 0.171875 -1.140625l0 -3.0l0.875 0zm4.0977783 5.8125q-0.765625 0 -1.359375 -0.3125q-0.578125 -0.328125 -0.90625 -0.96875q-0.328125 -0.65625 -0.328125 -1.640625q0 -1.046875 0.34375 -1.703125q0.34375 -0.65625 0.953125 -0.96875q0.609375 -0.328125 1.390625 -0.328125q0.421875 0 0.8125 0.09375q0.40625 0.078125 0.65625 0.21875l-0.25 0.71875q-0.265625 -0.109375 -0.609375 -0.1875q-0.34375 -0.078125 -0.640625 -0.078125q-0.578125 0 -0.984375 0.25q-0.390625 0.25 -0.59375 0.75q-0.1875 0.5 -0.1875 1.21875q0 0.6875 0.1875 1.1875q0.203125 0.484375 0.578125 0.75q0.375 0.25 0.9375 0.25q0.453125 0 0.8125 -0.09375q0.375 -0.109375 0.671875 -0.234375l0 0.765625q-0.296875 0.15625 -0.65625 0.234375q-0.34375 0.078125 -0.828125 0.078125zm4.66687 -0.71875q0.21875 0 0.4375 -0.03125q0.21875 -0.03125 0.359375 -0.09375l0 0.671875q-0.140625 0.078125 -0.421875 0.125q-0.265625 0.046875 -0.515625 0.046875q-0.453125 0 -0.828125 -0.15625q-0.359375 -0.171875 -0.578125 -0.546875q-0.21875 -0.375 -0.21875 -1.046875l0 -3.390625l-0.8125 0l0 -0.421875l0.8125 -0.328125l0.34375 -1.25l0.515625 0l0 1.328125l1.671875 0l0 0.671875l-1.671875 0l0 3.359375q0 0.53125 0.25 0.796875q0.25 0.265625 0.65625 0.265625zm6.6733704 -5.09375l0 5.703125l-0.71875 0l-0.125 -0.796875l-0.046875 0q-0.171875 0.296875 -0.453125 0.5q-0.28125 0.203125 -0.640625 0.296875q-0.34375 0.109375 -0.734375 0.109375q-0.671875 0 -1.140625 -0.21875q-0.453125 -0.21875 -0.6875 -0.671875q-0.234375 -0.46875 -0.234375 -1.1875l0 -3.734375l0.875 0l0 3.671875q0 0.71875 0.328125 1.078125q0.328125 0.34375 0.984375 0.34375q0.625 0 1.0 -0.234375q0.390625 -0.25 0.546875 -0.71875q0.171875 -0.46875 0.171875 -1.140625l0 -3.0l0.875 0zm4.4102783 -0.109375q0.171875 0 0.359375 0.03125q0.1875 0.015625 0.328125 0.046875l-0.109375 0.796875q-0.140625 -0.03125 -0.3125 -0.046875q-0.171875 -0.03125 -0.3125 -0.03125q-0.34375 0 -0.65625 0.140625q-0.296875 0.140625 -0.53125 0.40625q-0.21875 0.25 -0.359375 0.609375q-0.125 0.359375 -0.125 0.796875l0 3.0625l-0.875 0l0 -5.703125l0.71875 0l0.09375 1.046875l0.046875 0q0.171875 -0.3125 0.421875 -0.578125q0.25 -0.265625 0.578125 -0.421875q0.328125 -0.15625 0.734375 -0.15625zm3.964508 0q0.71875 0 1.234375 0.328125q0.53125 0.328125 0.796875 0.90625q0.28125 0.578125 0.28125 1.359375l0 0.53125l-3.9375 0q0.015625 1.0 0.5 1.53125q0.484375 0.515625 1.359375 0.515625q0.546875 0 0.953125 -0.09375q0.421875 -0.09375 0.875 -0.296875l0 0.765625q-0.4375 0.1875 -0.859375 0.28125q-0.421875 0.09375 -1.0 0.09375q-0.8125 0 -1.4375 -0.328125q-0.609375 -0.34375 -0.953125 -1.0q-0.328125 -0.65625 -0.328125 -1.59375q0 -0.921875 0.3125 -1.59375q0.3125 -0.671875 0.875 -1.03125q0.5625 -0.375 1.328125 -0.375zm-0.015625 0.71875q-0.6875 0 -1.109375 0.453125q-0.40625 0.453125 -0.484375 1.265625l3.015625 0q0 -0.515625 -0.15625 -0.90625q-0.15625 -0.390625 -0.46875 -0.59375q-0.3125 -0.21875 -0.796875 -0.21875zm7.483734 3.53125q0 0.546875 -0.28125 0.921875q-0.265625 0.375 -0.78125 0.5625q-0.5 0.1875 -1.1875 0.1875q-0.609375 0 -1.046875 -0.09375q-0.4375 -0.09375 -0.765625 -0.265625l0 -0.796875q0.359375 0.171875 0.84375 0.3125q0.484375 0.140625 0.984375 0.140625q0.734375 0 1.0625 -0.234375q0.34375 -0.25 0.34375 -0.65625q0 -0.234375 -0.140625 -0.40625q-0.125 -0.1875 -0.4375 -0.359375q-0.3125 -0.171875 -0.859375 -0.375q-0.546875 -0.203125 -0.953125 -0.40625q-0.390625 -0.203125 -0.609375 -0.5q-0.21875 -0.296875 -0.21875 -0.78125q0 -0.71875 0.578125 -1.109375q0.59375 -0.390625 1.546875 -0.390625q0.515625 0 0.953125 0.109375q0.453125 0.09375 0.84375 0.265625l-0.28125 0.703125q-0.359375 -0.15625 -0.765625 -0.25q-0.390625 -0.109375 -0.8125 -0.109375q-0.59375 0 -0.921875 0.203125q-0.3125 0.1875 -0.3125 0.53125q0 0.265625 0.140625 0.4375q0.15625 0.171875 0.484375 0.328125q0.328125 0.140625 0.859375 0.34375q0.53125 0.203125 0.921875 0.421875q0.390625 0.203125 0.59375 0.5q0.21875 0.296875 0.21875 0.765625z" fill-rule="nonzero"/><path fill="#000000" fill-opacity="0.0" d="m203.83464 51.90814l55.05513 0l0 29.574802l-55.05513 0z" fill-rule="evenodd"/><path fill="#595959" d="m216.56902 70.53554l-0.84375 0l0 -5.390625q0 -0.3125 0 -0.53125q0.015625 -0.21875 0.015625 -0.40625q0.015625 -0.1875 0.03125 -0.375q-0.171875 0.171875 -0.3125 0.296875q-0.125 0.109375 -0.34375 0.28125l-0.859375 0.6875l-0.453125 -0.578125l2.046875 -1.59375l0.71875 0l0 7.609375zm3.1398773 -0.546875q0 -0.359375 0.171875 -0.515625q0.1875 -0.15625 0.4375 -0.15625q0.265625 0 0.4375 0.15625q0.1875 0.15625 0.1875 0.515625q0 0.359375 -0.1875 0.53125q-0.171875 0.15625 -0.4375 0.15625q-0.25 0 -0.4375 -0.15625q-0.171875 -0.171875 -0.171875 -0.53125zm9.176849 0.546875l-2.5625 -6.734375l-0.03125 0q0.015625 0.21875 0.03125 0.53125q0.015625 0.296875 0.015625 0.65625q0.015625 0.359375 0.015625 0.734375l0 4.8125l-0.8125 0l0 -7.609375l1.3125 0l2.40625 6.328125l0.03125 0l2.453125 -6.328125l1.296875 0l0 7.609375l-0.875 0l0 -4.875q0 -0.328125 0 -0.671875q0.015625 -0.34375 0.03125 -0.640625q0.015625 -0.3125 0.03125 -0.53125l-0.03125 0l-2.59375 6.71875l-0.71875 0zm8.240631 -5.796875q1.015625 0 1.5 0.46875q0.5 0.453125 0.5 1.453125l0 3.875l-0.625 0l-0.171875 -0.84375l-0.03125 0q-0.25 0.3125 -0.515625 0.53125q-0.25 0.203125 -0.59375 0.3125q-0.34375 0.109375 -0.828125 0.109375q-0.515625 0 -0.921875 -0.1875q-0.40625 -0.1875 -0.640625 -0.546875q-0.234375 -0.375 -0.234375 -0.9375q0 -0.859375 0.671875 -1.3125q0.6875 -0.453125 2.0625 -0.5l0.984375 -0.046875l0 -0.34375q0 -0.734375 -0.3125 -1.03125q-0.3125 -0.296875 -0.890625 -0.296875q-0.453125 0 -0.859375 0.125q-0.40625 0.125 -0.765625 0.3125l-0.265625 -0.65625q0.390625 -0.203125 0.890625 -0.34375q0.5 -0.140625 1.046875 -0.140625zm1.15625 2.984375l-0.875 0.046875q-1.0625 0.03125 -1.5 0.34375q-0.4375 0.296875 -0.4375 0.859375q0 0.5 0.296875 0.734375q0.296875 0.234375 0.78125 0.234375q0.765625 0 1.25 -0.421875q0.484375 -0.421875 0.484375 -1.265625l0 -0.53125zm5.31192 -3.0q1.0625 0 1.6875 0.734375q0.640625 0.734375 0.640625 2.21875q0 0.96875 -0.296875 1.625q-0.28125 0.65625 -0.8125 1.0q-0.53125 0.34375 -1.25 0.34375q-0.453125 0 -0.796875 -0.125q-0.328125 -0.125 -0.578125 -0.328125q-0.25 -0.203125 -0.40625 -0.4375l-0.0625 0q0.015625 0.203125 0.03125 0.5q0.03125 0.28125 0.03125 0.484375l0 2.34375l-0.875 0l0 -8.25l0.71875 0l0.109375 0.84375l0.046875 0q0.171875 -0.265625 0.40625 -0.46875q0.234375 -0.21875 0.578125 -0.34375q0.34375 -0.140625 0.828125 -0.140625zm-0.15625 0.734375q-0.59375 0 -0.953125 0.234375q-0.359375 0.21875 -0.53125 0.6875q-0.15625 0.453125 -0.171875 1.140625l0 0.15625q0 0.71875 0.15625 1.21875q0.15625 0.5 0.515625 0.765625q0.375 0.265625 1.0 0.265625q0.53125 0 0.875 -0.28125q0.359375 -0.296875 0.53125 -0.8125q0.171875 -0.515625 0.171875 -1.171875q0 -1.015625 -0.390625 -1.609375q-0.390625 -0.59375 -1.203125 -0.59375z" fill-rule="nonzero"/><path fill="#000000" fill-opacity="0.0" d="m425.75592 0l126.335815 0l6.829529 6.829533l0 34.146847l-133.16534 0z" fill-rule="evenodd"/><path stroke="#595959" stroke-width="1.0" stroke-linejoin="round" stroke-linecap="butt" d="m425.75592 0l126.335815 0l6.829529 6.829533l0 34.146847l-133.16534 0z" fill-rule="evenodd"/><path fill="#000000" d="m438.72202 25.935572l0 -7.609375l0.875 0l0 7.609375l-0.875 0zm5.5387573 -5.8125q1.015625 0 1.53125 0.5q0.53125 0.5 0.53125 1.59375l0 3.71875l-0.859375 0l0 -3.65625q0 -0.71875 -0.328125 -1.0625q-0.328125 -0.359375 -1.0 -0.359375q-0.9375 0 -1.328125 0.546875q-0.375 0.53125 -0.375 1.546875l0 2.984375l-0.875 0l0 -5.703125l0.703125 0l0.125 0.828125l0.046875 0q0.1875 -0.3125 0.46875 -0.515625q0.28125 -0.203125 0.625 -0.3125q0.34375 -0.109375 0.734375 -0.109375zm5.8634033 5.921875q-1.078125 0 -1.71875 -0.734375q-0.625 -0.75 -0.625 -2.203125q0 -1.46875 0.640625 -2.21875q0.65625 -0.765625 1.71875 -0.765625q0.453125 0 0.78125 0.125q0.34375 0.125 0.59375 0.328125q0.25 0.1875 0.40625 0.453125l0.0625 0q-0.015625 -0.171875 -0.046875 -0.453125q-0.015625 -0.28125 -0.015625 -0.453125l0 -2.28125l0.875 0l0 8.09375l-0.703125 0l-0.125 -0.8125l-0.046875 0q-0.15625 0.25 -0.40625 0.46875q-0.25 0.203125 -0.59375 0.328125q-0.328125 0.125 -0.796875 0.125zm0.140625 -0.71875q0.90625 0 1.28125 -0.515625q0.390625 -0.53125 0.390625 -1.546875l0 -0.15625q0 -1.09375 -0.359375 -1.671875q-0.359375 -0.59375 -1.3125 -0.59375q-0.796875 0 -1.203125 0.625q-0.390625 0.609375 -0.390625 1.65625q0 1.046875 0.390625 1.625q0.40625 0.578125 1.203125 0.578125zm6.550934 -5.203125q0.71875 0 1.234375 0.328125q0.53125 0.328125 0.796875 0.90625q0.28125 0.578125 0.28125 1.359375l0 0.53125l-3.9375 0q0.015625 1.0 0.5 1.53125q0.484375 0.515625 1.359375 0.515625q0.546875 0 0.953125 -0.09375q0.421875 -0.09375 0.875 -0.296875l0 0.765625q-0.4375 0.1875 -0.859375 0.28125q-0.421875 0.09375 -1.0 0.09375q-0.8125 0 -1.4375 -0.328125q-0.609375 -0.34375 -0.953125 -1.0q-0.328125 -0.65625 -0.328125 -1.59375q0 -0.921875 0.3125 -1.59375q0.3125 -0.671875 0.875 -1.03125q0.5625 -0.375 1.328125 -0.375zm-0.015625 0.71875q-0.6875 0 -1.109375 0.453125q-0.40625 0.453125 -0.484375 1.265625l3.015625 0q0 -0.515625 -0.15625 -0.90625q-0.15625 -0.390625 -0.46875 -0.59375q-0.3125 -0.21875 -0.796875 -0.21875zm5.155609 2.171875l-1.96875 -2.78125l0.984375 0l1.5 2.203125l1.5 -2.203125l0.984375 0l-1.96875 2.78125l2.078125 2.921875l-0.984375 0l-1.609375 -2.328125l-1.59375 2.328125l-0.984375 0l2.0625 -2.921875zm9.017883 3.03125q-1.078125 0 -1.71875 -0.734375q-0.625 -0.75 -0.625 -2.203125q0 -1.46875 0.640625 -2.21875q0.65625 -0.765625 1.71875 -0.765625q0.453125 0 0.78125 0.125q0.34375 0.125 0.59375 0.328125q0.25 0.1875 0.40625 0.453125l0.0625 0q-0.015625 -0.171875 -0.046875 -0.453125q-0.015625 -0.28125 -0.015625 -0.453125l0 -2.28125l0.875 0l0 8.09375l-0.703125 0l-0.125 -0.8125l-0.046875 0q-0.15625 0.25 -0.40625 0.46875q-0.25 0.203125 -0.59375 0.328125q-0.328125 0.125 -0.796875 0.125zm0.140625 -0.71875q0.90625 0 1.28125 -0.515625q0.390625 -0.53125 0.390625 -1.546875l0 -0.15625q0 -1.09375 -0.359375 -1.671875q-0.359375 -0.59375 -1.3125 -0.59375q-0.796875 0 -1.203125 0.625q-0.390625 0.609375 -0.390625 1.65625q0 1.046875 0.390625 1.625q0.40625 0.578125 1.203125 0.578125zm6.4884033 -5.1875q1.015625 0 1.5 0.46875q0.5 0.453125 0.5 1.453125l0 3.875l-0.625 0l-0.171875 -0.84375l-0.03125 0q-0.25 0.3125 -0.515625 0.53125q-0.25 0.203125 -0.59375 0.3125q-0.34375 0.109375 -0.828125 0.109375q-0.515625 0 -0.921875 -0.1875q-0.40625 -0.1875 -0.640625 -0.546875q-0.234375 -0.375 -0.234375 -0.9375q0 -0.859375 0.671875 -1.3125q0.6875 -0.453125 2.0625 -0.5l0.984375 -0.046875l0 -0.34375q0 -0.734375 -0.3125 -1.03125q-0.3125 -0.296875 -0.890625 -0.296875q-0.453125 0 -0.859375 0.125q-0.40625 0.125 -0.765625 0.3125l-0.265625 -0.65625q0.390625 -0.203125 0.890625 -0.34375q0.5 -0.140625 1.046875 -0.140625zm1.15625 2.984375l-0.875 0.046875q-1.0625 0.03125 -1.5 0.34375q-0.4375 0.296875 -0.4375 0.859375q0 0.5 0.296875 0.734375q0.296875 0.234375 0.78125 0.234375q0.765625 0 1.25 -0.421875q0.484375 -0.421875 0.484375 -1.265625l0 -0.53125zm4.46817 2.203125q0.21875 0 0.4375 -0.03125q0.21875 -0.03125 0.359375 -0.09375l0 0.671875q-0.140625 0.078125 -0.421875 0.125q-0.265625 0.046875 -0.515625 0.046875q-0.453125 0 -0.828125 -0.15625q-0.359375 -0.171875 -0.578125 -0.546875q-0.21875 -0.375 -0.21875 -1.046875l0 -3.390625l-0.8125 0l0 -0.421875l0.8125 -0.328125l0.34375 -1.25l0.515625 0l0 1.328125l1.671875 0l0 0.671875l-1.671875 0l0 3.359375q0 0.53125 0.25 0.796875q0.25 0.265625 0.65625 0.265625zm4.0952454 -5.1875q1.015625 0 1.5 0.46875q0.5 0.453125 0.5 1.453125l0 3.875l-0.625 0l-0.171875 -0.84375l-0.03125 0q-0.25 0.3125 -0.515625 0.53125q-0.25 0.203125 -0.59375 0.3125q-0.34375 0.109375 -0.828125 0.109375q-0.515625 0 -0.921875 -0.1875q-0.40625 -0.1875 -0.640625 -0.546875q-0.234375 -0.375 -0.234375 -0.9375q0 -0.859375 0.671875 -1.3125q0.6875 -0.453125 2.0625 -0.5l0.984375 -0.046875l0 -0.34375q0 -0.734375 -0.3125 -1.03125q-0.3125 -0.296875 -0.890625 -0.296875q-0.453125 0 -0.859375 0.125q-0.40625 0.125 -0.765625 0.3125l-0.265625 -0.65625q0.390625 -0.203125 0.890625 -0.34375q0.5 -0.140625 1.046875 -0.140625zm1.15625 2.984375l-0.875 0.046875q-1.0625 0.03125 -1.5 0.34375q-0.4375 0.296875 -0.4375 0.859375q0 0.5 0.296875 0.734375q0.296875 0.234375 0.78125 0.234375q0.765625 0 1.25 -0.421875q0.484375 -0.421875 0.484375 -1.265625l0 -0.53125zm9.080078 1.25q0 0.546875 -0.28125 0.921875q-0.265625 0.375 -0.78125 0.5625q-0.5 0.1875 -1.1875 0.1875q-0.609375 0 -1.046875 -0.09375q-0.4375 -0.09375 -0.765625 -0.265625l0 -0.796875q0.359375 0.171875 0.84375 0.3125q0.484375 0.140625 0.984375 0.140625q0.734375 0 1.0625 -0.234375q0.34375 -0.25 0.34375 -0.65625q0 -0.234375 -0.140625 -0.40625q-0.125 -0.1875 -0.4375 -0.359375q-0.3125 -0.171875 -0.859375 -0.375q-0.546875 -0.203125 -0.953125 -0.40625q-0.390625 -0.203125 -0.609375 -0.5q-0.21875 -0.296875 -0.21875 -0.78125q0 -0.71875 0.578125 -1.109375q0.59375 -0.390625 1.546875 -0.390625q0.515625 0 0.953125 0.109375q0.453125 0.09375 0.84375 0.265625l-0.28125 0.703125q-0.359375 -0.15625 -0.765625 -0.25q-0.390625 -0.109375 -0.8125 -0.109375q-0.59375 0 -0.921875 0.203125q-0.3125 0.1875 -0.3125 0.53125q0 0.265625 0.140625 0.4375q0.15625 0.171875 0.484375 0.328125q0.328125 0.140625 0.859375 0.34375q0.53125 0.203125 0.921875 0.421875q0.390625 0.203125 0.59375 0.5q0.21875 0.296875 0.21875 0.765625zm3.2346191 0.953125q0.21875 0 0.4375 -0.03125q0.21875 -0.03125 0.359375 -0.09375l0 0.671875q-0.140625 0.078125 -0.421875 0.125q-0.265625 0.046875 -0.515625 0.046875q-0.453125 0 -0.828125 -0.15625q-0.359375 -0.171875 -0.578125 -0.546875q-0.21875 -0.375 -0.21875 -1.046875l0 -3.390625l-0.8125 0l0 -0.421875l0.8125 -0.328125l0.34375 -1.25l0.515625 0l0 1.328125l1.671875 0l0 0.671875l-1.671875 0l0 3.359375q0 0.53125 0.25 0.796875q0.25 0.265625 0.65625 0.265625zm4.5483704 -5.203125q0.171875 0 0.359375 0.03125q0.1875 0.015625 0.328125 0.046875l-0.109375 0.796875q-0.140625 -0.03125 -0.3125 -0.046875q-0.171875 -0.03125 -0.3125 -0.03125q-0.34375 0 -0.65625 0.140625q-0.296875 0.140625 -0.53125 0.40625q-0.21875 0.25 -0.359375 0.609375q-0.125 0.359375 -0.125 0.796875l0 3.0625l-0.875 0l0 -5.703125l0.71875 0l0.09375 1.046875l0.046875 0q0.171875 -0.3125 0.421875 -0.578125q0.25 -0.265625 0.578125 -0.421875q0.328125 -0.15625 0.734375 -0.15625zm6.4801025 0.109375l0 5.703125l-0.71875 0l-0.125 -0.796875l-0.046875 0q-0.171875 0.296875 -0.453125 0.5q-0.28125 0.203125 -0.640625 0.296875q-0.34375 0.109375 -0.734375 0.109375q-0.671875 0 -1.140625 -0.21875q-0.453125 -0.21875 -0.6875 -0.671875q-0.234375 -0.46875 -0.234375 -1.1875l0 -3.734375l0.875 0l0 3.671875q0 0.71875 0.328125 1.078125q0.328125 0.34375 0.984375 0.34375q0.625 0 1.0 -0.234375q0.390625 -0.25 0.546875 -0.71875q0.171875 -0.46875 0.171875 -1.140625l0 -3.0l0.875 0zm4.0977783 5.8125q-0.765625 0 -1.359375 -0.3125q-0.578125 -0.328125 -0.90625 -0.96875q-0.328125 -0.65625 -0.328125 -1.640625q0 -1.046875 0.34375 -1.703125q0.34375 -0.65625 0.953125 -0.96875q0.609375 -0.328125 1.390625 -0.328125q0.421875 0 0.8125 0.09375q0.40625 0.078125 0.65625 0.21875l-0.25 0.71875q-0.265625 -0.109375 -0.609375 -0.1875q-0.34375 -0.078125 -0.640625 -0.078125q-0.578125 0 -0.984375 0.25q-0.390625 0.25 -0.59375 0.75q-0.1875 0.5 -0.1875 1.21875q0 0.6875 0.1875 1.1875q0.203125 0.484375 0.578125 0.75q0.375 0.25 0.9375 0.25q0.453125 0 0.8125 -0.09375q0.375 -0.109375 0.671875 -0.234375l0 0.765625q-0.296875 0.15625 -0.65625 0.234375q-0.34375 0.078125 -0.828125 0.078125zm4.66687 -0.71875q0.21875 0 0.4375 -0.03125q0.21875 -0.03125 0.359375 -0.09375l0 0.671875q-0.140625 0.078125 -0.421875 0.125q-0.265625 0.046875 -0.515625 0.046875q-0.453125 0 -0.828125 -0.15625q-0.359375 -0.171875 -0.578125 -0.546875q-0.21875 -0.375 -0.21875 -1.046875l0 -3.390625l-0.8125 0l0 -0.421875l0.8125 -0.328125l0.34375 -1.25l0.515625 0l0 1.328125l1.671875 0l0 0.671875l-1.671875 0l0 3.359375q0 0.53125 0.25 0.796875q0.25 0.265625 0.65625 0.265625zm6.673401 -5.09375l0 5.703125l-0.71875 0l-0.125 -0.796875l-0.046875 0q-0.171875 0.296875 -0.453125 0.5q-0.28125 0.203125 -0.640625 0.296875q-0.34375 0.109375 -0.734375 0.109375q-0.671875 0 -1.140625 -0.21875q-0.453125 -0.21875 -0.6875 -0.671875q-0.234375 -0.46875 -0.234375 -1.1875l0 -3.734375l0.875 0l0 3.671875q0 0.71875 0.328125 1.078125q0.328125 0.34375 0.984375 0.34375q0.625 0 1.0 -0.234375q0.390625 -0.25 0.546875 -0.71875q0.171875 -0.46875 0.171875 -1.140625l0 -3.0l0.875 0zm4.4102783 -0.109375q0.171875 0 0.359375 0.03125q0.1875 0.015625 0.328125 0.046875l-0.109375 0.796875q-0.140625 -0.03125 -0.3125 -0.046875q-0.171875 -0.03125 -0.3125 -0.03125q-0.34375 0 -0.65625 0.140625q-0.296875 0.140625 -0.53125 0.40625q-0.21875 0.25 -0.359375 0.609375q-0.125 0.359375 -0.125 0.796875l0 3.0625l-0.875 0l0 -5.703125l0.71875 0l0.09375 1.046875l0.046875 0q0.171875 -0.3125 0.421875 -0.578125q0.25 -0.265625 0.578125 -0.421875q0.328125 -0.15625 0.734375 -0.15625zm3.9644775 0q0.71875 0 1.234375 0.328125q0.53125 0.328125 0.796875 0.90625q0.28125 0.578125 0.28125 1.359375l0 0.53125l-3.9375 0q0.015625 1.0 0.5 1.53125q0.484375 0.515625 1.359375 0.515625q0.546875 0 0.953125 -0.09375q0.421875 -0.09375 0.875 -0.296875l0 0.765625q-0.4375 0.1875 -0.859375 0.28125q-0.421875 0.09375 -1.0 0.09375q-0.8125 0 -1.4375 -0.328125q-0.609375 -0.34375 -0.953125 -1.0q-0.328125 -0.65625 -0.328125 -1.59375q0 -0.921875 0.3125 -1.59375q0.3125 -0.671875 0.875 -1.03125q0.5625 -0.375 1.328125 -0.375zm-0.015625 0.71875q-0.6875 0 -1.109375 0.453125q-0.40625 0.453125 -0.484375 1.265625l3.015625 0q0 -0.515625 -0.15625 -0.90625q-0.15625 -0.390625 -0.46875 -0.59375q-0.3125 -0.21875 -0.796875 -0.21875zm7.4837646 3.53125q0 0.546875 -0.28125 0.921875q-0.265625 0.375 -0.78125 0.5625q-0.5 0.1875 -1.1875 0.1875q-0.609375 0 -1.046875 -0.09375q-0.4375 -0.09375 -0.765625 -0.265625l0 -0.796875q0.359375 0.171875 0.84375 0.3125q0.484375 0.140625 0.984375 0.140625q0.734375 0 1.0625 -0.234375q0.34375 -0.25 0.34375 -0.65625q0 -0.234375 -0.140625 -0.40625q-0.125 -0.1875 -0.4375 -0.359375q-0.3125 -0.171875 -0.859375 -0.375q-0.546875 -0.203125 -0.953125 -0.40625q-0.390625 -0.203125 -0.609375 -0.5q-0.21875 -0.296875 -0.21875 -0.78125q0 -0.71875 0.578125 -1.109375q0.59375 -0.390625 1.546875 -0.390625q0.515625 0 0.953125 0.109375q0.453125 0.09375 0.84375 0.265625l-0.28125 0.703125q-0.359375 -0.15625 -0.765625 -0.25q-0.390625 -0.109375 -0.8125 -0.109375q-0.59375 0 -0.921875 0.203125q-0.3125 0.1875 -0.3125 0.53125q0 0.265625 0.140625 0.4375q0.15625 0.171875 0.484375 0.328125q0.328125 0.140625 0.859375 0.34375q0.53125 0.203125 0.921875 0.421875q0.390625 0.203125 0.59375 0.5q0.21875 0.296875 0.21875 0.765625z" fill-rule="nonzero"/><path fill="#000000" fill-opacity="0.0" d="m587.3123 35.27559l74.000916 -29.574802l73.55817 29.574802z" fill-rule="evenodd"/><path stroke="#595959" stroke-width="1.0" stroke-linejoin="round" stroke-linecap="butt" d="m587.3123 35.27559l74.000916 -29.574802l73.55817 29.574802z" fill-rule="evenodd"/><path fill="#000000" d="m637.45013 24.012514q0.9375 0 1.546875 0.234375q0.609375 0.234375 0.90625 0.703125q0.3125 0.46875 0.3125 1.203125q0 0.609375 -0.21875 1.015625q-0.21875 0.40625 -0.578125 0.65625q-0.34375 0.25 -0.75 0.375l2.09375 3.421875l-1.03125 0l-1.875 -3.171875l-1.578125 0l0 3.171875l-0.875 0l0 -7.609375l2.046875 0zm-0.046875 0.765625l-1.125 0l0 2.921875l1.203125 0q0.9375 0 1.375 -0.375q0.4375 -0.390625 0.4375 -1.125q0 -0.78125 -0.46875 -1.09375q-0.453125 -0.328125 -1.421875 -0.328125zm10.608154 2.96875q0 1.28125 -0.46875 2.140625q-0.46875 0.859375 -1.359375 1.296875q-0.875 0.4375 -2.140625 0.4375l-2.0625 0l0 -7.609375l2.28125 0q1.171875 0 2.0 0.421875q0.84375 0.421875 1.296875 1.265625q0.453125 0.828125 0.453125 2.046875zm-0.921875 0.03125q0 -1.03125 -0.34375 -1.6875q-0.34375 -0.671875 -1.0 -1.0q-0.65625 -0.328125 -1.609375 -0.328125l-1.28125 0l0 6.09375l1.078125 0q1.578125 0 2.359375 -0.765625q0.796875 -0.78125 0.796875 -2.3125zm3.4976196 3.84375l-0.875 0l0 -7.609375l4.234375 0l0 0.78125l-3.359375 0l0 2.796875l3.15625 0l0 0.765625l-3.15625 0l0 3.265625zm9.09613 -0.609375q0.21875 0 0.4375 -0.03125q0.21875 -0.03125 0.359375 -0.09375l0 0.671875q-0.140625 0.078125 -0.421875 0.125q-0.265625 0.046875 -0.515625 0.046875q-0.453125 0 -0.828125 -0.15625q-0.359375 -0.171875 -0.578125 -0.546875q-0.21875 -0.375 -0.21875 -1.046875l0 -3.390625l-0.8125 0l0 -0.421875l0.8125 -0.328125l0.34375 -1.25l0.515625 0l0 1.328125l1.671875 0l0 0.671875l-1.671875 0l0 3.359375q0 0.53125 0.25 0.796875q0.25 0.265625 0.65625 0.265625zm4.54834 -5.203125q0.171875 0 0.359375 0.03125q0.1875 0.015625 0.328125 0.046875l-0.109375 0.796875q-0.140625 -0.03125 -0.3125 -0.046875q-0.171875 -0.03125 -0.3125 -0.03125q-0.34375 0 -0.65625 0.140625q-0.296875 0.140625 -0.53125 0.40625q-0.21875 0.25 -0.359375 0.609375q-0.125 0.359375 -0.125 0.796875l0 3.0625l-0.875 0l0 -5.703125l0.71875 0l0.09375 1.046875l0.046875 0q0.171875 -0.3125 0.421875 -0.578125q0.25 -0.265625 0.578125 -0.421875q0.328125 -0.15625 0.734375 -0.15625zm2.6363525 0.109375l0 5.703125l-0.875 0l0 -5.703125l0.875 0zm-0.421875 -2.140625q0.203125 0 0.359375 0.140625q0.15625 0.140625 0.15625 0.4375q0 0.28125 -0.15625 0.421875q-0.15625 0.140625 -0.359375 0.140625q-0.234375 0 -0.390625 -0.140625q-0.140625 -0.140625 -0.140625 -0.421875q0 -0.296875 0.140625 -0.4375q0.15625 -0.140625 0.390625 -0.140625zm4.9244995 2.03125q1.0625 0 1.6875 0.734375q0.640625 0.734375 0.640625 2.21875q0 0.96875 -0.296875 1.625q-0.28125 0.65625 -0.8125 1.0q-0.53125 0.34375 -1.25 0.34375q-0.453125 0 -0.796875 -0.125q-0.328125 -0.125 -0.578125 -0.328125q-0.25 -0.203125 -0.40625 -0.4375l-0.0625 0q0.015625 0.203125 0.03125 0.5q0.03125 0.28125 0.03125 0.484375l0 2.343752l-0.875 0l0 -8.250002l0.71875 0l0.109375 0.84375l0.046875 0q0.171875 -0.265625 0.40625 -0.46875q0.234375 -0.21875 0.578125 -0.34375q0.34375 -0.140625 0.828125 -0.140625zm-0.15625 0.734375q-0.59375 0 -0.953125 0.234375q-0.359375 0.21875 -0.53125 0.6875q-0.15625 0.453125 -0.171875 1.140625l0 0.15625q0 0.71875 0.15625 1.21875q0.15625 0.5 0.515625 0.765625q0.375 0.265625 1.0 0.265625q0.53125 0 0.875 -0.28125q0.359375 -0.296875 0.53125 -0.8125q0.171875 -0.515625 0.171875 -1.171875q0 -1.015625 -0.390625 -1.609375q-0.390625 -0.59375 -1.203125 -0.59375zm4.8634033 5.078125l-0.875 0l0 -8.09375l0.875 0l0 8.09375zm4.0181885 -5.8125q0.71875 0 1.234375 0.328125q0.53125 0.328125 0.796875 0.90625q0.28125 0.578125 0.28125 1.359375l0 0.53125l-3.9375 0q0.015625 1.0 0.5 1.53125q0.484375 0.515625 1.359375 0.515625q0.546875 0 0.953125 -0.09375q0.421875 -0.09375 0.875 -0.296875l0 0.765625q-0.4375 0.1875 -0.859375 0.28125q-0.421875 0.09375 -1.0 0.09375q-0.8125 0 -1.4375 -0.328125q-0.609375 -0.34375 -0.953125 -1.0q-0.328125 -0.65625 -0.328125 -1.59375q0 -0.921875 0.3125 -1.59375q0.3125 -0.671875 0.875 -1.03125q0.5625 -0.375 1.328125 -0.375zm-0.015625 0.71875q-0.6875 0 -1.109375 0.453125q-0.40625 0.453125 -0.484375 1.265625l3.015625 0q0 -0.515625 -0.15625 -0.90625q-0.15625 -0.390625 -0.46875 -0.59375q-0.3125 -0.21875 -0.796875 -0.21875zm7.4837646 3.53125q0 0.546875 -0.28125 0.921875q-0.265625 0.375 -0.78125 0.5625q-0.5 0.1875 -1.1875 0.1875q-0.609375 0 -1.046875 -0.09375q-0.4375 -0.09375 -0.765625 -0.265625l0 -0.796875q0.359375 0.171875 0.84375 0.3125q0.484375 0.140625 0.984375 0.140625q0.734375 0 1.0625 -0.234375q0.34375 -0.25 0.34375 -0.65625q0 -0.234375 -0.140625 -0.40625q-0.125 -0.1875 -0.4375 -0.359375q-0.3125 -0.171875 -0.859375 -0.375q-0.546875 -0.203125 -0.953125 -0.40625q-0.390625 -0.203125 -0.609375 -0.5q-0.21875 -0.296875 -0.21875 -0.78125q0 -0.71875 0.578125 -1.109375q0.59375 -0.390625 1.546875 -0.390625q0.515625 0 0.953125 0.109375q0.453125 0.09375 0.84375 0.265625l-0.28125 0.703125q-0.359375 -0.15625 -0.765625 -0.25q-0.390625 -0.109375 -0.8125 -0.109375q-0.59375 0 -0.921875 0.203125q-0.3125 0.1875 -0.3125 0.53125q0 0.265625 0.140625 0.4375q0.15625 0.171875 0.484375 0.328125q0.328125 0.140625 0.859375 0.34375q0.53125 0.203125 0.921875 0.421875q0.390625 0.203125 0.59375 0.5q0.21875 0.296875 0.21875 0.765625z" fill-rule="nonzero"/><path fill="#000000" fill-opacity="0.0" d="m780.8425 8.831574l76.09308 0l0 34.47799c-38.044495 0 -38.044495 13.265385 -76.09308 6.6326942zm6.269104 0l0 -4.4698577l75.573425 0l0 34.69427c-2.8726807 0 -5.7494507 0.24031448 -5.7494507 0.24031448l0 -30.46473zm5.8927 -4.4698577l0 -4.3617167l76.22809 0l0 34.58613c-3.2736816 0 -6.5473633 0.18023682 -6.5473633 0.18023682l0 -30.404648z" fill-rule="evenodd"/><path fill="#000000" fill-opacity="0.0" d="m780.8425 8.831574l76.09308 0l0 34.47799c-38.044495 0 -38.044495 13.265385 -76.09308 6.6326942zm6.269104 0l0 -4.4698577l75.573425 0l0 34.69427c-2.8726807 0 -5.7494507 0.24031448 -5.7494507 0.24031448m-63.931274 -34.934586l0 -4.3617167l76.22809 0l0 34.58613c-3.2736816 0 -6.5473633 0.18023682 -6.5473633 0.18023682" fill-rule="evenodd"/><path fill="#000000" fill-opacity="0.0" d="m780.8425 49.942257c38.048584 6.6326904 38.048584 -6.6326942 76.09308 -6.6326942l0 -4.01326c0 0 2.87677 -0.24031448 5.7494507 -0.24031448l0 -4.2896233c0 0 3.2736816 -0.18023682 6.5473633 -0.18023682l0 -34.58613l-76.22809 0l0 4.3617167l-5.8927 0l0 4.4698577l-6.269104 0z" fill-rule="evenodd"/><path stroke="#595959" stroke-width="1.0" stroke-linejoin="round" stroke-linecap="butt" d="m780.8425 8.831574l76.09308 0l0 34.47799c-38.044495 0 -38.044495 13.265385 -76.09308 6.6326942zm6.269104 0l0 -4.4698577l75.573425 0l0 34.69427c-2.8726807 0 -5.7494507 0.24031448 -5.7494507 0.24031448m-63.931274 -34.934586l0 -4.3617167l76.22809 0l0 34.58613c-3.2736816 0 -6.5473633 0.18023682 -6.5473633 0.18023682" fill-rule="evenodd"/><path fill="#000000" d="m796.2504 33.126915l-0.890625 0l0 -6.828125l-2.390625 0l0 -0.78125l5.671875 0l0 0.78125l-2.390625 0l0 6.828125zm8.119263 -5.703125l0 5.703125l-0.71875 0l-0.125 -0.796875l-0.046875 0q-0.171875 0.296875 -0.453125 0.5q-0.28125 0.203125 -0.640625 0.296875q-0.34375 0.109375 -0.734375 0.109375q-0.671875 0 -1.140625 -0.21875q-0.453125 -0.21875 -0.6875 -0.671875q-0.234375 -0.46875 -0.234375 -1.1875l0 -3.734375l0.875 0l0 3.671875q0 0.71875 0.328125 1.078125q0.328125 0.34375 0.984375 0.34375q0.625 0 1.0 -0.234375q0.390625 -0.25 0.546875 -0.71875q0.171875 -0.46875 0.171875 -1.140625l0 -3.0l0.875 0zm4.4102783 -0.109375q0.171875 0 0.359375 0.03125q0.1875 0.015625 0.328125 0.046875l-0.109375 0.796875q-0.140625 -0.03125 -0.3125 -0.046875q-0.171875 -0.03125 -0.3125 -0.03125q-0.34375 0 -0.65625 0.140625q-0.296875 0.140625 -0.53125 0.40625q-0.21875 0.25 -0.359375 0.609375q-0.125 0.359375 -0.125 0.796875l0 3.0625l-0.875 0l0 -5.703125l0.71875 0l0.09375 1.046875l0.046875 0q0.171875 -0.3125 0.421875 -0.578125q0.25 -0.265625 0.578125 -0.421875q0.328125 -0.15625 0.734375 -0.15625zm3.6051025 5.203125q0.21875 0 0.4375 -0.03125q0.21875 -0.03125 0.359375 -0.09375l0 0.671875q-0.140625 0.078125 -0.421875 0.125q-0.265625 0.046875 -0.515625 0.046875q-0.453125 0 -0.828125 -0.15625q-0.359375 -0.171875 -0.578125 -0.546875q-0.21875 -0.375 -0.21875 -1.046875l0 -3.390625l-0.8125 0l0 -0.421875l0.8125 -0.328125l0.34375 -1.25l0.515625 0l0 1.328125l1.671875 0l0 0.671875l-1.671875 0l0 3.359375q0 0.53125 0.25 0.796875q0.25 0.265625 0.65625 0.265625zm2.8296509 0.609375l-0.875 0l0 -8.09375l0.875 0l0 8.09375zm4.0181885 -5.8125q0.71875 0 1.234375 0.328125q0.53125 0.328125 0.796875 0.90625q0.28125 0.578125 0.28125 1.359375l0 0.53125l-3.9375 0q0.015625 1.0 0.5 1.53125q0.484375 0.515625 1.359375 0.515625q0.546875 0 0.953125 -0.09375q0.421875 -0.09375 0.875 -0.296875l0 0.765625q-0.4375 0.1875 -0.859375 0.28125q-0.421875 0.09375 -1.0 0.09375q-0.8125 0 -1.4375 -0.328125q-0.609375 -0.34375 -0.953125 -1.0q-0.328125 -0.65625 -0.328125 -1.59375q0 -0.921875 0.3125 -1.59375q0.3125 -0.671875 0.875 -1.03125q0.5625 -0.375 1.328125 -0.375zm-0.015625 0.71875q-0.6875 0 -1.109375 0.453125q-0.40625 0.453125 -0.484375 1.265625l3.015625 0q0 -0.515625 -0.15625 -0.90625q-0.15625 -0.390625 -0.46875 -0.59375q-0.3125 -0.21875 -0.796875 -0.21875zm9.111206 0.0625l-1.421875 0l0 5.03125l-0.859375 0l0 -5.03125l-1.015625 0l0 -0.40625l1.015625 -0.296875l0 -0.375q0 -0.71875 0.203125 -1.171875q0.21875 -0.453125 0.625 -0.65625q0.40625 -0.21875 0.984375 -0.21875q0.328125 0 0.59375 0.0625q0.28125 0.0625 0.484375 0.125l-0.21875 0.6875q-0.171875 -0.0625 -0.40625 -0.109375q-0.21875 -0.046875 -0.4375 -0.046875q-0.5 0 -0.734375 0.328125q-0.234375 0.3125 -0.234375 0.984375l0 0.421875l1.421875 0l0 0.671875zm1.90625 -0.671875l0 5.703125l-0.875 0l0 -5.703125l0.875 0zm-0.421875 -2.140625q0.203125 0 0.359375 0.140625q0.15625 0.140625 0.15625 0.4375q0 0.28125 -0.15625 0.421875q-0.15625 0.140625 -0.359375 0.140625q-0.234375 0 -0.390625 -0.140625q-0.140625 -0.140625 -0.140625 -0.421875q0 -0.296875 0.140625 -0.4375q0.15625 -0.140625 0.390625 -0.140625zm3.1188965 7.84375l-0.875 0l0 -8.09375l0.875 0l0 8.09375zm4.0181885 -5.8125q0.71875 0 1.234375 0.328125q0.53125 0.328125 0.796875 0.90625q0.28125 0.578125 0.28125 1.359375l0 0.53125l-3.9375 0q0.015625 1.0 0.5 1.53125q0.484375 0.515625 1.359375 0.515625q0.546875 0 0.953125 -0.09375q0.421875 -0.09375 0.875 -0.296875l0 0.765625q-0.4375 0.1875 -0.859375 0.28125q-0.421875 0.09375 -1.0 0.09375q-0.8125 0 -1.4375 -0.328125q-0.609375 -0.34375 -0.953125 -1.0q-0.328125 -0.65625 -0.328125 -1.59375q0 -0.921875 0.3125 -1.59375q0.3125 -0.671875 0.875 -1.03125q0.5625 -0.375 1.328125 -0.375zm-0.015625 0.71875q-0.6875 0 -1.109375 0.453125q-0.40625 0.453125 -0.484375 1.265625l3.015625 0q0 -0.515625 -0.15625 -0.90625q-0.15625 -0.390625 -0.46875 -0.59375q-0.3125 -0.21875 -0.796875 -0.21875zm7.4837646 3.53125q0 0.546875 -0.28125 0.921875q-0.265625 0.375 -0.78125 0.5625q-0.5 0.1875 -1.1875 0.1875q-0.609375 0 -1.046875 -0.09375q-0.4375 -0.09375 -0.765625 -0.265625l0 -0.796875q0.359375 0.171875 0.84375 0.3125q0.484375 0.140625 0.984375 0.140625q0.734375 0 1.0625 -0.234375q0.34375 -0.25 0.34375 -0.65625q0 -0.234375 -0.140625 -0.40625q-0.125 -0.1875 -0.4375 -0.359375q-0.3125 -0.171875 -0.859375 -0.375q-0.546875 -0.203125 -0.953125 -0.40625q-0.390625 -0.203125 -0.609375 -0.5q-0.21875 -0.296875 -0.21875 -0.78125q0 -0.71875 0.578125 -1.109375q0.59375 -0.390625 1.546875 -0.390625q0.515625 0 0.953125 0.109375q0.453125 0.09375 0.84375 0.265625l-0.28125 0.703125q-0.359375 -0.15625 -0.765625 -0.25q-0.390625 -0.109375 -0.8125 -0.109375q-0.59375 0 -0.921875 0.203125q-0.3125 0.1875 -0.3125 0.53125q0 0.265625 0.140625 0.4375q0.15625 0.171875 0.484375 0.328125q0.328125 0.140625 0.859375 0.34375q0.53125 0.203125 0.921875 0.421875q0.390625 0.203125 0.59375 0.5q0.21875 0.296875 0.21875 0.765625z" fill-rule="nonzero"/><path fill="#000000" fill-opacity="0.0" d="m380.9449 51.90814l60.409454 0l0 29.574802l-60.409454 0z" fill-rule="evenodd"/><path fill="#595959" d="m395.4605 70.53554l-4.984375 0l0 -0.71875l2.03125 -2.0625q0.5625 -0.578125 0.953125 -1.015625q0.390625 -0.453125 0.59375 -0.890625q0.203125 -0.4375 0.203125 -0.953125q0 -0.65625 -0.390625 -0.984375q-0.375 -0.34375 -1.0 -0.34375q-0.546875 0 -0.96875 0.1875q-0.421875 0.1875 -0.859375 0.53125l-0.46875 -0.59375q0.296875 -0.25 0.65625 -0.4375q0.359375 -0.203125 0.765625 -0.3125q0.40625 -0.125 0.875 -0.125q0.703125 0 1.203125 0.25q0.515625 0.234375 0.796875 0.6875q0.28125 0.453125 0.28125 1.078125q0 0.609375 -0.25 1.125q-0.234375 0.515625 -0.671875 1.03125q-0.421875 0.5 -1.0 1.0625l-1.65625 1.65625l0 0.03125l3.890625 0l0 0.796875zm1.3586121 -0.546875q0 -0.359375 0.171875 -0.515625q0.1875 -0.15625 0.4375 -0.15625q0.265625 0 0.4375 0.15625q0.1875 0.15625 0.1875 0.515625q0 0.359375 -0.1875 0.53125q-0.171875 0.15625 -0.4375 0.15625q-0.25 0 -0.4375 -0.15625q-0.171875 -0.171875 -0.171875 -0.53125zm5.8330994 0.546875l0 -7.609375l0.875 0l0 7.609375l-0.875 0zm5.5387573 -5.8125q1.015625 0 1.53125 0.5q0.53125 0.5 0.53125 1.59375l0 3.71875l-0.859375 0l0 -3.65625q0 -0.71875 -0.328125 -1.0625q-0.328125 -0.359375 -1.0 -0.359375q-0.9375 0 -1.328125 0.546875q-0.375 0.53125 -0.375 1.546875l0 2.984375l-0.875 0l0 -5.703125l0.703125 0l0.125 0.828125l0.046875 0q0.1875 -0.3125 0.46875 -0.515625q0.28125 -0.203125 0.625 -0.3125q0.34375 -0.109375 0.734375 -0.109375zm5.8634033 5.921875q-1.078125 0 -1.71875 -0.734375q-0.625 -0.75 -0.625 -2.203125q0 -1.46875 0.640625 -2.21875q0.65625 -0.765625 1.71875 -0.765625q0.453125 0 0.78125 0.125q0.34375 0.125 0.59375 0.328125q0.25 0.1875 0.40625 0.453125l0.0625 0q-0.015625 -0.171875 -0.046875 -0.453125q-0.015625 -0.28125 -0.015625 -0.453125l0 -2.28125l0.875 0l0 8.09375l-0.703125 0l-0.125 -0.8125l-0.046875 0q-0.15625 0.25 -0.40625 0.46875q-0.25 0.203125 -0.59375 0.328125q-0.328125 0.125 -0.796875 0.125zm0.140625 -0.71875q0.90625 0 1.28125 -0.515625q0.390625 -0.53125 0.390625 -1.546875l0 -0.15625q0 -1.09375 -0.359375 -1.671875q-0.359375 -0.59375 -1.3125 -0.59375q-0.796875 0 -1.203125 0.625q-0.390625 0.609375 -0.390625 1.65625q0 1.046875 0.390625 1.625q0.40625 0.578125 1.203125 0.578125zm6.550934 -5.203125q0.71875 0 1.234375 0.328125q0.53125 0.328125 0.796875 0.90625q0.28125 0.578125 0.28125 1.359375l0 0.53125l-3.9375 0q0.015625 1.0 0.5 1.53125q0.484375 0.515625 1.359375 0.515625q0.546875 0 0.953125 -0.09375q0.421875 -0.09375 0.875 -0.296875l0 0.765625q-0.4375 0.1875 -0.859375 0.28125q-0.421875 0.09375 -1.0 0.09375q-0.8125 0 -1.4375 -0.328125q-0.609375 -0.34375 -0.953125 -1.0q-0.328125 -0.65625 -0.328125 -1.59375q0 -0.921875 0.3125 -1.59375q0.3125 -0.671875 0.875 -1.03125q0.5625 -0.375 1.328125 -0.375zm-0.015625 0.71875q-0.6875 0 -1.109375 0.453125q-0.40625 0.453125 -0.484375 1.265625l3.015625 0q0 -0.515625 -0.15625 -0.90625q-0.15625 -0.390625 -0.46875 -0.59375q-0.3125 -0.21875 -0.796875 -0.21875zm5.155609 2.171875l-1.96875 -2.78125l0.984375 0l1.5 2.203125l1.5 -2.203125l0.984375 0l-1.96875 2.78125l2.078125 2.921875l-0.984375 0l-1.609375 -2.328125l-1.59375 2.328125l-0.984375 0l2.0625 -2.921875z" fill-rule="nonzero"/><path fill="#000000" fill-opacity="0.0" d="m539.96063 51.90814l88.37793 0l0 29.574802l-88.37793 0z" fill-rule="evenodd"/><path fill="#595959" d="m554.195 64.70741q0 0.5 -0.203125 0.875q-0.203125 0.375 -0.5625 0.625q-0.34375 0.234375 -0.828125 0.328125l0 0.03125q0.90625 0.125 1.359375 0.59375q0.46875 0.46875 0.46875 1.21875q0 0.65625 -0.3125 1.171875q-0.3125 0.515625 -0.953125 0.8125q-0.640625 0.28125 -1.625 0.28125q-0.609375 0 -1.125 -0.109375q-0.5 -0.09375 -0.96875 -0.3125l0 -0.8125q0.46875 0.234375 1.015625 0.375q0.5625 0.125 1.09375 0.125q1.03125 0 1.484375 -0.40625q0.46875 -0.421875 0.46875 -1.140625q0 -0.5 -0.265625 -0.796875q-0.25 -0.296875 -0.734375 -0.4375q-0.46875 -0.15625 -1.140625 -0.15625l-0.765625 0l0 -0.734375l0.765625 0q0.609375 0 1.046875 -0.171875q0.4375 -0.1875 0.65625 -0.515625q0.234375 -0.34375 0.234375 -0.796875q0 -0.578125 -0.390625 -0.890625q-0.390625 -0.3125 -1.046875 -0.3125q-0.40625 0 -0.734375 0.09375q-0.328125 0.078125 -0.625 0.21875q-0.296875 0.140625 -0.578125 0.34375l-0.4375 -0.59375q0.40625 -0.328125 1.0 -0.5625q0.609375 -0.234375 1.359375 -0.234375q1.171875 0 1.75 0.53125q0.59375 0.53125 0.59375 1.359375zm1.6398926 5.28125q0 -0.359375 0.171875 -0.515625q0.1875 -0.15625 0.4375 -0.15625q0.265625 0 0.4375 0.15625q0.1875 0.15625 0.1875 0.515625q0 0.359375 -0.1875 0.53125q-0.171875 0.15625 -0.4375 0.15625q-0.25 0 -0.4375 -0.15625q-0.171875 -0.171875 -0.171875 -0.53125zm8.161194 0.546875l-0.890625 0l0 -6.828125l-2.390625 0l0 -0.78125l5.671875 0l0 0.78125l-2.390625 0l0 6.828125zm5.9942627 -5.8125q0.171875 0 0.359375 0.03125q0.1875 0.015625 0.328125 0.046875l-0.109375 0.796875q-0.140625 -0.03125 -0.3125 -0.046875q-0.171875 -0.03125 -0.3125 -0.03125q-0.34375 0 -0.65625 0.140625q-0.296875 0.140625 -0.53125 0.40625q-0.21875 0.25 -0.359375 0.609375q-0.125 0.359375 -0.125 0.796875l0 3.0625l-0.875 0l0 -5.703125l0.71875 0l0.09375 1.046875l0.046875 0q0.171875 -0.3125 0.421875 -0.578125q0.25 -0.265625 0.578125 -0.421875q0.328125 -0.15625 0.734375 -0.15625zm3.9019775 0.015625q1.015625 0 1.5 0.46875q0.5 0.453125 0.5 1.453125l0 3.875l-0.625 0l-0.171875 -0.84375l-0.03125 0q-0.25 0.3125 -0.515625 0.53125q-0.25 0.203125 -0.59375 0.3125q-0.34375 0.109375 -0.828125 0.109375q-0.515625 0 -0.921875 -0.1875q-0.40625 -0.1875 -0.640625 -0.546875q-0.234375 -0.375 -0.234375 -0.9375q0 -0.859375 0.671875 -1.3125q0.6875 -0.453125 2.0625 -0.5l0.984375 -0.046875l0 -0.34375q0 -0.734375 -0.3125 -1.03125q-0.3125 -0.296875 -0.890625 -0.296875q-0.453125 0 -0.859375 0.125q-0.40625 0.125 -0.765625 0.3125l-0.265625 -0.65625q0.390625 -0.203125 0.890625 -0.34375q0.5 -0.140625 1.046875 -0.140625zm1.15625 2.984375l-0.875 0.046875q-1.0625 0.03125 -1.5 0.34375q-0.4375 0.296875 -0.4375 0.859375q0 0.5 0.296875 0.734375q0.296875 0.234375 0.78125 0.234375q0.765625 0 1.25 -0.421875q0.484375 -0.421875 0.484375 -1.265625l0 -0.53125zm5.3275757 -3.0q1.015625 0 1.53125 0.5q0.53125 0.5 0.53125 1.59375l0 3.71875l-0.859375 0l0 -3.65625q0 -0.71875 -0.328125 -1.0625q-0.328125 -0.359375 -1.0 -0.359375q-0.9375 0 -1.328125 0.546875q-0.375 0.53125 -0.375 1.546875l0 2.984375l-0.875 0l0 -5.703125l0.703125 0l0.125 0.828125l0.046875 0q0.1875 -0.3125 0.46875 -0.515625q0.28125 -0.203125 0.625 -0.3125q0.34375 -0.109375 0.734375 -0.109375zm7.5196533 4.25q0 0.546875 -0.28125 0.921875q-0.265625 0.375 -0.78125 0.5625q-0.5 0.1875 -1.1875 0.1875q-0.609375 0 -1.046875 -0.09375q-0.4375 -0.09375 -0.765625 -0.265625l0 -0.796875q0.359375 0.171875 0.84375 0.3125q0.484375 0.140625 0.984375 0.140625q0.734375 0 1.0625 -0.234375q0.34375 -0.25 0.34375 -0.65625q0 -0.234375 -0.140625 -0.40625q-0.125 -0.1875 -0.4375 -0.359375q-0.3125 -0.171875 -0.859375 -0.375q-0.546875 -0.203125 -0.953125 -0.40625q-0.390625 -0.203125 -0.609375 -0.5q-0.21875 -0.296875 -0.21875 -0.78125q0 -0.71875 0.578125 -1.109375q0.59375 -0.390625 1.546875 -0.390625q0.515625 0 0.953125 0.109375q0.453125 0.09375 0.84375 0.265625l-0.28125 0.703125q-0.359375 -0.15625 -0.765625 -0.25q-0.390625 -0.109375 -0.8125 -0.109375q-0.59375 0 -0.921875 0.203125q-0.3125 0.1875 -0.3125 0.53125q0 0.265625 0.140625 0.4375q0.15625 0.171875 0.484375 0.328125q0.328125 0.140625 0.859375 0.34375q0.53125 0.203125 0.921875 0.421875q0.390625 0.203125 0.59375 0.5q0.21875 0.296875 0.21875 0.765625zm3.9377441 -3.46875l-1.421875 0l0 5.03125l-0.859375 0l0 -5.03125l-1.015625 0l0 -0.40625l1.015625 -0.296875l0 -0.375q0 -0.71875 0.203125 -1.171875q0.21875 -0.453125 0.625 -0.65625q0.40625 -0.21875 0.984375 -0.21875q0.328125 0 0.59375 0.0625q0.28125 0.0625 0.484375 0.125l-0.21875 0.6875q-0.171875 -0.0625 -0.40625 -0.109375q-0.21875 -0.046875 -0.4375 -0.046875q-0.5 0 -0.734375 0.328125q-0.234375 0.3125 -0.234375 0.984375l0 0.421875l1.421875 0l0 0.671875zm5.960022 2.171875q0 0.703125 -0.1875 1.25q-0.171875 0.546875 -0.515625 0.9375q-0.34375 0.375 -0.84375 0.578125q-0.484375 0.203125 -1.09375 0.203125q-0.5625 0 -1.046875 -0.203125q-0.46875 -0.203125 -0.828125 -0.578125q-0.34375 -0.390625 -0.53125 -0.9375q-0.1875 -0.546875 -0.1875 -1.25q0 -0.9375 0.3125 -1.59375q0.328125 -0.65625 0.90625 -1.0q0.59375 -0.359375 1.40625 -0.359375q0.78125 0 1.359375 0.359375q0.59375 0.34375 0.921875 1.0q0.328125 0.65625 0.328125 1.59375zm-4.34375 0q0 0.6875 0.1875 1.1875q0.1875 0.5 0.5625 0.78125q0.375 0.28125 0.96875 0.28125q0.59375 0 0.96875 -0.28125q0.390625 -0.28125 0.578125 -0.78125q0.1875 -0.5 0.1875 -1.1875q0 -0.6875 -0.1875 -1.171875q-0.1875 -0.5 -0.5625 -0.765625q-0.375 -0.28125 -0.984375 -0.28125q-0.890625 0 -1.3125 0.59375q-0.40625 0.578125 -0.40625 1.625zm8.426025 -2.953125q0.171875 0 0.359375 0.03125q0.1875 0.015625 0.328125 0.046875l-0.109375 0.796875q-0.140625 -0.03125 -0.3125 -0.046875q-0.171875 -0.03125 -0.3125 -0.03125q-0.34375 0 -0.65625 0.140625q-0.296875 0.140625 -0.53125 0.40625q-0.21875 0.25 -0.359375 0.609375q-0.125 0.359375 -0.125 0.796875l0 3.0625l-0.875 0l0 -5.703125l0.71875 0l0.09375 1.046875l0.046875 0q0.171875 -0.3125 0.421875 -0.578125q0.25 -0.265625 0.578125 -0.421875q0.328125 -0.15625 0.734375 -0.15625zm7.9644775 0q0.9375 0 1.40625 0.5q0.484375 0.484375 0.484375 1.578125l0 3.734375l-0.859375 0l0 -3.6875q0 -0.703125 -0.296875 -1.046875q-0.296875 -0.34375 -0.875 -0.34375q-0.828125 0 -1.203125 0.484375q-0.375 0.46875 -0.375 1.40625l0 3.1875l-0.859375 0l0 -3.6875q0 -0.46875 -0.140625 -0.765625q-0.125 -0.3125 -0.390625 -0.46875q-0.265625 -0.15625 -0.671875 -0.15625q-0.5625 0 -0.90625 0.234375q-0.34375 0.234375 -0.5 0.703125q-0.140625 0.453125 -0.140625 1.125l0 3.015625l-0.875 0l0 -5.703125l0.703125 0l0.125 0.8125l0.046875 0q0.171875 -0.296875 0.4375 -0.5q0.265625 -0.203125 0.578125 -0.3125q0.328125 -0.109375 0.6875 -0.109375q0.65625 0 1.09375 0.25q0.4375 0.234375 0.640625 0.734375l0.046875 0q0.28125 -0.5 0.765625 -0.734375q0.484375 -0.25 1.078125 -0.25z" fill-rule="nonzero"/><path fill="#000000" fill-opacity="0.0" d="m711.3018 51.90814l88.37799 0l0 29.574802l-88.37799 0z" fill-rule="evenodd"/><path fill="#595959" d="m726.19244 68.76991l-1.140625 0l0 1.765625l-0.84375 0l0 -1.765625l-3.671875 0l0 -0.734375l3.609375 -5.15625l0.90625 0l0 5.109375l1.140625 0l0 0.78125zm-1.984375 -0.78125l0 -2.484375q0 -0.28125 0 -0.515625q0.015625 -0.234375 0.015625 -0.4375q0.015625 -0.203125 0.015625 -0.375q0.015625 -0.1875 0.015625 -0.359375l-0.03125 0q-0.109375 0.203125 -0.234375 0.4375q-0.125 0.234375 -0.25 0.40625l-2.34375 3.328125l2.8125 0zm2.9680176 2.0q0 -0.359375 0.171875 -0.515625q0.1875 -0.15625 0.4375 -0.15625q0.265625 0 0.4375 0.15625q0.1875 0.15625 0.1875 0.515625q0 0.359375 -0.1875 0.53125q-0.171875 0.15625 -0.4375 0.15625q-0.25 0 -0.4375 -0.15625q-0.171875 -0.171875 -0.171875 -0.53125zm10.11438 -1.484375q0 0.6875 -0.34375 1.171875q-0.328125 0.46875 -0.9375 0.71875q-0.59375 0.25 -1.40625 0.25q-0.4375 0 -0.828125 -0.046875q-0.375 -0.046875 -0.703125 -0.125q-0.3125 -0.078125 -0.5625 -0.1875l0 -0.84375q0.390625 0.15625 0.953125 0.296875q0.5625 0.140625 1.171875 0.140625q0.578125 0 0.96875 -0.15625q0.390625 -0.15625 0.59375 -0.4375q0.21875 -0.296875 0.21875 -0.703125q0 -0.390625 -0.171875 -0.640625q-0.171875 -0.265625 -0.578125 -0.484375q-0.390625 -0.21875 -1.078125 -0.46875q-0.484375 -0.171875 -0.859375 -0.375q-0.359375 -0.203125 -0.609375 -0.453125q-0.25 -0.265625 -0.390625 -0.609375q-0.125 -0.34375 -0.125 -0.796875q0 -0.609375 0.3125 -1.03125q0.3125 -0.4375 0.859375 -0.671875q0.546875 -0.234375 1.265625 -0.234375q0.609375 0 1.125 0.125q0.515625 0.109375 0.953125 0.296875l-0.28125 0.765625q-0.40625 -0.171875 -0.875 -0.28125q-0.453125 -0.125 -0.953125 -0.125q-0.484375 0 -0.828125 0.140625q-0.328125 0.140625 -0.5 0.40625q-0.171875 0.265625 -0.171875 0.625q0 0.390625 0.15625 0.65625q0.171875 0.265625 0.546875 0.484375q0.375 0.203125 0.984375 0.421875q0.671875 0.25 1.140625 0.53125q0.46875 0.265625 0.703125 0.65625q0.25 0.390625 0.25 0.984375zm3.6244507 -3.78125q0.71875 0 1.234375 0.328125q0.53125 0.328125 0.796875 0.90625q0.28125 0.578125 0.28125 1.359375l0 0.53125l-3.9375 0q0.015625 1.0 0.5 1.53125q0.484375 0.515625 1.359375 0.515625q0.546875 0 0.953125 -0.09375q0.421875 -0.09375 0.875 -0.296875l0 0.765625q-0.4375 0.1875 -0.859375 0.28125q-0.421875 0.09375 -1.0 0.09375q-0.8125 0 -1.4375 -0.328125q-0.609375 -0.34375 -0.953125 -1.0q-0.328125 -0.65625 -0.328125 -1.59375q0 -0.921875 0.3125 -1.59375q0.3125 -0.671875 0.875 -1.03125q0.5625 -0.375 1.328125 -0.375zm-0.015625 0.71875q-0.6875 0 -1.109375 0.453125q-0.40625 0.453125 -0.484375 1.265625l3.015625 0q0 -0.515625 -0.15625 -0.90625q-0.15625 -0.390625 -0.46875 -0.59375q-0.3125 -0.21875 -0.796875 -0.21875zm6.3900146 -0.71875q0.171875 0 0.359375 0.03125q0.1875 0.015625 0.328125 0.046875l-0.109375 0.796875q-0.140625 -0.03125 -0.3125 -0.046875q-0.171875 -0.03125 -0.3125 -0.03125q-0.34375 0 -0.65625 0.140625q-0.296875 0.140625 -0.53125 0.40625q-0.21875 0.25 -0.359375 0.609375q-0.125 0.359375 -0.125 0.796875l0 3.0625l-0.875 0l0 -5.703125l0.71875 0l0.09375 1.046875l0.046875 0q0.171875 -0.3125 0.421875 -0.578125q0.25 -0.265625 0.578125 -0.421875q0.328125 -0.15625 0.734375 -0.15625zm2.6363525 0.109375l0 5.703125l-0.875 0l0 -5.703125l0.875 0zm-0.421875 -2.140625q0.203125 0 0.359375 0.140625q0.15625 0.140625 0.15625 0.4375q0 0.28125 -0.15625 0.421875q-0.15625 0.140625 -0.359375 0.140625q-0.234375 0 -0.390625 -0.140625q-0.140625 -0.140625 -0.140625 -0.421875q0 -0.296875 0.140625 -0.4375q0.15625 -0.140625 0.390625 -0.140625zm4.3775635 2.046875q1.015625 0 1.5 0.46875q0.5 0.453125 0.5 1.453125l0 3.875l-0.625 0l-0.171875 -0.84375l-0.03125 0q-0.25 0.3125 -0.515625 0.53125q-0.25 0.203125 -0.59375 0.3125q-0.34375 0.109375 -0.828125 0.109375q-0.515625 0 -0.921875 -0.1875q-0.40625 -0.1875 -0.640625 -0.546875q-0.234375 -0.375 -0.234375 -0.9375q0 -0.859375 0.671875 -1.3125q0.6875 -0.453125 2.0625 -0.5l0.984375 -0.046875l0 -0.34375q0 -0.734375 -0.3125 -1.03125q-0.3125 -0.296875 -0.890625 -0.296875q-0.453125 0 -0.859375 0.125q-0.40625 0.125 -0.765625 0.3125l-0.265625 -0.65625q0.390625 -0.203125 0.890625 -0.34375q0.5 -0.140625 1.046875 -0.140625zm1.15625 2.984375l-0.875 0.046875q-1.0625 0.03125 -1.5 0.34375q-0.4375 0.296875 -0.4375 0.859375q0 0.5 0.296875 0.734375q0.296875 0.234375 0.78125 0.234375q0.765625 0 1.25 -0.421875q0.484375 -0.421875 0.484375 -1.265625l0 -0.53125zm3.4994507 2.8125l-0.875 0l0 -8.09375l0.875 0l0 8.09375zm2.6900635 -5.703125l0 5.703125l-0.875 0l0 -5.703125l0.875 0zm-0.421875 -2.140625q0.203125 0 0.359375 0.140625q0.15625 0.140625 0.15625 0.4375q0 0.28125 -0.15625 0.421875q-0.15625 0.140625 -0.359375 0.140625q-0.234375 0 -0.390625 -0.140625q-0.140625 -0.140625 -0.140625 -0.421875q0 -0.296875 0.140625 -0.4375q0.15625 -0.140625 0.390625 -0.140625zm5.9088135 7.84375l-4.15625 0l0 -0.578125l3.125 -4.453125l-2.9375 0l0 -0.671875l3.890625 0l0 0.640625l-3.078125 4.390625l3.15625 0l0 0.671875zm3.5263672 -5.8125q0.71875 0 1.234375 0.328125q0.53125 0.328125 0.796875 0.90625q0.28125 0.578125 0.28125 1.359375l0 0.53125l-3.9375 0q0.015625 1.0 0.5 1.53125q0.484375 0.515625 1.359375 0.515625q0.546875 0 0.953125 -0.09375q0.421875 -0.09375 0.875 -0.296875l0 0.765625q-0.4375 0.1875 -0.859375 0.28125q-0.421875 0.09375 -1.0 0.09375q-0.8125 0 -1.4375 -0.328125q-0.609375 -0.34375 -0.953125 -1.0q-0.328125 -0.65625 -0.328125 -1.59375q0 -0.921875 0.3125 -1.59375q0.3125 -0.671875 0.875 -1.03125q0.5625 -0.375 1.328125 -0.375zm-0.015625 0.71875q-0.6875 0 -1.109375 0.453125q-0.40625 0.453125 -0.484375 1.265625l3.015625 0q0 -0.515625 -0.15625 -0.90625q-0.15625 -0.390625 -0.46875 -0.59375q-0.3125 -0.21875 -0.796875 -0.21875z" fill-rule="nonzero"/><path fill="#000000" fill-opacity="0.0" d="m203.8337 25.954016l34.519684 -5.4803143" fill-rule="evenodd"/><path stroke="#595959" stroke-width="1.0" stroke-linejoin="round" stroke-linecap="butt" d="m203.83371 25.954018l28.593887 -4.539543" fill-rule="evenodd"/><path fill="#595959" stroke="#595959" stroke-width="1.0" stroke-linecap="butt" d="m232.68658 23.045776l4.2229767 -2.3428555l-4.7409515 -0.9197502z" fill-rule="evenodd"/><path fill="#000000" fill-opacity="0.0" d="m391.2362 20.48819l34.519714 0" fill-rule="evenodd"/><path stroke="#595959" stroke-width="1.0" stroke-linejoin="round" stroke-linecap="butt" d="m391.2362 20.48819l28.519714 0" fill-rule="evenodd"/><path fill="#595959" stroke="#595959" stroke-width="1.0" stroke-linecap="butt" d="m419.75592 22.139921l4.538086 -1.6517315l-4.538086 -1.6517334z" fill-rule="evenodd"/><path fill="#000000" fill-opacity="0.0" d="m558.92126 20.48819l65.3858 0" fill-rule="evenodd"/><path stroke="#595959" stroke-width="1.0" stroke-linejoin="round" stroke-linecap="butt" d="m558.92126 20.48819l59.385803 0" fill-rule="evenodd"/><path fill="#595959" stroke="#595959" stroke-width="1.0" stroke-linecap="butt" d="m618.30707 22.139921l4.538086 -1.6517315l-4.538086 -1.6517334z" fill-rule="evenodd"/><path fill="#000000" fill-opacity="0.0" d="m698.0923 20.48819l82.74017 5.4803143" fill-rule="evenodd"/><path stroke="#595959" stroke-width="1.0" stroke-linejoin="round" stroke-linecap="butt" d="m698.0923 20.48819l76.753296 5.0837708" fill-rule="evenodd"/><path fill="#595959" stroke="#595959" stroke-width="1.0" stroke-linecap="butt" d="m774.7364 27.220083l4.637329 -1.3481979l-4.4190063 -1.9480457z" fill-rule="evenodd"/></g></svg>