<svg version="1.1" viewBox="0.0 0.0 960.0 540.0" fill="none" stroke="none" stroke-linecap="square" stroke-miterlimit="10" xmlns:xlink="http://www.w3.org/1999/xlink" xmlns="http://www.w3.org/2000/svg"><clipPath id="p.0"><path d="m0 0l960.0 0l0 540.0l-960.0 0l0 -540.0z" clip-rule="nonzero"/></clipPath><g clip-path="url(#p.0)"><path fill="#ffffff" d="m0 0l960.0 0l0 540.0l-960.0 0z" fill-rule="evenodd"/><path fill="#000000" fill-opacity="0.0" d="m0 15.381948l314.87045 0l0 60.050293c-157.42676 0 -157.42676 23.10431 -314.87045 11.552155zm25.941465 0l0 -7.785149l312.71994 0l0 60.42699c-11.886993 0 -23.790955 0.4185562 -23.790955 0.4185562l0 -53.060394zm24.383623 -7.785149l0 -7.5967994l315.42926 0l0 60.23864c-13.546448 0 -27.092926 0.31391907 -27.092926 0.31391907l0 -52.95576z" fill-rule="evenodd"/><path fill="#000000" fill-opacity="0.0" d="m0 15.381948l314.87045 0l0 60.050293c-157.42676 0 -157.42676 23.10431 -314.87045 11.552155zm25.941465 0l0 -7.785149l312.71994 0l0 60.42699c-11.886993 0 -23.790955 0.4185562 -23.790955 0.4185562m-264.54535 -60.845547l0 -7.5967994l315.42926 0l0 60.23864c-13.546448 0 -27.092926 0.31391907 -27.092926 0.31391907" fill-rule="evenodd"/><path fill="#000000" fill-opacity="0.0" d="m0 86.9844c157.4437 11.552155 157.4437 -11.552155 314.87045 -11.552155l0 -6.9898987c0 0 11.903961 -0.4185562 23.790955 -0.4185562l0 -7.4712296c0 0 13.546478 -0.31391907 27.092926 -0.31391907l0 -60.23864l-315.42926 0l0 7.5967994l-24.383623 0l0 7.785149l-25.941465 0z" fill-rule="evenodd"/><path stroke="#595959" stroke-width="1.0" stroke-linejoin="round" stroke-linecap="butt" d="m0 15.381948l314.87045 0l0 60.050293c-157.42676 0 -157.42676 23.10431 -314.87045 11.552155zm25.941465 0l0 -7.785149l312.71994 0l0 60.42699c-11.886993 0 -23.790955 0.4185562 -23.790955 0.4185562m-264.54535 -60.845547l0 -7.5967994l315.42926 0l0 60.23864c-13.546448 0 -27.092926 0.31391907 -27.092926 0.31391907" fill-rule="evenodd"/><path fill="#000000" d="m22.642593 54.6163q0 1.34375 -0.671875 2.296875q-0.671875 0.953125 -1.875 1.453125q-1.203125 0.5 -2.84375 0.5q-0.859375 0 -1.640625 -0.078125q-0.765625 -0.078125 -1.421875 -0.234375q-0.640625 -0.15625 -1.125 -0.390625l0 -1.703125q0.78125 0.328125 1.90625 0.609375q1.125 0.265625 2.359375 0.265625q1.140625 0 1.921875 -0.296875q0.796875 -0.3125 1.203125 -0.890625q0.421875 -0.578125 0.421875 -1.390625q0 -0.78125 -0.34375 -1.296875q-0.34375 -0.53125 -1.140625 -0.96875q-0.796875 -0.4375 -2.171875 -0.921875q-0.96875 -0.34375 -1.71875 -0.75q-0.734375 -0.421875 -1.234375 -0.9375q-0.5 -0.515625 -0.75 -1.203125q-0.25 -0.6875 -0.25 -1.578125q0 -1.21875 0.609375 -2.078125q0.625 -0.875 1.71875 -1.328125q1.109375 -0.46875 2.53125 -0.46875q1.21875 0 2.25 0.234375q1.046875 0.21875 1.90625 0.609375l-0.546875 1.515625q-0.828125 -0.34375 -1.75 -0.5625q-0.921875 -0.234375 -1.90625 -0.234375q-0.96875 0 -1.640625 0.28125q-0.671875 0.28125 -1.03125 0.8125q-0.359375 0.515625 -0.359375 1.234375q0 0.796875 0.34375 1.328125q0.34375 0.53125 1.078125 0.953125q0.75 0.40625 1.984375 0.84375q1.34375 0.5 2.28125 1.046875q0.9375 0.546875 1.421875 1.328125q0.484375 0.78125 0.484375 2.0zm15.007568 4.046875l-2.046875 0l-8.296875 -12.78125l-0.078125 0q0.03125 0.5 0.0625 1.15625q0.046875 0.65625 0.078125 1.390625q0.03125 0.71875 0.03125 1.484375l0 8.75l-1.65625 0l0 -15.21875l2.03125 0l8.265625 12.734375l0.078125 0q-0.015625 -0.359375 -0.046875 -1.03125q-0.03125 -0.671875 -0.0625 -1.4375q-0.03125 -0.78125 -0.03125 -1.453125l0 -8.8125l1.671875 0l0 15.21875zm17.355453 -7.640625q0 1.765625 -0.453125 3.21875q-0.4375 1.4375 -1.328125 2.46875q-0.875 1.03125 -2.171875 1.59375q-1.296875 0.5625 -3.015625 0.5625q-1.765625 0 -3.09375 -0.5625q-1.3125 -0.5625 -2.1875 -1.59375q-0.859375 -1.046875 -1.296875 -2.484375q-0.4375 -1.453125 -0.4375 -3.21875q0 -2.328125 0.765625 -4.078125q0.78125 -1.765625 2.34375 -2.75q1.578125 -0.984375 3.9375 -0.984375q2.265625 0 3.796875 0.96875q1.546875 0.96875 2.34375 2.734375q0.796875 1.75 0.796875 4.125zm-12.109375 0q0 1.9375 0.546875 3.359375q0.546875 1.421875 1.6875 2.1875q1.140625 0.765625 2.90625 0.765625q1.765625 0 2.890625 -0.765625q1.140625 -0.765625 1.671875 -2.1875q0.546875 -1.421875 0.546875 -3.359375q0 -2.9375 -1.234375 -4.59375q-1.234375 -1.671875 -3.84375 -1.671875q-1.765625 0 -2.921875 0.765625q-1.140625 0.765625 -1.703125 2.171875q-0.546875 1.390625 -0.546875 3.328125zm22.199081 7.640625l-5.109375 -13.46875l-0.09375 0q0.046875 0.421875 0.078125 1.046875q0.03125 0.609375 0.046875 1.328125q0.03125 0.71875 0.03125 1.46875l0 9.625l-1.65625 0l0 -15.21875l2.625 0l4.828125 12.65625l0.078125 0l4.890625 -12.65625l2.59375 0l0 15.21875l-1.75 0l0 -9.75q0 -0.671875 0.015625 -1.34375q0.03125 -0.6875 0.0625 -1.296875q0.03125 -0.609375 0.0625 -1.0625l-0.078125 0l-5.171875 13.453125l-1.453125 0zm20.964066 0l-8.484375 0l0 -15.21875l8.484375 0l0 1.5625l-6.703125 0l0 4.921875l6.3125 0l0 1.53125l-6.3125 0l0 5.640625l6.703125 0l0 1.5625zm15.460648 -7.765625q0 2.578125 -0.9375 4.3125q-0.9375 1.71875 -2.71875 2.59375q-1.765625 0.859375 -4.296875 0.859375l-4.140625 0l0 -15.21875l4.59375 0q2.328125 0 4.0 0.84375q1.671875 0.84375 2.578125 2.515625q0.921875 1.65625 0.921875 4.09375zm-1.859375 0.0625q0 -2.046875 -0.6875 -3.375q-0.6875 -1.328125 -2.0 -1.984375q-1.3125 -0.65625 -3.21875 -0.65625l-2.546875 0l0 12.203125l2.15625 0q3.140625 0 4.71875 -1.546875q1.578125 -1.5625 1.578125 -4.640625zm17.296951 -6.171875q-1.265625 0 -2.265625 0.4375q-1.0 0.421875 -1.703125 1.25q-0.703125 0.8125 -1.078125 1.96875q-0.375 1.140625 -0.375 2.59375q0 1.921875 0.59375 3.328125q0.59375 1.40625 1.78125 2.1875q1.203125 0.765625 3.0 0.765625q1.015625 0 1.90625 -0.171875q0.90625 -0.171875 1.765625 -0.4375l0 1.546875q-0.84375 0.3125 -1.765625 0.453125q-0.90625 0.15625 -2.15625 0.15625q-2.328125 0 -3.890625 -0.953125q-1.546875 -0.96875 -2.328125 -2.71875q-0.78125 -1.765625 -0.78125 -4.171875q0 -1.71875 0.484375 -3.140625q0.484375 -1.4375 1.421875 -2.484375q0.9375 -1.046875 2.296875 -1.609375q1.359375 -0.5625 3.109375 -0.5625q1.15625 0 2.21875 0.234375q1.078125 0.21875 1.953125 0.640625l-0.71875 1.5q-0.71875 -0.328125 -1.59375 -0.5625q-0.859375 -0.25 -1.875 -0.25zm11.606094 13.875l-1.78125 0l0 -13.65625l-4.796875 0l0 -1.5625l11.34375 0l0 1.5625l-4.765625 0l0 13.65625zm16.724945 -15.21875q1.875 0 3.09375 0.46875q1.21875 0.453125 1.8125 1.40625q0.609375 0.9375 0.609375 2.40625q0 1.203125 -0.4375 2.015625q-0.4375 0.8125 -1.140625 1.3125q-0.703125 0.5 -1.5 0.765625l4.171875 6.84375l-2.0625 0l-3.734375 -6.359375l-3.15625 0l0 6.359375l-1.78125 0l0 -15.21875l4.125 0zm-0.109375 1.53125l-2.234375 0l0 5.828125l2.40625 0q1.875 0 2.75 -0.75q0.875 -0.765625 0.875 -2.234375q0 -1.5625 -0.9375 -2.203125q-0.921875 -0.640625 -2.859375 -0.640625zm13.288452 2.0625q1.453125 0 2.5 0.65625q1.046875 0.640625 1.59375 1.796875q0.546875 1.15625 0.546875 2.71875l0 1.0625l-7.875 0q0.03125 2.015625 1.0 3.078125q0.96875 1.046875 2.71875 1.046875q1.09375 0 1.921875 -0.203125q0.828125 -0.203125 1.734375 -0.578125l0 1.515625q-0.875 0.390625 -1.71875 0.5625q-0.84375 0.171875 -2.0 0.171875q-1.65625 0 -2.875 -0.671875q-1.21875 -0.671875 -1.90625 -1.96875q-0.671875 -1.296875 -0.671875 -3.1875q0 -1.84375 0.609375 -3.1875q0.625 -1.359375 1.75 -2.078125q1.140625 -0.734375 2.671875 -0.734375zm-0.015625 1.421875q-1.390625 0 -2.21875 0.90625q-0.8125 0.90625 -0.96875 2.53125l6.03125 0q0 -1.03125 -0.3125 -1.796875q-0.3125 -0.78125 -0.9375 -1.203125q-0.625 -0.4375 -1.59375 -0.4375zm9.335617 10.203125l-1.734375 0l0 -16.203125l1.734375 0l0 16.203125zm8.0403595 -11.625q1.453125 0 2.5 0.65625q1.046875 0.640625 1.59375 1.796875q0.546875 1.15625 0.546875 2.71875l0 1.0625l-7.875 0q0.03125 2.015625 1.0 3.078125q0.96875 1.046875 2.71875 1.046875q1.09375 0 1.921875 -0.203125q0.828125 -0.203125 1.734375 -0.578125l0 1.515625q-0.875 0.390625 -1.71875 0.5625q-0.84375 0.171875 -2.0 0.171875q-1.65625 0 -2.875 -0.671875q-1.21875 -0.671875 -1.90625 -1.96875q-0.671875 -1.296875 -0.671875 -3.1875q0 -1.84375 0.609375 -3.1875q0.625 -1.359375 1.75 -2.078125q1.140625 -0.734375 2.671875 -0.734375zm-0.015625 1.421875q-1.390625 0 -2.21875 0.90625q-0.8125 0.90625 -0.96875 2.53125l6.03125 0q0 -1.03125 -0.3125 -1.796875q-0.3125 -0.78125 -0.9375 -1.203125q-0.625 -0.4375 -1.59375 -0.4375zm11.866867 -1.390625q2.046875 0 3.03125 0.921875q0.984375 0.90625 0.984375 2.90625l0 7.765625l-1.25 0l-0.34375 -1.6875l-0.078125 0q-0.484375 0.625 -1.0 1.046875q-0.515625 0.421875 -1.203125 0.640625q-0.6875 0.203125 -1.671875 0.203125q-1.046875 0 -1.859375 -0.359375q-0.796875 -0.359375 -1.265625 -1.09375q-0.453125 -0.75 -0.453125 -1.890625q0 -1.703125 1.34375 -2.609375q1.359375 -0.921875 4.125 -1.015625l1.96875 -0.078125l0 -0.703125q0 -1.46875 -0.640625 -2.0625q-0.625 -0.59375 -1.78125 -0.59375q-0.890625 0 -1.703125 0.265625q-0.8125 0.25 -1.546875 0.609375l-0.53125 -1.3125q0.765625 -0.390625 1.765625 -0.671875q1.0 -0.28125 2.109375 -0.28125zm2.3125 5.96875l-1.734375 0.078125q-2.140625 0.078125 -3.015625 0.703125q-0.875 0.609375 -0.875 1.734375q0 0.96875 0.59375 1.4375q0.59375 0.46875 1.578125 0.46875q1.515625 0 2.484375 -0.84375q0.96875 -0.84375 0.96875 -2.53125l0 -1.046875zm12.648148 2.5q0 1.09375 -0.546875 1.84375q-0.546875 0.734375 -1.5625 1.109375q-1.015625 0.375 -2.421875 0.375q-1.1875 0 -2.0625 -0.1875q-0.875 -0.1875 -1.53125 -0.53125l0 -1.59375q0.6875 0.34375 1.65625 0.625q0.96875 0.28125 1.984375 0.28125q1.484375 0 2.140625 -0.46875q0.671875 -0.484375 0.671875 -1.3125q0 -0.46875 -0.265625 -0.828125q-0.265625 -0.359375 -0.890625 -0.6875q-0.625 -0.34375 -1.734375 -0.75q-1.09375 -0.421875 -1.890625 -0.828125q-0.796875 -0.40625 -1.234375 -1.0q-0.421875 -0.59375 -0.421875 -1.546875q0 -1.453125 1.171875 -2.21875q1.171875 -0.78125 3.078125 -0.78125q1.03125 0 1.921875 0.203125q0.90625 0.203125 1.6875 0.546875l-0.578125 1.390625q-0.703125 -0.3125 -1.515625 -0.515625q-0.796875 -0.203125 -1.625 -0.203125q-1.203125 0 -1.84375 0.390625q-0.640625 0.390625 -0.640625 1.078125q0 0.53125 0.296875 0.875q0.296875 0.34375 0.953125 0.65625q0.65625 0.296875 1.734375 0.703125q1.0625 0.390625 1.84375 0.8125q0.78125 0.421875 1.203125 1.03125q0.421875 0.59375 0.421875 1.53125zm7.1798096 -8.5q1.453125 0 2.5 0.65625q1.046875 0.640625 1.59375 1.796875q0.546875 1.15625 0.546875 2.71875l0 1.0625l-7.875 0q0.03125 2.015625 1.0 3.078125q0.96875 1.046875 2.71875 1.046875q1.09375 0 1.921875 -0.203125q0.828125 -0.203125 1.734375 -0.578125l0 1.515625q-0.875 0.390625 -1.71875 0.5625q-0.84375 0.171875 -2.0 0.171875q-1.65625 0 -2.875 -0.671875q-1.21875 -0.671875 -1.90625 -1.96875q-0.671875 -1.296875 -0.671875 -3.1875q0 -1.84375 0.609375 -3.1875q0.625 -1.359375 1.75 -2.078125q1.140625 -0.734375 2.671875 -0.734375zm-0.015625 1.421875q-1.390625 0 -2.21875 0.90625q-0.8125 0.90625 -0.96875 2.53125l6.03125 0q0 -1.03125 -0.3125 -1.796875q-0.3125 -0.78125 -0.9375 -1.203125q-0.625 -0.4375 -1.59375 -0.4375zm18.079056 10.203125l-1.78125 0l0 -13.65625l-4.796875 0l0 -1.5625l11.34375 0l0 1.5625l-4.765625 0l0 13.65625zm15.653381 -4.046875q0 1.34375 -0.671875 2.296875q-0.671875 0.953125 -1.875 1.453125q-1.203125 0.5 -2.84375 0.5q-0.859375 0 -1.640625 -0.078125q-0.765625 -0.078125 -1.421875 -0.234375q-0.640625 -0.15625 -1.125 -0.390625l0 -1.703125q0.78125 0.328125 1.90625 0.609375q1.125 0.265625 2.359375 0.265625q1.140625 0 1.921875 -0.296875q0.796875 -0.3125 1.203125 -0.890625q0.421875 -0.578125 0.421875 -1.390625q0 -0.78125 -0.34375 -1.296875q-0.34375 -0.53125 -1.140625 -0.96875q-0.796875 -0.4375 -2.171875 -0.921875q-0.96875 -0.34375 -1.71875 -0.75q-0.734375 -0.421875 -1.234375 -0.9375q-0.5 -0.515625 -0.75 -1.203125q-0.25 -0.6875 -0.25 -1.578125q0 -1.21875 0.609375 -2.078125q0.625 -0.875 1.71875 -1.328125q1.109375 -0.46875 2.53125 -0.46875q1.21875 0 2.25 0.234375q1.046875 0.21875 1.90625 0.609375l-0.546875 1.515625q-0.828125 -0.34375 -1.75 -0.5625q-0.921875 -0.234375 -1.90625 -0.234375q-0.96875 0 -1.640625 0.28125q-0.671875 0.28125 -1.03125 0.8125q-0.359375 0.515625 -0.359375 1.234375q0 0.796875 0.34375 1.328125q0.34375 0.53125 1.078125 0.953125q0.75 0.40625 1.984375 0.84375q1.34375 0.5 2.28125 1.046875q0.9375 0.546875 1.421875 1.328125q0.484375 0.78125 0.484375 2.0zm13.741943 -11.171875l-5.46875 15.21875l-1.78125 0l-5.46875 -15.21875l1.859375 0l3.5625 10.015625q0.21875 0.609375 0.390625 1.171875q0.171875 0.546875 0.296875 1.0625q0.140625 0.5 0.25 0.984375q0.09375 -0.484375 0.234375 -1.0q0.140625 -0.515625 0.3125 -1.0625q0.171875 -0.5625 0.390625 -1.1875l3.546875 -9.984375l1.875 0zm12.443451 5.15625l-2.84375 0l0 10.0625l-1.734375 0l0 -10.0625l-2.015625 0l0 -0.828125l2.015625 -0.578125l0 -0.75q0 -1.4375 0.421875 -2.34375q0.4375 -0.90625 1.25 -1.328125q0.8125 -0.421875 1.984375 -0.421875q0.65625 0 1.203125 0.109375q0.546875 0.109375 0.953125 0.265625l-0.4375 1.359375q-0.359375 -0.109375 -0.8125 -0.203125q-0.4375 -0.109375 -0.890625 -0.109375q-0.984375 0 -1.46875 0.640625q-0.46875 0.640625 -0.46875 2.0l0 0.84375l2.84375 0l0 1.34375zm3.8125 -1.34375l0 11.40625l-1.71875 0l0 -11.40625l1.71875 0zm-0.84375 -4.28125q0.4375 0 0.734375 0.28125q0.3125 0.28125 0.3125 0.859375q0 0.578125 -0.3125 0.859375q-0.296875 0.28125 -0.734375 0.28125q-0.4375 0 -0.734375 -0.28125q-0.296875 -0.28125 -0.296875 -0.859375q0 -0.578125 0.296875 -0.859375q0.296875 -0.28125 0.734375 -0.28125zm6.2469482 15.6875l-1.734375 0l0 -16.203125l1.734375 0l0 16.203125zm8.040344 -11.625q1.453125 0 2.5 0.65625q1.046875 0.640625 1.59375 1.796875q0.546875 1.15625 0.546875 2.71875l0 1.0625l-7.875 0q0.03125 2.015625 1.0 3.078125q0.96875 1.046875 2.71875 1.046875q1.09375 0 1.921875 -0.203125q0.828125 -0.203125 1.734375 -0.578125l0 1.515625q-0.875 0.390625 -1.71875 0.5625q-0.84375 0.171875 -2.0 0.171875q-1.65625 0 -2.875 -0.671875q-1.21875 -0.671875 -1.90625 -1.96875q-0.671875 -1.296875 -0.671875 -3.1875q0 -1.84375 0.609375 -3.1875q0.625 -1.359375 1.75 -2.078125q1.140625 -0.734375 2.671875 -0.734375zm-0.015625 1.421875q-1.390625 0 -2.21875 0.90625q-0.8125 0.90625 -0.96875 2.53125l6.03125 0q0 -1.03125 -0.3125 -1.796875q-0.3125 -0.78125 -0.9375 -1.203125q-0.625 -0.4375 -1.59375 -0.4375zm14.976257 7.078125q0 1.09375 -0.546875 1.84375q-0.546875 0.734375 -1.5625 1.109375q-1.015625 0.375 -2.421875 0.375q-1.1875 0 -2.0625 -0.1875q-0.875 -0.1875 -1.53125 -0.53125l0 -1.59375q0.6875 0.34375 1.65625 0.625q0.96875 0.28125 1.984375 0.28125q1.484375 0 2.140625 -0.46875q0.671875 -0.484375 0.671875 -1.3125q0 -0.46875 -0.265625 -0.828125q-0.265625 -0.359375 -0.890625 -0.6875q-0.625 -0.34375 -1.734375 -0.75q-1.09375 -0.421875 -1.890625 -0.828125q-0.796875 -0.40625 -1.234375 -1.0q-0.421875 -0.59375 -0.421875 -1.546875q0 -1.453125 1.171875 -2.21875q1.171875 -0.78125 3.078125 -0.78125q1.03125 0 1.921875 0.203125q0.90625 0.203125 1.6875 0.546875l-0.578125 1.390625q-0.703125 -0.3125 -1.515625 -0.515625q-0.796875 -0.203125 -1.625 -0.203125q-1.203125 0 -1.84375 0.390625q-0.640625 0.390625 -0.640625 1.078125q0 0.53125 0.296875 0.875q0.296875 0.34375 0.953125 0.65625q0.65625 0.296875 1.734375 0.703125q1.0625 0.390625 1.84375 0.8125q0.78125 0.421875 1.203125 1.03125q0.421875 0.59375 0.421875 1.53125z" fill-rule="nonzero"/><path fill="#000000" fill-opacity="0.0" d="m188.46996 138.90552l288.7976 0c1.8113098 0 3.5484314 0.7195282 4.8292236 2.0003204c1.2807617 1.280777 2.0003052 3.0178986 2.0003052 4.8292084l0 34.14685c0 0.0013885498 -0.0011291504 0.0025177002 -0.0025024414 0.0025177002l-302.45416 -0.0025177002l0 0c-0.0014038086 0 -0.002532959 -0.0011291504 -0.002532959 -0.002532959l0.002532959 -34.144318l0 0c0 -3.7718506 3.0576782 -6.829529 6.829529 -6.829529z" fill-rule="evenodd"/><path stroke="#595959" stroke-width="1.0" stroke-linejoin="round" stroke-linecap="butt" d="m188.46996 138.90552l288.7976 0c1.8113098 0 3.5484314 0.7195282 4.8292236 2.0003204c1.2807617 1.280777 2.0003052 3.0178986 2.0003052 4.8292084l0 34.14685c0 0.0013885498 -0.0011291504 0.0025177002 -0.0025024414 0.0025177002l-302.45416 -0.0025177002l0 0c-0.0014038086 0 -0.002532959 -0.0011291504 -0.002532959 -0.002532959l0.002532959 -34.144318l0 0c0 -3.7718506 3.0576782 -6.829529 6.829529 -6.829529z" fill-rule="evenodd"/><path fill="#000000" d="m210.20648 167.87386l0 -15.21875l1.78125 0l0 13.640625l6.75 0l0 1.578125l-8.53125 0zm20.71083 -5.734375q0 1.40625 -0.359375 2.515625q-0.359375 1.109375 -1.046875 1.875q-0.6875 0.75 -1.671875 1.15625q-0.96875 0.390625 -2.1875 0.390625q-1.15625 0 -2.109375 -0.390625q-0.953125 -0.40625 -1.640625 -1.15625q-0.6875 -0.765625 -1.078125 -1.875q-0.375 -1.109375 -0.375 -2.515625q0 -1.875 0.625 -3.1875q0.640625 -1.3125 1.828125 -2.0q1.1875 -0.703125 2.8125 -0.703125q1.5625 0 2.734375 0.703125q1.171875 0.6875 1.8125 2.015625q0.65625 1.3125 0.65625 3.171875zm-8.671875 0q0 1.375 0.359375 2.390625q0.359375 1.015625 1.125 1.5625q0.765625 0.546875 1.953125 0.546875q1.1875 0 1.953125 -0.546875q0.765625 -0.546875 1.125 -1.5625q0.375 -1.015625 0.375 -2.390625q0 -1.359375 -0.375 -2.34375q-0.359375 -1.0 -1.125 -1.546875q-0.75 -0.546875 -1.953125 -0.546875q-1.78125 0 -2.609375 1.1875q-0.828125 1.171875 -0.828125 3.25zm20.9552 5.71875l-2.03125 -6.65625q-0.125 -0.421875 -0.25 -0.828125q-0.125 -0.421875 -0.21875 -0.796875q-0.09375 -0.375 -0.171875 -0.703125q-0.078125 -0.328125 -0.140625 -0.578125l-0.0625 0q-0.046875 0.25 -0.125 0.578125q-0.0625 0.328125 -0.171875 0.71875q-0.09375 0.375 -0.21875 0.796875q-0.109375 0.421875 -0.25 0.84375l-2.125 6.625l-1.953125 0l-3.140625 -11.421875l1.796875 0l1.640625 6.296875q0.171875 0.625 0.3125 1.234375q0.15625 0.609375 0.265625 1.15625q0.109375 0.53125 0.15625 0.921875l0.09375 0q0.0625 -0.25 0.140625 -0.609375q0.078125 -0.375 0.171875 -0.78125q0.09375 -0.421875 0.203125 -0.828125q0.125 -0.40625 0.234375 -0.78125l2.109375 -6.609375l1.859375 0l2.03125 6.609375q0.15625 0.5 0.296875 1.046875q0.15625 0.53125 0.28125 1.046875q0.125 0.5 0.1875 0.890625l0.078125 0q0.046875 -0.359375 0.15625 -0.875q0.109375 -0.515625 0.265625 -1.140625q0.15625 -0.625 0.3125 -1.28125l1.671875 -6.296875l1.765625 0l-3.15625 11.421875l-2.015625 0zm6.2772217 -4.9375l0 -1.546875l5.15625 0l0 1.546875l-5.15625 0zm9.566025 4.953125l-1.734375 0l0 -16.203125l1.734375 0l0 16.203125zm8.040375 -11.625q1.453125 0 2.5 0.65625q1.046875 0.640625 1.59375 1.796875q0.546875 1.15625 0.546875 2.71875l0 1.0625l-7.875 0q0.03125 2.015625 1.0 3.078125q0.96875 1.046875 2.71875 1.046875q1.09375 0 1.921875 -0.203125q0.828125 -0.203125 1.734375 -0.578125l0 1.515625q-0.875 0.390625 -1.71875 0.5625q-0.84375 0.171875 -2.0 0.171875q-1.65625 0 -2.875 -0.671875q-1.21875 -0.671875 -1.90625 -1.96875q-0.671875 -1.296875 -0.671875 -3.1875q0 -1.84375 0.609375 -3.1875q0.625 -1.359375 1.75 -2.078125q1.140625 -0.734375 2.671875 -0.734375zm-0.015625 1.421875q-1.390625 0 -2.21875 0.90625q-0.8125 0.90625 -0.96875 2.53125l6.03125 0q0 -1.03125 -0.3125 -1.796875q-0.3125 -0.78125 -0.9375 -1.203125q-0.625 -0.4375 -1.59375 -0.4375zm10.101227 10.203125l-4.328125 -11.40625l1.859375 0l2.5 6.890625q0.265625 0.71875 0.53125 1.578125q0.28125 0.84375 0.375 1.359375l0.078125 0q0.125 -0.515625 0.40625 -1.375q0.296875 -0.859375 0.546875 -1.5625l2.5 -6.890625l1.859375 0l-4.34375 11.40625l-1.984375 0zm12.544281 -11.625q1.453125 0 2.5 0.65625q1.046875 0.640625 1.59375 1.796875q0.546875 1.15625 0.546875 2.71875l0 1.0625l-7.875 0q0.03125 2.015625 1.0 3.078125q0.96875 1.046875 2.71875 1.046875q1.09375 0 1.921875 -0.203125q0.828125 -0.203125 1.734375 -0.578125l0 1.515625q-0.875 0.390625 -1.71875 0.5625q-0.84375 0.171875 -2.0 0.171875q-1.65625 0 -2.875 -0.671875q-1.21875 -0.671875 -1.90625 -1.96875q-0.671875 -1.296875 -0.671875 -3.1875q0 -1.84375 0.609375 -3.1875q0.625 -1.359375 1.75 -2.078125q1.140625 -0.734375 2.671875 -0.734375zm-0.015625 1.421875q-1.390625 0 -2.21875 0.90625q-0.8125 0.90625 -0.96875 2.53125l6.03125 0q0 -1.03125 -0.3125 -1.796875q-0.3125 -0.78125 -0.9375 -1.203125q-0.625 -0.4375 -1.59375 -0.4375zm9.335632 10.203125l-1.734375 0l0 -16.203125l1.734375 0l0 16.203125zm13.252533 0.203125q-2.171875 0 -3.4375 -1.46875q-1.265625 -1.484375 -1.265625 -4.40625q0 -2.9375 1.28125 -4.4375q1.296875 -1.515625 3.453125 -1.515625q0.90625 0 1.578125 0.25q0.671875 0.234375 1.15625 0.640625q0.5 0.390625 0.828125 0.90625l0.125 0q-0.03125 -0.328125 -0.078125 -0.890625q-0.046875 -0.5625 -0.046875 -0.90625l0 -4.578125l1.734375 0l0 16.203125l-1.390625 0l-0.265625 -1.625l-0.078125 0q-0.3125 0.515625 -0.8125 0.9375q-0.5 0.40625 -1.1875 0.65625q-0.671875 0.234375 -1.59375 0.234375zm0.265625 -1.4375q1.828125 0 2.59375 -1.03125q0.765625 -1.046875 0.765625 -3.09375l0 -0.3125q0 -2.1875 -0.734375 -3.34375q-0.71875 -1.171875 -2.625 -1.171875q-1.59375 0 -2.390625 1.234375q-0.78125 1.21875 -0.78125 3.328125q0 2.109375 0.78125 3.25q0.78125 1.140625 2.390625 1.140625zm12.98642 -10.359375q2.046875 0 3.03125 0.921875q0.984375 0.90625 0.984375 2.90625l0 7.765625l-1.25 0l-0.34375 -1.6875l-0.078125 0q-0.484375 0.625 -1.0 1.046875q-0.515625 0.421875 -1.203125 0.640625q-0.6875 0.203125 -1.671875 0.203125q-1.046875 0 -1.859375 -0.359375q-0.796875 -0.359375 -1.265625 -1.09375q-0.453125 -0.75 -0.453125 -1.890625q0 -1.703125 1.34375 -2.609375q1.359375 -0.921875 4.125 -1.015625l1.96875 -0.078125l0 -0.703125q0 -1.46875 -0.640625 -2.0625q-0.625 -0.59375 -1.78125 -0.59375q-0.890625 0 -1.703125 0.265625q-0.8125 0.25 -1.546875 0.609375l-0.53125 -1.3125q0.765625 -0.390625 1.765625 -0.671875q1.0 -0.28125 2.109375 -0.28125zm2.3125 5.96875l-1.734375 0.078125q-2.140625 0.078125 -3.015625 0.703125q-0.875 0.609375 -0.875 1.734375q0 0.96875 0.59375 1.4375q0.59375 0.46875 1.578125 0.46875q1.515625 0 2.484375 -0.84375q0.96875 -0.84375 0.96875 -2.53125l0 -1.046875zm8.960632 4.421875q0.421875 0 0.859375 -0.078125q0.453125 -0.078125 0.734375 -0.171875l0 1.34375q-0.296875 0.125 -0.84375 0.21875q-0.53125 0.09375 -1.03125 0.09375q-0.90625 0 -1.65625 -0.3125q-0.734375 -0.3125 -1.1875 -1.078125q-0.4375 -0.765625 -0.4375 -2.109375l0 -6.765625l-1.625 0l0 -0.84375l1.640625 -0.671875l0.6875 -2.484375l1.046875 0l0 2.65625l3.34375 0l0 1.34375l-3.34375 0l0 6.71875q0 1.078125 0.484375 1.609375q0.5 0.53125 1.328125 0.53125zm8.18045 -10.390625q2.046875 0 3.03125 0.921875q0.984375 0.90625 0.984375 2.90625l0 7.765625l-1.25 0l-0.34375 -1.6875l-0.078125 0q-0.484375 0.625 -1.0 1.046875q-0.515625 0.421875 -1.203125 0.640625q-0.6875 0.203125 -1.671875 0.203125q-1.046875 0 -1.859375 -0.359375q-0.796875 -0.359375 -1.265625 -1.09375q-0.453125 -0.75 -0.453125 -1.890625q0 -1.703125 1.34375 -2.609375q1.359375 -0.921875 4.125 -1.015625l1.96875 -0.078125l0 -0.703125q0 -1.46875 -0.640625 -2.0625q-0.625 -0.59375 -1.78125 -0.59375q-0.890625 0 -1.703125 0.265625q-0.8125 0.25 -1.546875 0.609375l-0.53125 -1.3125q0.765625 -0.390625 1.765625 -0.671875q1.0 -0.28125 2.109375 -0.28125zm2.3125 5.96875l-1.734375 0.078125q-2.140625 0.078125 -3.015625 0.703125q-0.875 0.609375 -0.875 1.734375q0 0.96875 0.59375 1.4375q0.59375 0.46875 1.578125 0.46875q1.515625 0 2.484375 -0.84375q0.96875 -0.84375 0.96875 -2.53125l0 -1.046875zm18.188446 2.5q0 1.09375 -0.546875 1.84375q-0.546875 0.734375 -1.5625 1.109375q-1.015625 0.375 -2.421875 0.375q-1.1875 0 -2.0625 -0.1875q-0.875 -0.1875 -1.53125 -0.53125l0 -1.59375q0.6875 0.34375 1.65625 0.625q0.96875 0.28125 1.984375 0.28125q1.484375 0 2.140625 -0.46875q0.671875 -0.484375 0.671875 -1.3125q0 -0.46875 -0.265625 -0.828125q-0.265625 -0.359375 -0.890625 -0.6875q-0.625 -0.34375 -1.734375 -0.75q-1.09375 -0.421875 -1.890625 -0.828125q-0.796875 -0.40625 -1.234375 -1.0q-0.421875 -0.59375 -0.421875 -1.546875q0 -1.453125 1.171875 -2.21875q1.171875 -0.78125 3.078125 -0.78125q1.03125 0 1.921875 0.203125q0.90625 0.203125 1.6875 0.546875l-0.578125 1.390625q-0.703125 -0.3125 -1.515625 -0.515625q-0.796875 -0.203125 -1.625 -0.203125q-1.203125 0 -1.84375 0.390625q-0.640625 0.390625 -0.640625 1.078125q0 0.53125 0.296875 0.875q0.296875 0.34375 0.953125 0.65625q0.65625 0.296875 1.734375 0.703125q1.0625 0.390625 1.84375 0.8125q0.78125 0.421875 1.203125 1.03125q0.421875 0.59375 0.421875 1.53125zm6.4766846 1.921875q0.421875 0 0.859375 -0.078125q0.453125 -0.078125 0.734375 -0.171875l0 1.34375q-0.296875 0.125 -0.84375 0.21875q-0.53125 0.09375 -1.03125 0.09375q-0.90625 0 -1.65625 -0.3125q-0.734375 -0.3125 -1.1875 -1.078125q-0.4375 -0.765625 -0.4375 -2.109375l0 -6.765625l-1.625 0l0 -0.84375l1.640625 -0.671875l0.6875 -2.484375l1.046875 0l0 2.65625l3.34375 0l0 1.34375l-3.34375 0l0 6.71875q0 1.078125 0.484375 1.609375q0.5 0.53125 1.328125 0.53125zm9.102325 -10.421875q0.34375 0 0.71875 0.046875q0.375 0.03125 0.65625 0.09375l-0.21875 1.59375q-0.28125 -0.0625 -0.625 -0.109375q-0.34375 -0.046875 -0.640625 -0.046875q-0.6875 0 -1.296875 0.28125q-0.609375 0.28125 -1.078125 0.796875q-0.453125 0.515625 -0.71875 1.234375q-0.25 0.71875 -0.25 1.609375l0 6.125l-1.734375 0l0 -11.40625l1.4375 0l0.1875 2.09375l0.0625 0q0.359375 -0.640625 0.859375 -1.15625q0.5 -0.53125 1.15625 -0.84375q0.671875 -0.3125 1.484375 -0.3125zm12.950989 0.21875l0 11.40625l-1.421875 0l-0.25 -1.609375l-0.09375 0q-0.34375 0.59375 -0.90625 1.0q-0.5625 0.40625 -1.265625 0.609375q-0.703125 0.203125 -1.5 0.203125q-1.359375 0 -2.28125 -0.4375q-0.90625 -0.4375 -1.375 -1.34375q-0.453125 -0.921875 -0.453125 -2.359375l0 -7.46875l1.75 0l0 7.34375q0 1.421875 0.640625 2.125q0.640625 0.703125 1.96875 0.703125q1.265625 0 2.015625 -0.46875q0.765625 -0.484375 1.09375 -1.40625q0.34375 -0.9375 0.34375 -2.296875l0 -6.0l1.734375 0zm8.220764 11.609375q-1.53125 0 -2.71875 -0.625q-1.171875 -0.640625 -1.828125 -1.9375q-0.65625 -1.3125 -0.65625 -3.28125q0 -2.078125 0.6875 -3.390625q0.703125 -1.328125 1.921875 -1.953125q1.21875 -0.640625 2.765625 -0.640625q0.859375 0 1.65625 0.171875q0.796875 0.171875 1.296875 0.4375l-0.515625 1.4375q-0.515625 -0.203125 -1.203125 -0.359375q-0.6875 -0.171875 -1.28125 -0.171875q-1.1875 0 -1.96875 0.515625q-0.78125 0.5 -1.171875 1.5q-0.390625 0.984375 -0.390625 2.421875q0 1.390625 0.375 2.375q0.375 0.96875 1.125 1.484375q0.765625 0.515625 1.90625 0.515625q0.90625 0 1.625 -0.1875q0.734375 -0.1875 1.328125 -0.453125l0 1.546875q-0.578125 0.28125 -1.28125 0.4375q-0.703125 0.15625 -1.671875 0.15625zm9.341278 -1.40625q0.421875 0 0.859375 -0.078125q0.453125 -0.078125 0.734375 -0.171875l0 1.34375q-0.296875 0.125 -0.84375 0.21875q-0.53125 0.09375 -1.03125 0.09375q-0.90625 0 -1.65625 -0.3125q-0.734375 -0.3125 -1.1875 -1.078125q-0.4375 -0.765625 -0.4375 -2.109375l0 -6.765625l-1.625 0l0 -0.84375l1.640625 -0.671875l0.6875 -2.484375l1.046875 0l0 2.65625l3.34375 0l0 1.34375l-3.34375 0l0 6.71875q0 1.078125 0.484375 1.609375q0.5 0.53125 1.328125 0.53125zm13.33667 -10.203125l0 11.40625l-1.421875 0l-0.25 -1.609375l-0.09375 0q-0.34375 0.59375 -0.90625 1.0q-0.5625 0.40625 -1.265625 0.609375q-0.703125 0.203125 -1.5 0.203125q-1.359375 0 -2.28125 -0.4375q-0.90625 -0.4375 -1.375 -1.34375q-0.453125 -0.921875 -0.453125 -2.359375l0 -7.46875l1.75 0l0 7.34375q0 1.421875 0.640625 2.125q0.640625 0.703125 1.96875 0.703125q1.265625 0 2.015625 -0.46875q0.765625 -0.484375 1.09375 -1.40625q0.34375 -0.9375 0.34375 -2.296875l0 -6.0l1.734375 0zm8.845764 -0.21875q0.34375 0 0.71875 0.046875q0.375 0.03125 0.65625 0.09375l-0.21875 1.59375q-0.28125 -0.0625 -0.625 -0.109375q-0.34375 -0.046875 -0.640625 -0.046875q-0.6875 0 -1.296875 0.28125q-0.609375 0.28125 -1.078125 0.796875q-0.453125 0.515625 -0.71875 1.234375q-0.25 0.71875 -0.25 1.609375l0 6.125l-1.734375 0l0 -11.40625l1.4375 0l0.1875 2.09375l0.0625 0q0.359375 -0.640625 0.859375 -1.15625q0.5 -0.53125 1.15625 -0.84375q0.671875 -0.3125 1.484375 -0.3125zm7.9197693 0q1.453125 0 2.5 0.65625q1.046875 0.640625 1.59375 1.796875q0.546875 1.15625 0.546875 2.71875l0 1.0625l-7.875 0q0.03125 2.015625 1.0 3.078125q0.96875 1.046875 2.71875 1.046875q1.09375 0 1.921875 -0.203125q0.828125 -0.203125 1.734375 -0.578125l0 1.515625q-0.875 0.390625 -1.71875 0.5625q-0.84375 0.171875 -2.0 0.171875q-1.65625 0 -2.875 -0.671875q-1.21875 -0.671875 -1.90625 -1.96875q-0.671875 -1.296875 -0.671875 -3.1875q0 -1.84375 0.609375 -3.1875q0.625 -1.359375 1.75 -2.078125q1.140625 -0.734375 2.671875 -0.734375zm-0.015625 1.421875q-1.390625 0 -2.21875 0.90625q-0.8125 0.90625 -0.96875 2.53125l6.03125 0q0 -1.03125 -0.3125 -1.796875q-0.3125 -0.78125 -0.9375 -1.203125q-0.625 -0.4375 -1.59375 -0.4375zm14.976227 7.078125q0 1.09375 -0.546875 1.84375q-0.546875 0.734375 -1.5625 1.109375q-1.015625 0.375 -2.421875 0.375q-1.1875 0 -2.0625 -0.1875q-0.875 -0.1875 -1.53125 -0.53125l0 -1.59375q0.6875 0.34375 1.65625 0.625q0.96875 0.28125 1.984375 0.28125q1.484375 0 2.140625 -0.46875q0.671875 -0.484375 0.671875 -1.3125q0 -0.46875 -0.265625 -0.828125q-0.265625 -0.359375 -0.890625 -0.6875q-0.625 -0.34375 -1.734375 -0.75q-1.09375 -0.421875 -1.890625 -0.828125q-0.796875 -0.40625 -1.234375 -1.0q-0.421875 -0.59375 -0.421875 -1.546875q0 -1.453125 1.171875 -2.21875q1.171875 -0.78125 3.078125 -0.78125q1.03125 0 1.921875 0.203125q0.90625 0.203125 1.6875 0.546875l-0.578125 1.390625q-0.703125 -0.3125 -1.515625 -0.515625q-0.796875 -0.203125 -1.625 -0.203125q-1.203125 0 -1.84375 0.390625q-0.640625 0.390625 -0.640625 1.078125q0 0.53125 0.296875 0.875q0.296875 0.34375 0.953125 0.65625q0.65625 0.296875 1.734375 0.703125q1.0625 0.390625 1.84375 0.8125q0.78125 0.421875 1.203125 1.03125q0.421875 0.59375 0.421875 1.53125z" fill-rule="nonzero"/><path fill="#000000" fill-opacity="0.0" d="m157.4437 86.9844l175.43307 51.90551" fill-rule="evenodd"/><path stroke="#595959" stroke-width="1.0" stroke-linejoin="round" stroke-linecap="butt" d="m157.4437 86.9844l169.67963 50.20324" fill-rule="evenodd"/><path fill="#595959" stroke="#595959" stroke-width="1.0" stroke-linecap="butt" d="m326.6547 138.77148l4.8202515 -0.29634094l-3.8830261 -2.8713837z" fill-rule="evenodd"/><path fill="#000000" fill-opacity="0.0" d="m234.24672 82.191605l118.77165 0l0 29.574799l-118.77165 0z" fill-rule="evenodd"/><path fill="#595959" d="m265.33102 103.699005l-1.46875 0l0 -9.4375q0 -0.53125 0 -0.921875q0 -0.390625 0.015625 -0.703125q0.015625 -0.328125 0.046875 -0.671875q-0.28125 0.296875 -0.53125 0.5q-0.25 0.203125 -0.609375 0.5l-1.515625 1.21875l-0.796875 -1.03125l3.609375 -2.765625l1.25 0l0 13.3125zm5.4797363 -0.953125q0 -0.625 0.3125 -0.890625q0.3125 -0.28125 0.765625 -0.28125q0.453125 0 0.765625 0.28125q0.328125 0.265625 0.328125 0.890625q0 0.640625 -0.328125 0.921875q-0.3125 0.28125 -0.765625 0.28125q-0.453125 0 -0.765625 -0.28125q-0.3125 -0.28125 -0.3125 -0.921875z" fill-rule="nonzero"/><path fill="#595959" d="m306.02417 103.699005l-4.46875 -11.78125l-0.0625 0q0.03125 0.359375 0.046875 0.90625q0.03125 0.53125 0.046875 1.171875q0.03125 0.625 0.03125 1.28125l0 8.421875l-1.4375 0l0 -13.3125l2.296875 0l4.203125 11.078125l0.078125 0l4.28125 -11.078125l2.265625 0l0 13.3125l-1.53125 0l0 -8.53125q0 -0.59375 0.015625 -1.1875q0.03125 -0.59375 0.046875 -1.125q0.03125 -0.53125 0.0625 -0.921875l-0.078125 0l-4.515625 11.765625l-1.28125 0zm14.435944 -10.140625q1.78125 0 2.640625 0.796875q0.875 0.796875 0.875 2.5625l0 6.78125l-1.09375 0l-0.296875 -1.46875l-0.078125 0q-0.421875 0.546875 -0.875 0.921875q-0.453125 0.359375 -1.046875 0.546875q-0.59375 0.1875 -1.46875 0.1875q-0.90625 0 -1.609375 -0.3125q-0.703125 -0.328125 -1.109375 -0.96875q-0.40625 -0.65625 -0.40625 -1.640625q0 -1.5 1.171875 -2.296875q1.1875 -0.8125 3.609375 -0.875l1.734375 -0.078125l0 -0.609375q0 -1.296875 -0.5625 -1.8125q-0.546875 -0.515625 -1.5625 -0.515625q-0.78125 0 -1.5 0.234375q-0.703125 0.21875 -1.34375 0.53125l-0.46875 -1.15625q0.671875 -0.34375 1.546875 -0.578125q0.875 -0.25 1.84375 -0.25zm2.015625 5.21875l-1.515625 0.0625q-1.859375 0.078125 -2.625 0.625q-0.765625 0.53125 -0.765625 1.515625q0 0.84375 0.515625 1.265625q0.515625 0.40625 1.375 0.40625q1.328125 0 2.171875 -0.734375q0.84375 -0.734375 0.84375 -2.21875l0 -0.921875zm9.304108 -5.25q1.875 0 2.984375 1.296875q1.109375 1.28125 1.109375 3.859375q0 1.703125 -0.515625 2.859375q-0.5 1.15625 -1.4375 1.75q-0.921875 0.59375 -2.171875 0.59375q-0.796875 0 -1.40625 -0.203125q-0.59375 -0.21875 -1.03125 -0.578125q-0.421875 -0.359375 -0.703125 -0.765625l-0.109375 0q0.03125 0.34375 0.0625 0.84375q0.046875 0.5 0.046875 0.875l0 4.109375l-1.515625 0l0 -14.453125l1.25 0l0.203125 1.46875l0.0625 0q0.296875 -0.453125 0.71875 -0.828125q0.421875 -0.375 1.015625 -0.59375q0.609375 -0.234375 1.4375 -0.234375zm-0.265625 1.28125q-1.03125 0 -1.671875 0.40625q-0.625 0.390625 -0.921875 1.1875q-0.28125 0.796875 -0.3125 2.0l0 0.296875q0 1.265625 0.28125 2.140625q0.28125 0.875 0.921875 1.328125q0.640625 0.453125 1.734375 0.453125q0.921875 0 1.53125 -0.5q0.625 -0.5 0.921875 -1.390625q0.3125 -0.90625 0.3125 -2.0625q0 -1.78125 -0.6875 -2.8125q-0.6875 -1.046875 -2.109375 -1.046875z" fill-rule="nonzero"/><path fill="#000000" fill-opacity="0.0" d="m360.0 249.51181l233.17047 0l6.829529 6.829529l0 34.14685l-240.0 0z" fill-rule="evenodd"/><path stroke="#595959" stroke-width="1.0" stroke-linejoin="round" stroke-linecap="butt" d="m360.0 249.51181l233.17047 0l6.829529 6.829529l0 34.14685l-240.0 0z" fill-rule="evenodd"/><path fill="#000000" d="m374.38098 279.18738l0 -15.21875l1.78125 0l0 15.21875l-1.78125 0zm11.113129 -11.625q2.03125 0 3.0625 1.0q1.046875 0.984375 1.046875 3.1875l0 7.4375l-1.703125 0l0 -7.328125q0 -1.421875 -0.65625 -2.125q-0.65625 -0.71875 -2.0 -0.71875q-1.890625 0 -2.671875 1.078125q-0.765625 1.078125 -0.765625 3.109375l0 5.984375l-1.71875 0l0 -11.40625l1.390625 0l0.265625 1.640625l0.09375 0q0.359375 -0.609375 0.921875 -1.015625q0.5625 -0.40625 1.25 -0.625q0.703125 -0.21875 1.484375 -0.21875zm11.736389 11.828125q-2.171875 0 -3.4375 -1.46875q-1.265625 -1.484375 -1.265625 -4.40625q0 -2.9375 1.28125 -4.4375q1.296875 -1.515625 3.453125 -1.515625q0.90625 0 1.578125 0.25q0.671875 0.234375 1.15625 0.640625q0.5 0.390625 0.828125 0.90625l0.125 0q-0.03125 -0.328125 -0.078125 -0.890625q-0.046875 -0.5625 -0.046875 -0.90625l0 -4.578125l1.734375 0l0 16.203125l-1.390625 0l-0.265625 -1.625l-0.078125 0q-0.3125 0.515625 -0.8125 0.9375q-0.5 0.40625 -1.1875 0.65625q-0.671875 0.234375 -1.59375 0.234375zm0.265625 -1.4375q1.828125 0 2.59375 -1.03125q0.765625 -1.046875 0.765625 -3.09375l0 -0.3125q0 -2.1875 -0.734375 -3.34375q-0.71875 -1.171875 -2.625 -1.171875q-1.59375 0 -2.390625 1.234375q-0.78125 1.21875 -0.78125 3.328125q0 2.109375 0.78125 3.25q0.78125 1.140625 2.390625 1.140625zm13.11142 -10.390625q1.453125 0 2.5 0.65625q1.046875 0.640625 1.59375 1.796875q0.546875 1.15625 0.546875 2.71875l0 1.0625l-7.875 0q0.03125 2.015625 1.0 3.078125q0.96875 1.046875 2.71875 1.046875q1.09375 0 1.921875 -0.203125q0.828125 -0.203125 1.734375 -0.578125l0 1.515625q-0.875 0.390625 -1.71875 0.5625q-0.84375 0.171875 -2.0 0.171875q-1.65625 0 -2.875 -0.671875q-1.21875 -0.671875 -1.90625 -1.96875q-0.671875 -1.296875 -0.671875 -3.1875q0 -1.84375 0.609375 -3.1875q0.625 -1.359375 1.75 -2.078125q1.140625 -0.734375 2.671875 -0.734375zm-0.015625 1.421875q-1.390625 0 -2.21875 0.90625q-0.8125 0.90625 -0.96875 2.53125l6.03125 0q0 -1.03125 -0.3125 -1.796875q-0.3125 -0.78125 -0.9375 -1.203125q-0.625 -0.4375 -1.59375 -0.4375zm10.319977 4.359375l-3.953125 -5.5625l1.984375 0l3.0 4.390625l3.0 -4.390625l1.96875 0l-3.953125 5.5625l4.15625 5.84375l-1.96875 0l-3.203125 -4.65625l-3.21875 4.65625l-1.953125 0l4.140625 -5.84375zm18.048004 6.046875q-2.171875 0 -3.4375 -1.46875q-1.265625 -1.484375 -1.265625 -4.40625q0 -2.9375 1.28125 -4.4375q1.296875 -1.515625 3.453125 -1.515625q0.90625 0 1.578125 0.25q0.671875 0.234375 1.15625 0.640625q0.5 0.390625 0.828125 0.90625l0.125 0q-0.03125 -0.328125 -0.078125 -0.890625q-0.046875 -0.5625 -0.046875 -0.90625l0 -4.578125l1.734375 0l0 16.203125l-1.390625 0l-0.265625 -1.625l-0.078125 0q-0.3125 0.515625 -0.8125 0.9375q-0.5 0.40625 -1.1875 0.65625q-0.671875 0.234375 -1.59375 0.234375zm0.265625 -1.4375q1.828125 0 2.59375 -1.03125q0.765625 -1.046875 0.765625 -3.09375l0 -0.3125q0 -2.1875 -0.734375 -3.34375q-0.71875 -1.171875 -2.625 -1.171875q-1.59375 0 -2.390625 1.234375q-0.78125 1.21875 -0.78125 3.328125q0 2.109375 0.78125 3.25q0.78125 1.140625 2.390625 1.140625zm12.986389 -10.359375q2.046875 0 3.03125 0.921875q0.984375 0.90625 0.984375 2.90625l0 7.765625l-1.25 0l-0.34375 -1.6875l-0.078125 0q-0.484375 0.625 -1.0 1.046875q-0.515625 0.421875 -1.203125 0.640625q-0.6875 0.203125 -1.671875 0.203125q-1.046875 0 -1.859375 -0.359375q-0.796875 -0.359375 -1.265625 -1.09375q-0.453125 -0.75 -0.453125 -1.890625q0 -1.703125 1.34375 -2.609375q1.359375 -0.921875 4.125 -1.015625l1.96875 -0.078125l0 -0.703125q0 -1.46875 -0.640625 -2.0625q-0.625 -0.59375 -1.78125 -0.59375q-0.890625 0 -1.703125 0.265625q-0.8125 0.25 -1.546875 0.609375l-0.53125 -1.3125q0.765625 -0.390625 1.765625 -0.671875q1.0 -0.28125 2.109375 -0.28125zm2.3125 5.96875l-1.734375 0.078125q-2.140625 0.078125 -3.015625 0.703125q-0.875 0.609375 -0.875 1.734375q0 0.96875 0.59375 1.4375q0.59375 0.46875 1.578125 0.46875q1.515625 0 2.484375 -0.84375q0.96875 -0.84375 0.96875 -2.53125l0 -1.046875zm8.960663 4.421875q0.421875 0 0.859375 -0.078125q0.453125 -0.078125 0.734375 -0.171875l0 1.34375q-0.296875 0.125 -0.84375 0.21875q-0.53125 0.09375 -1.03125 0.09375q-0.90625 0 -1.65625 -0.3125q-0.734375 -0.3125 -1.1875 -1.078125q-0.4375 -0.765625 -0.4375 -2.109375l0 -6.765625l-1.625 0l0 -0.84375l1.640625 -0.671875l0.6875 -2.484375l1.046875 0l0 2.65625l3.34375 0l0 1.34375l-3.34375 0l0 6.71875q0 1.078125 0.484375 1.609375q0.5 0.53125 1.328125 0.53125zm8.18045 -10.390625q2.046875 0 3.03125 0.921875q0.984375 0.90625 0.984375 2.90625l0 7.765625l-1.25 0l-0.34375 -1.6875l-0.078125 0q-0.484375 0.625 -1.0 1.046875q-0.515625 0.421875 -1.203125 0.640625q-0.6875 0.203125 -1.671875 0.203125q-1.046875 0 -1.859375 -0.359375q-0.796875 -0.359375 -1.265625 -1.09375q-0.453125 -0.75 -0.453125 -1.890625q0 -1.703125 1.34375 -2.609375q1.359375 -0.921875 4.125 -1.015625l1.96875 -0.078125l0 -0.703125q0 -1.46875 -0.640625 -2.0625q-0.625 -0.59375 -1.78125 -0.59375q-0.890625 0 -1.703125 0.265625q-0.8125 0.25 -1.546875 0.609375l-0.53125 -1.3125q0.765625 -0.390625 1.765625 -0.671875q1.0 -0.28125 2.109375 -0.28125zm2.3125 5.96875l-1.734375 0.078125q-2.140625 0.078125 -3.015625 0.703125q-0.875 0.609375 -0.875 1.734375q0 0.96875 0.59375 1.4375q0.59375 0.46875 1.578125 0.46875q1.515625 0 2.484375 -0.84375q0.96875 -0.84375 0.96875 -2.53125l0 -1.046875zm18.188446 2.5q0 1.09375 -0.546875 1.84375q-0.546875 0.734375 -1.5625 1.109375q-1.015625 0.375 -2.421875 0.375q-1.1875 0 -2.0625 -0.1875q-0.875 -0.1875 -1.53125 -0.53125l0 -1.59375q0.6875 0.34375 1.65625 0.625q0.96875 0.28125 1.984375 0.28125q1.484375 0 2.140625 -0.46875q0.671875 -0.484375 0.671875 -1.3125q0 -0.46875 -0.265625 -0.828125q-0.265625 -0.359375 -0.890625 -0.6875q-0.625 -0.34375 -1.734375 -0.75q-1.09375 -0.421875 -1.890625 -0.828125q-0.796875 -0.40625 -1.234375 -1.0q-0.421875 -0.59375 -0.421875 -1.546875q0 -1.453125 1.171875 -2.21875q1.171875 -0.78125 3.078125 -0.78125q1.03125 0 1.921875 0.203125q0.90625 0.203125 1.6875 0.546875l-0.578125 1.390625q-0.703125 -0.3125 -1.515625 -0.515625q-0.796875 -0.203125 -1.625 -0.203125q-1.203125 0 -1.84375 0.390625q-0.640625 0.390625 -0.640625 1.078125q0 0.53125 0.296875 0.875q0.296875 0.34375 0.953125 0.65625q0.65625 0.296875 1.734375 0.703125q1.0625 0.390625 1.84375 0.8125q0.78125 0.421875 1.203125 1.03125q0.421875 0.59375 0.421875 1.53125zm6.4766846 1.921875q0.421875 0 0.859375 -0.078125q0.453125 -0.078125 0.734375 -0.171875l0 1.34375q-0.296875 0.125 -0.84375 0.21875q-0.53125 0.09375 -1.03125 0.09375q-0.90625 0 -1.65625 -0.3125q-0.734375 -0.3125 -1.1875 -1.078125q-0.4375 -0.765625 -0.4375 -2.109375l0 -6.765625l-1.625 0l0 -0.84375l1.640625 -0.671875l0.6875 -2.484375l1.046875 0l0 2.65625l3.34375 0l0 1.34375l-3.34375 0l0 6.71875q0 1.078125 0.484375 1.609375q0.5 0.53125 1.328125 0.53125zm9.102325 -10.421875q0.34375 0 0.71875 0.046875q0.375 0.03125 0.65625 0.09375l-0.21875 1.59375q-0.28125 -0.0625 -0.625 -0.109375q-0.34375 -0.046875 -0.640625 -0.046875q-0.6875 0 -1.296875 0.28125q-0.609375 0.28125 -1.078125 0.796875q-0.453125 0.515625 -0.71875 1.234375q-0.25 0.71875 -0.25 1.609375l0 6.125l-1.734375 0l0 -11.40625l1.4375 0l0.1875 2.09375l0.0625 0q0.359375 -0.640625 0.859375 -1.15625q0.5 -0.53125 1.15625 -0.84375q0.671875 -0.3125 1.484375 -0.3125zm12.950989 0.21875l0 11.40625l-1.421875 0l-0.25 -1.609375l-0.09375 0q-0.34375 0.59375 -0.90625 1.0q-0.5625 0.40625 -1.265625 0.609375q-0.703125 0.203125 -1.5 0.203125q-1.359375 0 -2.28125 -0.4375q-0.90625 -0.4375 -1.375 -1.34375q-0.453125 -0.921875 -0.453125 -2.359375l0 -7.46875l1.75 0l0 7.34375q0 1.421875 0.640625 2.125q0.640625 0.703125 1.96875 0.703125q1.265625 0 2.015625 -0.46875q0.765625 -0.484375 1.09375 -1.40625q0.34375 -0.9375 0.34375 -2.296875l0 -6.0l1.734375 0zm8.220764 11.609375q-1.53125 0 -2.71875 -0.625q-1.171875 -0.640625 -1.828125 -1.9375q-0.65625 -1.3125 -0.65625 -3.28125q0 -2.078125 0.6875 -3.390625q0.703125 -1.328125 1.921875 -1.953125q1.21875 -0.640625 2.765625 -0.640625q0.859375 0 1.65625 0.171875q0.796875 0.171875 1.296875 0.4375l-0.515625 1.4375q-0.515625 -0.203125 -1.203125 -0.359375q-0.6875 -0.171875 -1.28125 -0.171875q-1.1875 0 -1.96875 0.515625q-0.78125 0.5 -1.171875 1.5q-0.390625 0.984375 -0.390625 2.421875q0 1.390625 0.375 2.375q0.375 0.96875 1.125 1.484375q0.765625 0.515625 1.90625 0.515625q0.90625 0 1.625 -0.1875q0.734375 -0.1875 1.328125 -0.453125l0 1.546875q-0.578125 0.28125 -1.28125 0.4375q-0.703125 0.15625 -1.671875 0.15625zm9.341248 -1.40625q0.421875 0 0.859375 -0.078125q0.453125 -0.078125 0.734375 -0.171875l0 1.34375q-0.296875 0.125 -0.84375 0.21875q-0.53125 0.09375 -1.03125 0.09375q-0.90625 0 -1.65625 -0.3125q-0.734375 -0.3125 -1.1875 -1.078125q-0.4375 -0.765625 -0.4375 -2.109375l0 -6.765625l-1.625 0l0 -0.84375l1.640625 -0.671875l0.6875 -2.484375l1.046875 0l0 2.65625l3.34375 0l0 1.34375l-3.34375 0l0 6.71875q0 1.078125 0.484375 1.609375q0.5 0.53125 1.328125 0.53125zm13.336731 -10.203125l0 11.40625l-1.421875 0l-0.25 -1.609375l-0.09375 0q-0.34375 0.59375 -0.90625 1.0q-0.5625 0.40625 -1.265625 0.609375q-0.703125 0.203125 -1.5 0.203125q-1.359375 0 -2.28125 -0.4375q-0.90625 -0.4375 -1.375 -1.34375q-0.453125 -0.921875 -0.453125 -2.359375l0 -7.46875l1.75 0l0 7.34375q0 1.421875 0.640625 2.125q0.640625 0.703125 1.96875 0.703125q1.265625 0 2.015625 -0.46875q0.765625 -0.484375 1.09375 -1.40625q0.34375 -0.9375 0.34375 -2.296875l0 -6.0l1.734375 0zm8.845703 -0.21875q0.34375 0 0.71875 0.046875q0.375 0.03125 0.65625 0.09375l-0.21875 1.59375q-0.28125 -0.0625 -0.625 -0.109375q-0.34375 -0.046875 -0.640625 -0.046875q-0.6875 0 -1.296875 0.28125q-0.609375 0.28125 -1.078125 0.796875q-0.453125 0.515625 -0.71875 1.234375q-0.25 0.71875 -0.25 1.609375l0 6.125l-1.734375 0l0 -11.40625l1.4375 0l0.1875 2.09375l0.0625 0q0.359375 -0.640625 0.859375 -1.15625q0.5 -0.53125 1.15625 -0.84375q0.671875 -0.3125 1.484375 -0.3125zm7.9198 0q1.453125 0 2.5 0.65625q1.046875 0.640625 1.59375 1.796875q0.546875 1.15625 0.546875 2.71875l0 1.0625l-7.875 0q0.03125 2.015625 1.0 3.078125q0.96875 1.046875 2.71875 1.046875q1.09375 0 1.921875 -0.203125q0.828125 -0.203125 1.734375 -0.578125l0 1.515625q-0.875 0.390625 -1.71875 0.5625q-0.84375 0.171875 -2.0 0.171875q-1.65625 0 -2.875 -0.671875q-1.21875 -0.671875 -1.90625 -1.96875q-0.671875 -1.296875 -0.671875 -3.1875q0 -1.84375 0.609375 -3.1875q0.625 -1.359375 1.75 -2.078125q1.140625 -0.734375 2.671875 -0.734375zm-0.015625 1.421875q-1.390625 0 -2.21875 0.90625q-0.8125 0.90625 -0.96875 2.53125l6.03125 0q0 -1.03125 -0.3125 -1.796875q-0.3125 -0.78125 -0.9375 -1.203125q-0.625 -0.4375 -1.59375 -0.4375zm14.976196 7.078125q0 1.09375 -0.546875 1.84375q-0.546875 0.734375 -1.5625 1.109375q-1.015625 0.375 -2.421875 0.375q-1.1875 0 -2.0625 -0.1875q-0.875 -0.1875 -1.53125 -0.53125l0 -1.59375q0.6875 0.34375 1.65625 0.625q0.96875 0.28125 1.984375 0.28125q1.484375 0 2.140625 -0.46875q0.671875 -0.484375 0.671875 -1.3125q0 -0.46875 -0.265625 -0.828125q-0.265625 -0.359375 -0.890625 -0.6875q-0.625 -0.34375 -1.734375 -0.75q-1.09375 -0.421875 -1.890625 -0.828125q-0.796875 -0.40625 -1.234375 -1.0q-0.421875 -0.59375 -0.421875 -1.546875q0 -1.453125 1.171875 -2.21875q1.171875 -0.78125 3.078125 -0.78125q1.03125 0 1.921875 0.203125q0.90625 0.203125 1.6875 0.546875l-0.578125 1.390625q-0.703125 -0.3125 -1.515625 -0.515625q-0.796875 -0.203125 -1.625 -0.203125q-1.203125 0 -1.84375 0.390625q-0.640625 0.390625 -0.640625 1.078125q0 0.53125 0.296875 0.875q0.296875 0.34375 0.953125 0.65625q0.65625 0.296875 1.734375 0.703125q1.0625 0.390625 1.84375 0.8125q0.78125 0.421875 1.203125 1.03125q0.421875 0.59375 0.421875 1.53125z" fill-rule="nonzero"/><path fill="#000000" fill-opacity="0.0" d="m332.86877 179.8819l147.1181 69.63779" fill-rule="evenodd"/><path stroke="#595959" stroke-width="1.0" stroke-linejoin="round" stroke-linecap="butt" d="m332.86877 179.8819l141.69495 67.07077" fill-rule="evenodd"/><path fill="#595959" stroke="#595959" stroke-width="1.0" stroke-linecap="butt" d="m473.85706 248.44559l4.8084717 0.44863892l-3.395111 -3.434494z" fill-rule="evenodd"/><path fill="#000000" fill-opacity="0.0" d="m365.7533 199.90945l147.55902 0l0 29.574799l-147.55902 0z" fill-rule="evenodd"/><path fill="#595959" d="m438.8124 221.41685l-8.71875 0l0 -1.265625l3.5625 -3.609375q0.984375 -1.015625 1.65625 -1.796875q0.6875 -0.78125 1.046875 -1.53125q0.359375 -0.765625 0.359375 -1.6875q0 -1.125 -0.671875 -1.71875q-0.671875 -0.59375 -1.765625 -0.59375q-0.953125 0 -1.703125 0.328125q-0.734375 0.328125 -1.5 0.921875l-0.8125 -1.015625q0.53125 -0.453125 1.15625 -0.796875q0.625 -0.34375 1.328125 -0.546875q0.71875 -0.203125 1.53125 -0.203125q1.234375 0 2.125 0.4375q0.890625 0.421875 1.375 1.21875q0.484375 0.796875 0.484375 1.890625q0 1.046875 -0.421875 1.953125q-0.40625 0.90625 -1.171875 1.796875q-0.75 0.890625 -1.765625 1.875l-2.890625 2.890625l0 0.0625l6.796875 0l0 1.390625zm2.3859863 -0.953125q0 -0.625 0.3125 -0.890625q0.3125 -0.28125 0.765625 -0.28125q0.453125 0 0.765625 0.28125q0.328125 0.265625 0.328125 0.890625q0 0.640625 -0.328125 0.921875q-0.3125 0.28125 -0.765625 0.28125q-0.453125 0 -0.765625 -0.28125q-0.3125 -0.28125 -0.3125 -0.921875zm10.215912 0.953125l0 -13.3125l1.546875 0l0 13.3125l-1.546875 0zm9.710632 -10.171875q1.765625 0 2.671875 0.875q0.921875 0.875 0.921875 2.796875l0 6.5l-1.5 0l0 -6.40625q0 -1.25 -0.578125 -1.859375q-0.5625 -0.625 -1.734375 -0.625q-1.65625 0 -2.328125 0.9375q-0.671875 0.9375 -0.671875 2.71875l0 5.234375l-1.515625 0l0 -9.984375l1.21875 0l0.234375 1.4375l0.078125 0q0.3125 -0.53125 0.796875 -0.890625q0.5 -0.359375 1.109375 -0.546875q0.609375 -0.1875 1.296875 -0.1875zm10.254028 10.359375q-1.890625 0 -3.0 -1.296875q-1.109375 -1.296875 -1.109375 -3.84375q0 -2.578125 1.125 -3.890625q1.140625 -1.328125 3.015625 -1.328125q0.796875 0 1.390625 0.21875q0.59375 0.203125 1.015625 0.5625q0.421875 0.34375 0.71875 0.796875l0.109375 0q-0.03125 -0.28125 -0.078125 -0.765625q-0.03125 -0.5 -0.03125 -0.8125l0 -4.0l1.515625 0l0 14.171875l-1.21875 0l-0.234375 -1.421875l-0.0625 0q-0.28125 0.453125 -0.71875 0.8125q-0.421875 0.359375 -1.03125 0.578125q-0.59375 0.21875 -1.40625 0.21875zm0.25 -1.265625q1.59375 0 2.25 -0.90625q0.671875 -0.90625 0.671875 -2.703125l0 -0.28125q0 -1.90625 -0.640625 -2.921875q-0.625 -1.015625 -2.28125 -1.015625q-1.40625 0 -2.09375 1.078125q-0.6875 1.0625 -0.6875 2.90625q0 1.84375 0.6875 2.84375q0.6875 1.0 2.09375 1.0zm11.46106 -9.09375q1.28125 0 2.1875 0.578125q0.90625 0.5625 1.390625 1.578125q0.484375 1.015625 0.484375 2.375l0 0.9375l-6.890625 0q0.015625 1.75 0.859375 2.671875q0.859375 0.921875 2.390625 0.921875q0.953125 0 1.671875 -0.171875q0.734375 -0.171875 1.53125 -0.515625l0 1.328125q-0.765625 0.34375 -1.515625 0.5q-0.734375 0.15625 -1.75 0.15625q-1.4375 0 -2.515625 -0.59375q-1.0625 -0.59375 -1.65625 -1.71875q-0.59375 -1.140625 -0.59375 -2.796875q0 -1.609375 0.546875 -2.78125q0.546875 -1.1875 1.53125 -1.828125q0.984375 -0.640625 2.328125 -0.640625zm-0.015625 1.25q-1.21875 0 -1.9375 0.796875q-0.71875 0.78125 -0.859375 2.203125l5.296875 0q-0.015625 -0.890625 -0.28125 -1.5625q-0.265625 -0.6875 -0.8125 -1.0625q-0.546875 -0.375 -1.40625 -0.375zm9.022797 3.8125l-3.453125 -4.875l1.734375 0l2.625 3.84375l2.625 -3.84375l1.71875 0l-3.453125 4.875l3.640625 5.109375l-1.734375 0l-2.796875 -4.078125l-2.8125 4.078125l-1.703125 0l3.609375 -5.109375z" fill-rule="nonzero"/><path fill="#000000" fill-opacity="0.0" d="m513.3123 390.91864l137.26099 -51.905518l136.43982 51.905518z" fill-rule="evenodd"/><path stroke="#595959" stroke-width="1.0" stroke-linejoin="round" stroke-linecap="butt" d="m513.3123 390.91864l137.26099 -51.905518l136.43982 51.905518z" fill-rule="evenodd"/><path fill="#000000" d="m605.1916 384.86224l0 -13.359375l5.921875 0q1.78125 0 2.703125 0.359375q0.9375 0.359375 1.484375 1.28125q0.5625 0.90625 0.5625 2.015625q0 1.40625 -0.921875 2.390625q-0.921875 0.96875 -2.84375 1.234375q0.703125 0.34375 1.078125 0.671875q0.765625 0.703125 1.453125 1.765625l2.328125 3.640625l-2.21875 0l-1.765625 -2.78125q-0.78125 -1.203125 -1.28125 -1.828125q-0.5 -0.640625 -0.90625 -0.890625q-0.390625 -0.265625 -0.796875 -0.359375q-0.296875 -0.078125 -0.984375 -0.078125l-2.046875 0l0 5.9375l-1.765625 0zm1.765625 -7.453125l3.796875 0q1.21875 0 1.890625 -0.25q0.6875 -0.265625 1.046875 -0.8125q0.359375 -0.546875 0.359375 -1.1875q0 -0.953125 -0.6875 -1.5625q-0.6875 -0.609375 -2.1875 -0.609375l-4.21875 0l0 4.421875zm11.676086 7.453125l0 -13.359375l4.609375 0q1.546875 0 2.375 0.203125q1.140625 0.25 1.953125 0.953125q1.0625 0.890625 1.578125 2.28125q0.53125 1.390625 0.53125 3.171875q0 1.515625 -0.359375 2.703125q-0.359375 1.171875 -0.921875 1.9375q-0.546875 0.765625 -1.203125 1.21875q-0.65625 0.4375 -1.59375 0.671875q-0.9375 0.21875 -2.140625 0.21875l-4.828125 0zm1.765625 -1.578125l2.859375 0q1.3125 0 2.0625 -0.234375q0.75 -0.25 1.203125 -0.703125q0.625 -0.625 0.96875 -1.6875q0.359375 -1.0625 0.359375 -2.578125q0 -2.09375 -0.6875 -3.21875q-0.6875 -1.125 -1.671875 -1.5q-0.703125 -0.28125 -2.28125 -0.28125l-2.8125 0l0 10.203125zm11.801025 1.578125l0 -13.359375l9.015625 0l0 1.578125l-7.25 0l0 4.140625l6.265625 0l0 1.578125l-6.265625 0l0 6.0625l-1.765625 0zm19.860535 -1.46875l0.234375 1.453125q-0.6875 0.140625 -1.234375 0.140625q-0.890625 0 -1.390625 -0.28125q-0.484375 -0.28125 -0.6875 -0.734375q-0.203125 -0.46875 -0.203125 -1.9375l0 -5.578125l-1.203125 0l0 -1.265625l1.203125 0l0 -2.390625l1.625 -0.984375l0 3.375l1.65625 0l0 1.265625l-1.65625 0l0 5.671875q0 0.6875 0.078125 0.890625q0.09375 0.203125 0.28125 0.328125q0.203125 0.109375 0.578125 0.109375q0.265625 0 0.71875 -0.0625zm1.5895386 1.46875l0 -9.671875l1.46875 0l0 1.46875q0.5625 -1.03125 1.03125 -1.359375q0.484375 -0.328125 1.0625 -0.328125q0.828125 0 1.6875 0.53125l-0.5625 1.515625q-0.609375 -0.359375 -1.203125 -0.359375q-0.546875 0 -0.96875 0.328125q-0.421875 0.328125 -0.609375 0.890625q-0.28125 0.875 -0.28125 1.921875l0 5.0625l-1.625 0zm6.2283325 -11.46875l0 -1.890625l1.640625 0l0 1.890625l-1.640625 0zm0 11.46875l0 -9.671875l1.640625 0l0 9.671875l-1.640625 0zm4.1448364 3.703125l0 -13.375l1.484375 0l0 1.25q0.53125 -0.734375 1.1875 -1.09375q0.671875 -0.375 1.625 -0.375q1.234375 0 2.171875 0.640625q0.953125 0.625 1.4375 1.796875q0.484375 1.15625 0.484375 2.546875q0 1.484375 -0.53125 2.671875q-0.53125 1.1875 -1.546875 1.828125q-1.015625 0.625 -2.140625 0.625q-0.8125 0 -1.46875 -0.34375q-0.65625 -0.34375 -1.0625 -0.875l0 4.703125l-1.640625 0zm1.484375 -8.484375q0 1.859375 0.75 2.765625q0.765625 0.890625 1.828125 0.890625q1.09375 0 1.875 -0.921875q0.78125 -0.9375 0.78125 -2.875q0 -1.84375 -0.765625 -2.765625q-0.75 -0.921875 -1.8125 -0.921875q-1.046875 0 -1.859375 0.984375q-0.796875 0.96875 -0.796875 2.84375zm8.844421 4.78125l0 -13.359375l1.640625 0l0 13.359375l-1.640625 0zm10.816711 -3.109375l1.6875 0.203125q-0.40625 1.484375 -1.484375 2.3125q-1.078125 0.8125 -2.765625 0.8125q-2.125 0 -3.375 -1.296875q-1.234375 -1.3125 -1.234375 -3.671875q0 -2.453125 1.25 -3.796875q1.265625 -1.34375 3.265625 -1.34375q1.9375 0 3.15625 1.328125q1.234375 1.3125 1.234375 3.703125q0 0.15625 0 0.4375l-7.21875 0q0.09375 1.59375 0.90625 2.453125q0.8125 0.84375 2.015625 0.84375q0.90625 0 1.546875 -0.46875q0.640625 -0.484375 1.015625 -1.515625zm-5.390625 -2.65625l5.40625 0q-0.109375 -1.21875 -0.625 -1.828125q-0.78125 -0.953125 -2.03125 -0.953125q-1.125 0 -1.90625 0.765625q-0.765625 0.75 -0.84375 2.015625zm8.485107 2.875l1.625 -0.25q0.125 0.96875 0.75 1.5q0.625 0.515625 1.75 0.515625q1.125 0 1.671875 -0.453125q0.546875 -0.46875 0.546875 -1.09375q0 -0.546875 -0.484375 -0.875q-0.328125 -0.21875 -1.671875 -0.546875q-1.8125 -0.46875 -2.515625 -0.796875q-0.6875 -0.328125 -1.046875 -0.90625q-0.359375 -0.59375 -0.359375 -1.3125q0 -0.640625 0.296875 -1.1875q0.296875 -0.5625 0.8125 -0.921875q0.375 -0.28125 1.03125 -0.46875q0.671875 -0.203125 1.421875 -0.203125q1.140625 0 2.0 0.328125q0.859375 0.328125 1.265625 0.890625q0.421875 0.5625 0.578125 1.5l-1.609375 0.21875q-0.109375 -0.75 -0.640625 -1.171875q-0.515625 -0.421875 -1.46875 -0.421875q-1.140625 0 -1.625 0.375q-0.46875 0.375 -0.46875 0.875q0 0.3125 0.1875 0.578125q0.203125 0.265625 0.640625 0.4375q0.234375 0.09375 1.4375 0.421875q1.75 0.453125 2.4375 0.75q0.6875 0.296875 1.078125 0.859375q0.390625 0.5625 0.390625 1.40625q0 0.828125 -0.484375 1.546875q-0.46875 0.71875 -1.375 1.125q-0.90625 0.390625 -2.046875 0.390625q-1.875 0 -2.875 -0.78125q-0.984375 -0.78125 -1.25 -2.328125z" fill-rule="nonzero"/><path fill="#000000" fill-opacity="0.0" d="m484.0971 302.2047l185.32281 0l0 29.57483l-185.32281 0z" fill-rule="evenodd"/><path fill="#595959" d="m554.2102 313.49338q0 0.90625 -0.34375 1.5625q-0.34375 0.65625 -0.96875 1.078125q-0.625 0.40625 -1.453125 0.5625l0 0.078125q1.578125 0.203125 2.375 1.03125q0.796875 0.8125 0.796875 2.140625q0 1.15625 -0.546875 2.046875q-0.53125 0.890625 -1.65625 1.40625q-1.109375 0.5 -2.84375 0.5q-1.0625 0 -1.96875 -0.171875q-0.890625 -0.171875 -1.703125 -0.5625l0 -1.421875q0.828125 0.40625 1.796875 0.640625q0.96875 0.234375 1.890625 0.234375q1.8125 0 2.625 -0.71875q0.8125 -0.734375 0.8125 -1.984375q0 -0.875 -0.453125 -1.40625q-0.453125 -0.53125 -1.296875 -0.78125q-0.828125 -0.25 -2.015625 -0.25l-1.328125 0l0 -1.296875l1.328125 0q1.09375 0 1.84375 -0.3125q0.765625 -0.3125 1.15625 -0.890625q0.390625 -0.578125 0.390625 -1.375q0 -1.015625 -0.671875 -1.5625q-0.671875 -0.546875 -1.828125 -0.546875q-0.71875 0 -1.296875 0.140625q-0.578125 0.140625 -1.09375 0.40625q-0.5 0.25 -1.015625 0.578125l-0.765625 -1.03125q0.734375 -0.5625 1.78125 -0.96875q1.046875 -0.421875 2.375 -0.421875q2.03125 0 3.046875 0.9375q1.03125 0.921875 1.03125 2.359375zm2.8703613 9.265625q0 -0.625 0.3125 -0.890625q0.3125 -0.28125 0.765625 -0.28125q0.453125 0 0.765625 0.28125q0.328125 0.265625 0.328125 0.890625q0 0.640625 -0.328125 0.921875q-0.3125 0.28125 -0.765625 0.28125q-0.453125 0 -0.765625 -0.28125q-0.3125 -0.28125 -0.3125 -0.921875zm14.294006 0.953125l-1.546875 0l0 -11.953125l-4.203125 0l0 -1.359375l9.921875 0l0 1.359375l-4.171875 0l0 11.953125zm10.494263 -10.171875q0.3125 0 0.640625 0.03125q0.328125 0.03125 0.578125 0.09375l-0.1875 1.40625q-0.25 -0.0625 -0.5625 -0.09375q-0.296875 -0.046875 -0.546875 -0.046875q-0.609375 0 -1.140625 0.25q-0.53125 0.234375 -0.9375 0.6875q-0.390625 0.453125 -0.625 1.09375q-0.234375 0.625 -0.234375 1.390625l0 5.359375l-1.515625 0l0 -9.984375l1.25 0l0.171875 1.84375l0.0625 0q0.3125 -0.5625 0.75 -1.015625q0.4375 -0.46875 1.015625 -0.734375q0.578125 -0.28125 1.28125 -0.28125zm6.827759 0.03125q1.78125 0 2.640625 0.796875q0.875 0.796875 0.875 2.5625l0 6.78125l-1.09375 0l-0.296875 -1.46875l-0.078125 0q-0.421875 0.546875 -0.875 0.921875q-0.453125 0.359375 -1.046875 0.546875q-0.59375 0.1875 -1.46875 0.1875q-0.90625 0 -1.609375 -0.3125q-0.703125 -0.328125 -1.109375 -0.96875q-0.40625 -0.65625 -0.40625 -1.640625q0 -1.5 1.171875 -2.296875q1.1875 -0.8125 3.609375 -0.875l1.734375 -0.078125l0 -0.609375q0 -1.296875 -0.5625 -1.8125q-0.546875 -0.515625 -1.5625 -0.515625q-0.78125 0 -1.5 0.234375q-0.703125 0.21875 -1.34375 0.53125l-0.46875 -1.15625q0.671875 -0.34375 1.546875 -0.578125q0.875 -0.25 1.84375 -0.25zm2.015625 5.21875l-1.515625 0.0625q-1.859375 0.078125 -2.625 0.625q-0.765625 0.53125 -0.765625 1.515625q0 0.84375 0.515625 1.265625q0.515625 0.40625 1.375 0.40625q1.328125 0 2.171875 -0.734375q0.84375 -0.734375 0.84375 -2.21875l0 -0.921875zm9.351013 -5.25q1.765625 0 2.671875 0.875q0.921875 0.875 0.921875 2.796875l0 6.5l-1.5 0l0 -6.40625q0 -1.25 -0.578125 -1.859375q-0.5625 -0.625 -1.734375 -0.625q-1.65625 0 -2.328125 0.9375q-0.671875 0.9375 -0.671875 2.71875l0 5.234375l-1.515625 0l0 -9.984375l1.21875 0l0.234375 1.4375l0.078125 0q0.3125 -0.53125 0.796875 -0.890625q0.5 -0.359375 1.109375 -0.546875q0.609375 -0.1875 1.296875 -0.1875zm13.160278 7.4375q0 0.953125 -0.484375 1.609375q-0.46875 0.65625 -1.359375 0.984375q-0.890625 0.328125 -2.109375 0.328125q-1.046875 0 -1.8125 -0.171875q-0.765625 -0.15625 -1.34375 -0.46875l0 -1.390625q0.609375 0.296875 1.453125 0.546875q0.859375 0.25 1.734375 0.25q1.296875 0 1.875 -0.421875q0.59375 -0.421875 0.59375 -1.140625q0 -0.40625 -0.234375 -0.71875q-0.234375 -0.3125 -0.78125 -0.609375q-0.546875 -0.296875 -1.515625 -0.65625q-0.953125 -0.359375 -1.65625 -0.71875q-0.6875 -0.359375 -1.078125 -0.875q-0.375 -0.53125 -0.375 -1.359375q0 -1.265625 1.015625 -1.9375q1.03125 -0.6875 2.703125 -0.6875q0.90625 0 1.6875 0.1875q0.796875 0.171875 1.46875 0.46875l-0.5 1.21875q-0.625 -0.265625 -1.328125 -0.4375q-0.703125 -0.1875 -1.421875 -0.1875q-1.046875 0 -1.609375 0.34375q-0.5625 0.34375 -0.5625 0.9375q0 0.46875 0.25 0.78125q0.265625 0.296875 0.84375 0.5625q0.578125 0.25 1.515625 0.609375q0.9375 0.34375 1.609375 0.71875q0.6875 0.375 1.046875 0.90625q0.375 0.515625 0.375 1.328125zm6.890869 -6.0625l-2.5 0l0 8.796875l-1.5 0l0 -8.796875l-1.78125 0l0 -0.734375l1.78125 -0.5l0 -0.65625q0 -1.265625 0.359375 -2.046875q0.375 -0.796875 1.078125 -1.171875q0.71875 -0.375 1.75 -0.375q0.5625 0 1.046875 0.109375q0.484375 0.09375 0.84375 0.21875l-0.390625 1.203125q-0.3125 -0.109375 -0.703125 -0.1875q-0.390625 -0.09375 -0.78125 -0.09375q-0.875 0 -1.296875 0.5625q-0.40625 0.5625 -0.40625 1.75l0 0.734375l2.5 0l0 1.1875zm10.432678 3.78125q0 1.234375 -0.328125 2.203125q-0.3125 0.96875 -0.921875 1.640625q-0.59375 0.65625 -1.453125 1.015625q-0.84375 0.34375 -1.921875 0.34375q-1.0 0 -1.828125 -0.34375q-0.828125 -0.359375 -1.4375 -1.015625q-0.609375 -0.671875 -0.953125 -1.640625q-0.328125 -0.96875 -0.328125 -2.203125q0 -1.640625 0.5625 -2.78125q0.5625 -1.15625 1.59375 -1.765625q1.03125 -0.609375 2.453125 -0.609375q1.375 0 2.390625 0.609375q1.03125 0.609375 1.59375 1.765625q0.578125 1.15625 0.578125 2.78125zm-7.59375 0q0 1.203125 0.3125 2.09375q0.328125 0.875 0.984375 1.359375q0.671875 0.484375 1.71875 0.484375q1.03125 0 1.703125 -0.484375q0.671875 -0.484375 0.984375 -1.359375q0.328125 -0.890625 0.328125 -2.09375q0 -1.1875 -0.328125 -2.046875q-0.3125 -0.875 -0.984375 -1.34375q-0.65625 -0.484375 -1.71875 -0.484375q-1.5625 0 -2.28125 1.03125q-0.71875 1.03125 -0.71875 2.84375zm14.738525 -5.15625q0.3125 0 0.640625 0.03125q0.328125 0.03125 0.578125 0.09375l-0.1875 1.40625q-0.25 -0.0625 -0.5625 -0.09375q-0.296875 -0.046875 -0.546875 -0.046875q-0.609375 0 -1.140625 0.25q-0.53125 0.234375 -0.9375 0.6875q-0.390625 0.453125 -0.625 1.09375q-0.234375 0.625 -0.234375 1.390625l0 5.359375l-1.515625 0l0 -9.984375l1.25 0l0.171875 1.84375l0.0625 0q0.3125 -0.5625 0.75 -1.015625q0.4375 -0.46875 1.015625 -0.734375q0.578125 -0.28125 1.28125 -0.28125zm13.937195 0q1.640625 0 2.484375 0.875q0.84375 0.859375 0.84375 2.75l0 6.546875l-1.5 0l0 -6.46875q0 -1.203125 -0.53125 -1.8125q-0.515625 -0.609375 -1.546875 -0.609375q-1.453125 0 -2.109375 0.84375q-0.65625 0.828125 -0.65625 2.46875l0 5.578125l-1.5 0l0 -6.46875q0 -0.8125 -0.234375 -1.34375q-0.234375 -0.546875 -0.6875 -0.8125q-0.453125 -0.265625 -1.15625 -0.265625q-1.0 0 -1.609375 0.40625q-0.59375 0.40625 -0.859375 1.21875q-0.265625 0.8125 -0.265625 1.984375l0 5.28125l-1.515625 0l0 -9.984375l1.21875 0l0.234375 1.40625l0.078125 0q0.296875 -0.515625 0.75 -0.859375q0.46875 -0.359375 1.03125 -0.546875q0.5625 -0.1875 1.203125 -0.1875q1.125 0 1.890625 0.4375q0.78125 0.421875 1.125 1.28125l0.078125 0q0.5 -0.859375 1.359375 -1.28125q0.859375 -0.4375 1.875 -0.4375z" fill-rule="nonzero"/><path fill="#000000" fill-opacity="0.0" d="m480.0 290.4882l101.95276 74.48819" fill-rule="evenodd"/><path stroke="#595959" stroke-width="1.0" stroke-linejoin="round" stroke-linecap="butt" d="m480.0 290.4882l97.10803 70.94858" fill-rule="evenodd"/><path fill="#595959" stroke="#595959" stroke-width="1.0" stroke-linecap="butt" d="m576.13367 362.77045l4.638672 1.3435059l-2.6898804 -4.0108643z" fill-rule="evenodd"/><path fill="#000000" fill-opacity="0.0" d="m669.4199 462.44675l165.9494 0l0 45.835083c-82.970215 0 -82.970215 17.63504 -165.9494 8.817535zm13.672241 0l0 -5.94223l164.81598 0l0 46.12262c-6.2649536 0 -12.538818 0.319458 -12.538818 0.319458l0 -40.499847zm12.851135 -5.94223l0 -5.7984924l166.2439 0l0 45.97885c-7.1395264 0 -14.279053 0.23962402 -14.279053 0.23962402l0 -40.419983z" fill-rule="evenodd"/><path fill="#000000" fill-opacity="0.0" d="m669.4199 462.44675l165.9494 0l0 45.835083c-82.970215 0 -82.970215 17.63504 -165.9494 8.817535zm13.672241 0l0 -5.94223l164.81598 0l0 46.12262c-6.2649536 0 -12.538818 0.319458 -12.538818 0.319458m-139.42603 -46.442078l0 -5.7984924l166.2439 0l0 45.97885c-7.1395264 0 -14.279053 0.23962402 -14.279053 0.23962402" fill-rule="evenodd"/><path fill="#000000" fill-opacity="0.0" d="m669.4199 517.09937c82.97919 8.817505 82.97919 -8.817535 165.9494 -8.817535l0 -5.3352356c0 0 6.2738647 -0.319458 12.538818 -0.319458l0 -5.7026367c0 0 7.1395264 -0.23962402 14.279053 -0.23962402l0 -45.97885l-166.2439 0l0 5.7984924l-12.851135 0l0 5.94223l-13.672241 0z" fill-rule="evenodd"/><path stroke="#595959" stroke-width="1.0" stroke-linejoin="round" stroke-linecap="butt" d="m669.4199 462.44675l165.9494 0l0 45.835083c-82.970215 0 -82.970215 17.63504 -165.9494 8.817535zm13.672241 0l0 -5.94223l164.81598 0l0 46.12262c-6.2649536 0 -12.538818 0.319458 -12.538818 0.319458m-139.42603 -46.442078l0 -5.7984924l166.2439 0l0 45.97885c-7.1395264 0 -14.279053 0.23962402 -14.279053 0.23962402" fill-rule="evenodd"/><path fill="#000000" d="m707.09485 497.25305l-1.78125 0l0 -13.65625l-4.796875 0l0 -1.5625l11.34375 0l0 1.5625l-4.765625 0l0 13.65625zm16.231506 -11.40625l0 11.40625l-1.421875 0l-0.25 -1.609375l-0.09375 0q-0.34375 0.59375 -0.90625 1.0q-0.5625 0.40625 -1.265625 0.609375q-0.703125 0.203125 -1.5 0.203125q-1.359375 0 -2.28125 -0.4375q-0.90625 -0.4375 -1.375 -1.34375q-0.453125 -0.921875 -0.453125 -2.359375l0 -7.46875l1.75 0l0 7.34375q0 1.421875 0.640625 2.125q0.640625 0.703125 1.96875 0.703125q1.265625 0 2.015625 -0.46875q0.765625 -0.484375 1.09375 -1.40625q0.34375 -0.9375 0.34375 -2.296875l0 -6.0l1.734375 0zm8.845764 -0.21875q0.34375 0 0.71875 0.046875q0.375 0.03125 0.65625 0.09375l-0.21875 1.59375q-0.28125 -0.0625 -0.625 -0.109375q-0.34375 -0.046875 -0.640625 -0.046875q-0.6875 0 -1.296875 0.28125q-0.609375 0.28125 -1.078125 0.796875q-0.453125 0.515625 -0.71875 1.234375q-0.25 0.71875 -0.25 1.609375l0 6.125l-1.734375 0l0 -11.40625l1.4375 0l0.1875 2.09375l0.0625 0q0.359375 -0.640625 0.859375 -1.15625q0.5 -0.53125 1.15625 -0.84375q0.671875 -0.3125 1.484375 -0.3125zm7.216614 10.421875q0.421875 0 0.859375 -0.078125q0.453125 -0.078125 0.734375 -0.171875l0 1.34375q-0.296875 0.125 -0.84375 0.21875q-0.53125 0.09375 -1.03125 0.09375q-0.90625 0 -1.65625 -0.3125q-0.734375 -0.3125 -1.1875 -1.078125q-0.4375 -0.765625 -0.4375 -2.109375l0 -6.765625l-1.625 0l0 -0.84375l1.640625 -0.671875l0.6875 -2.484375l1.046875 0l0 2.65625l3.34375 0l0 1.34375l-3.34375 0l0 6.71875q0 1.078125 0.484375 1.609375q0.5 0.53125 1.328125 0.53125zm5.64917 1.203125l-1.734375 0l0 -16.203125l1.734375 0l0 16.203125zm8.040405 -11.625q1.453125 0 2.5 0.65625q1.046875 0.640625 1.59375 1.796875q0.546875 1.15625 0.546875 2.71875l0 1.0625l-7.875 0q0.03125 2.015625 1.0 3.078125q0.96875 1.046875 2.71875 1.046875q1.09375 0 1.921875 -0.203125q0.828125 -0.203125 1.734375 -0.578125l0 1.515625q-0.875 0.390625 -1.71875 0.5625q-0.84375 0.171875 -2.0 0.171875q-1.65625 0 -2.875 -0.671875q-1.21875 -0.671875 -1.90625 -1.96875q-0.671875 -1.296875 -0.671875 -3.1875q0 -1.84375 0.609375 -3.1875q0.625 -1.359375 1.75 -2.078125q1.140625 -0.734375 2.671875 -0.734375zm-0.015625 1.421875q-1.390625 0 -2.21875 0.90625q-0.8125 0.90625 -0.96875 2.53125l6.03125 0q0 -1.03125 -0.3125 -1.796875q-0.3125 -0.78125 -0.9375 -1.203125q-0.625 -0.4375 -1.59375 -0.4375zm18.219666 0.140625l-2.84375 0l0 10.0625l-1.734375 0l0 -10.0625l-2.015625 0l0 -0.828125l2.015625 -0.578125l0 -0.75q0 -1.4375 0.421875 -2.34375q0.4375 -0.90625 1.25 -1.328125q0.8125 -0.421875 1.984375 -0.421875q0.65625 0 1.203125 0.109375q0.546875 0.109375 0.953125 0.265625l-0.4375 1.359375q-0.359375 -0.109375 -0.8125 -0.203125q-0.4375 -0.109375 -0.890625 -0.109375q-0.984375 0 -1.46875 0.640625q-0.46875 0.640625 -0.46875 2.0l0 0.84375l2.84375 0l0 1.34375zm3.8125 -1.34375l0 11.40625l-1.71875 0l0 -11.40625l1.71875 0zm-0.84375 -4.28125q0.4375 0 0.734375 0.28125q0.3125 0.28125 0.3125 0.859375q0 0.578125 -0.3125 0.859375q-0.296875 0.28125 -0.734375 0.28125q-0.4375 0 -0.734375 -0.28125q-0.296875 -0.28125 -0.296875 -0.859375q0 -0.578125 0.296875 -0.859375q0.296875 -0.28125 0.734375 -0.28125zm6.2469482 15.6875l-1.734375 0l0 -16.203125l1.734375 0l0 16.203125zm8.040344 -11.625q1.453125 0 2.5 0.65625q1.046875 0.640625 1.59375 1.796875q0.546875 1.15625 0.546875 2.71875l0 1.0625l-7.875 0q0.03125 2.015625 1.0 3.078125q0.96875 1.046875 2.71875 1.046875q1.09375 0 1.921875 -0.203125q0.828125 -0.203125 1.734375 -0.578125l0 1.515625q-0.875 0.390625 -1.71875 0.5625q-0.84375 0.171875 -2.0 0.171875q-1.65625 0 -2.875 -0.671875q-1.21875 -0.671875 -1.90625 -1.96875q-0.671875 -1.296875 -0.671875 -3.1875q0 -1.84375 0.609375 -3.1875q0.625 -1.359375 1.75 -2.078125q1.140625 -0.734375 2.671875 -0.734375zm-0.015625 1.421875q-1.390625 0 -2.21875 0.90625q-0.8125 0.90625 -0.96875 2.53125l6.03125 0q0 -1.03125 -0.3125 -1.796875q-0.3125 -0.78125 -0.9375 -1.203125q-0.625 -0.4375 -1.59375 -0.4375zm14.976257 7.078125q0 1.09375 -0.546875 1.84375q-0.546875 0.734375 -1.5625 1.109375q-1.015625 0.375 -2.421875 0.375q-1.1875 0 -2.0625 -0.1875q-0.875 -0.1875 -1.53125 -0.53125l0 -1.59375q0.6875 0.34375 1.65625 0.625q0.96875 0.28125 1.984375 0.28125q1.484375 0 2.140625 -0.46875q0.671875 -0.484375 0.671875 -1.3125q0 -0.46875 -0.265625 -0.828125q-0.265625 -0.359375 -0.890625 -0.6875q-0.625 -0.34375 -1.734375 -0.75q-1.09375 -0.421875 -1.890625 -0.828125q-0.796875 -0.40625 -1.234375 -1.0q-0.421875 -0.59375 -0.421875 -1.546875q0 -1.453125 1.171875 -2.21875q1.171875 -0.78125 3.078125 -0.78125q1.03125 0 1.921875 0.203125q0.90625 0.203125 1.6875 0.546875l-0.578125 1.390625q-0.703125 -0.3125 -1.515625 -0.515625q-0.796875 -0.203125 -1.625 -0.203125q-1.203125 0 -1.84375 0.390625q-0.640625 0.390625 -0.640625 1.078125q0 0.53125 0.296875 0.875q0.296875 0.34375 0.953125 0.65625q0.65625 0.296875 1.734375 0.703125q1.0625 0.390625 1.84375 0.8125q0.78125 0.421875 1.203125 1.03125q0.421875 0.59375 0.421875 1.53125z" fill-rule="nonzero"/><path fill="#000000" fill-opacity="0.0" d="m650.5733 390.91864l128.5039 59.77951" fill-rule="evenodd"/><path stroke="#595959" stroke-width="1.0" stroke-linejoin="round" stroke-linecap="butt" d="m650.5733 390.91864l123.06378 57.24878" fill-rule="evenodd"/><path fill="#595959" stroke="#595959" stroke-width="1.0" stroke-linecap="butt" d="m772.9403 449.66504l4.8114014 0.4165039l-3.4180298 -3.4117432z" fill-rule="evenodd"/><path fill="#000000" fill-opacity="0.0" d="m673.1417 406.02493l185.32281 0l0 29.574799l-185.32281 0z" fill-rule="evenodd"/><path fill="#595959" d="m753.88495 424.4386l-2.0 0l0 3.09375l-1.46875 0l0 -3.09375l-6.4375 0l0 -1.265625l6.328125 -9.03125l1.578125 0l0 8.9375l2.0 0l0 1.359375zm-3.46875 -1.359375l0 -4.359375q0 -0.5 0 -0.90625q0.015625 -0.40625 0.03125 -0.75q0.015625 -0.359375 0.03125 -0.671875q0.015625 -0.3125 0.03125 -0.625l-0.078125 0q-0.171875 0.359375 -0.40625 0.765625q-0.21875 0.40625 -0.4375 0.71875l-4.109375 5.828125l4.9375 0zm5.1828613 3.5q0 -0.625 0.3125 -0.890625q0.3125 -0.28125 0.765625 -0.28125q0.453125 0 0.765625 0.28125q0.328125 0.265625 0.328125 0.890625q0 0.640625 -0.328125 0.921875q-0.3125 0.28125 -0.765625 0.28125q-0.453125 0 -0.765625 -0.28125q-0.3125 -0.28125 -0.3125 -0.921875zm17.731506 -2.59375q0 1.1875 -0.59375 2.03125q-0.59375 0.828125 -1.65625 1.265625q-1.046875 0.4375 -2.46875 0.4375q-0.765625 0 -1.4375 -0.078125q-0.671875 -0.078125 -1.234375 -0.203125q-0.5625 -0.140625 -1.0 -0.34375l0 -1.484375q0.6875 0.28125 1.671875 0.53125q0.984375 0.234375 2.0625 0.234375q1.0 0 1.6875 -0.265625q0.6875 -0.265625 1.046875 -0.765625q0.359375 -0.515625 0.359375 -1.234375q0 -0.671875 -0.296875 -1.125q-0.296875 -0.46875 -1.0 -0.84375q-0.6875 -0.390625 -1.890625 -0.8125q-0.84375 -0.296875 -1.5 -0.65625q-0.640625 -0.359375 -1.078125 -0.8125q-0.4375 -0.46875 -0.671875 -1.0625q-0.21875 -0.609375 -0.21875 -1.375q0 -1.0625 0.546875 -1.828125q0.546875 -0.765625 1.5 -1.171875q0.96875 -0.40625 2.21875 -0.40625q1.0625 0 1.96875 0.203125q0.90625 0.203125 1.65625 0.546875l-0.484375 1.328125q-0.71875 -0.296875 -1.53125 -0.5q-0.796875 -0.203125 -1.65625 -0.203125q-0.859375 0 -1.453125 0.25q-0.578125 0.25 -0.890625 0.703125q-0.296875 0.453125 -0.296875 1.078125q0 0.703125 0.28125 1.171875q0.296875 0.46875 0.953125 0.828125q0.65625 0.359375 1.734375 0.75q1.171875 0.421875 1.984375 0.90625q0.828125 0.484375 1.25 1.171875q0.4375 0.6875 0.4375 1.734375zm6.3237305 -6.625q1.28125 0 2.1875 0.578125q0.90625 0.5625 1.390625 1.578125q0.484375 1.015625 0.484375 2.375l0 0.9375l-6.890625 0q0.015625 1.75 0.859375 2.671875q0.859375 0.921875 2.390625 0.921875q0.953125 0 1.671875 -0.171875q0.734375 -0.171875 1.53125 -0.515625l0 1.328125q-0.765625 0.34375 -1.515625 0.5q-0.734375 0.15625 -1.75 0.15625q-1.4375 0 -2.515625 -0.59375q-1.0625 -0.59375 -1.65625 -1.71875q-0.59375 -1.140625 -0.59375 -2.796875q0 -1.609375 0.546875 -2.78125q0.546875 -1.1875 1.53125 -1.828125q0.984375 -0.640625 2.328125 -0.640625zm-0.015625 1.25q-1.21875 0 -1.9375 0.796875q-0.71875 0.78125 -0.859375 2.203125l5.296875 0q-0.015625 -0.890625 -0.28125 -1.5625q-0.265625 -0.6875 -0.8125 -1.0625q-0.546875 -0.375 -1.40625 -0.375zm11.179077 -1.25q0.3125 0 0.640625 0.03125q0.328125 0.03125 0.578125 0.09375l-0.1875 1.40625q-0.25 -0.0625 -0.5625 -0.09375q-0.296875 -0.046875 -0.546875 -0.046875q-0.609375 0 -1.140625 0.25q-0.53125 0.234375 -0.9375 0.6875q-0.390625 0.453125 -0.625 1.09375q-0.234375 0.625 -0.234375 1.390625l0 5.359375l-1.515625 0l0 -9.984375l1.25 0l0.171875 1.84375l0.0625 0q0.3125 -0.5625 0.75 -1.015625q0.4375 -0.46875 1.015625 -0.734375q0.578125 -0.28125 1.28125 -0.28125zm4.609009 0.1875l0 9.984375l-1.515625 0l0 -9.984375l1.515625 0zm-0.734375 -3.734375q0.359375 0 0.625 0.25q0.28125 0.234375 0.28125 0.75q0 0.5 -0.28125 0.75q-0.265625 0.234375 -0.625 0.234375q-0.390625 0 -0.65625 -0.234375q-0.265625 -0.25 -0.265625 -0.75q0 -0.515625 0.265625 -0.75q0.265625 -0.25 0.65625 -0.25zm7.6627197 3.578125q1.78125 0 2.640625 0.796875q0.875 0.796875 0.875 2.5625l0 6.78125l-1.09375 0l-0.296875 -1.46875l-0.078125 0q-0.421875 0.546875 -0.875 0.921875q-0.453125 0.359375 -1.046875 0.546875q-0.59375 0.1875 -1.46875 0.1875q-0.90625 0 -1.609375 -0.3125q-0.703125 -0.328125 -1.109375 -0.96875q-0.40625 -0.65625 -0.40625 -1.640625q0 -1.5 1.171875 -2.296875q1.1875 -0.8125 3.609375 -0.875l1.734375 -0.078125l0 -0.609375q0 -1.296875 -0.5625 -1.8125q-0.546875 -0.515625 -1.5625 -0.515625q-0.78125 0 -1.5 0.234375q-0.703125 0.21875 -1.34375 0.53125l-0.46875 -1.15625q0.671875 -0.34375 1.546875 -0.578125q0.875 -0.25 1.84375 -0.25zm2.015625 5.21875l-1.515625 0.0625q-1.859375 0.078125 -2.625 0.625q-0.765625 0.53125 -0.765625 1.515625q0 0.84375 0.515625 1.265625q0.515625 0.40625 1.375 0.40625q1.328125 0 2.171875 -0.734375q0.84375 -0.734375 0.84375 -2.21875l0 -0.921875zm6.132263 4.921875l-1.515625 0l0 -14.171875l1.515625 0l0 14.171875zm4.7095947 -9.984375l0 9.984375l-1.515625 0l0 -9.984375l1.515625 0zm-0.734375 -3.734375q0.359375 0 0.625 0.25q0.28125 0.234375 0.28125 0.75q0 0.5 -0.28125 0.75q-0.265625 0.234375 -0.625 0.234375q-0.390625 0 -0.65625 -0.234375q-0.265625 -0.25 -0.265625 -0.75q0 -0.515625 0.265625 -0.75q0.265625 -0.25 0.65625 -0.25zm10.334595 13.71875l-7.265625 0l0 -1.0l5.46875 -7.796875l-5.125 0l0 -1.1875l6.8125 0l0 1.125l-5.40625 7.6875l5.515625 0l0 1.171875zm6.182617 -10.171875q1.28125 0 2.1875 0.578125q0.90625 0.5625 1.390625 1.578125q0.484375 1.015625 0.484375 2.375l0 0.9375l-6.890625 0q0.015625 1.75 0.859375 2.671875q0.859375 0.921875 2.390625 0.921875q0.953125 0 1.671875 -0.171875q0.734375 -0.171875 1.53125 -0.515625l0 1.328125q-0.765625 0.34375 -1.515625 0.5q-0.734375 0.15625 -1.75 0.15625q-1.4375 0 -2.515625 -0.59375q-1.0625 -0.59375 -1.65625 -1.71875q-0.59375 -1.140625 -0.59375 -2.796875q0 -1.609375 0.546875 -2.78125q0.546875 -1.1875 1.53125 -1.828125q0.984375 -0.640625 2.328125 -0.640625zm-0.015625 1.25q-1.21875 0 -1.9375 0.796875q-0.71875 0.78125 -0.859375 2.203125l5.296875 0q-0.015625 -0.890625 -0.28125 -1.5625q-0.265625 -0.6875 -0.8125 -1.0625q-0.546875 -0.375 -1.40625 -0.375z" fill-rule="nonzero"/></g></svg>